<?xml version="1.0" encoding="UTF-8" standalone="no"?>
<svg
   xmlns:dc="http://purl.org/dc/elements/1.1/"
   xmlns:cc="http://creativecommons.org/ns#"
   xmlns:rdf="http://www.w3.org/1999/02/22-rdf-syntax-ns#"
   xmlns:svg="http://www.w3.org/2000/svg"
   xmlns="http://www.w3.org/2000/svg"
   xmlns:sodipodi="http://sodipodi.sourceforge.net/DTD/sodipodi-0.dtd"
   xmlns:inkscape="http://www.inkscape.org/namespaces/inkscape"
   id="svg"
   version="1.1"
   width="400"
   height="400.40899795501025"
   viewBox="0, 0, 400,400.40899795501025"
   sodipodi:docname="ALQsvg.svg"
   inkscape:version="0.92.4 (5da689c313, 2019-01-14)">
  <metadata
     id="metadata4646">
    <rdf:RDF>
      <cc:Work
         rdf:about="">
        <dc:format>image/svg+xml</dc:format>
        <dc:type
           rdf:resource="http://purl.org/dc/dcmitype/StillImage" />
        <dc:title></dc:title>
      </cc:Work>
    </rdf:RDF>
  </metadata>
  <defs
     id="defs4644" />
  <sodipodi:namedview
     pagecolor="#ffffff"
     bordercolor="#666666"
     borderopacity="1"
     objecttolerance="10"
     gridtolerance="10"
     guidetolerance="10"
     inkscape:pageopacity="0"
     inkscape:pageshadow="2"
     inkscape:window-width="1920"
     inkscape:window-height="1016"
     id="namedview4642"
     showgrid="false"
     inkscape:zoom="2.1153371"
     inkscape:cx="238.02012"
     inkscape:cy="195.23984"
     inkscape:window-x="-8"
     inkscape:window-y="-8"
     inkscape:window-maximized="1"
     inkscape:current-layer="svg" />
  <g
     id="svgg">
    <path
       id="path0"
       d="M195.979 0.537 C 195.857 0.668,194.147 0.793,192.179 0.814 C 178.217 0.962,159.753 4.209,140.390 9.922 C 135.967 11.227,125.151 15.168,122.574 16.414 C 121.679 16.846,120.829 17.200,120.684 17.200 C 120.322 17.200,108.249 22.924,108.000 23.214 C 107.890 23.342,106.450 24.136,104.800 24.978 C 101.895 26.460,95.925 29.953,92.795 32.000 C 91.955 32.550,90.127 33.709,88.733 34.576 C 87.340 35.442,86.110 36.258,86.000 36.389 C 85.890 36.520,83.730 38.139,81.200 39.986 C 71.030 47.413,58.124 59.310,49.996 68.750 C 48.788 70.153,47.616 71.503,47.392 71.750 C 47.167 71.998,46.267 73.098,45.392 74.196 C 44.516 75.294,43.395 76.643,42.900 77.192 C 42.405 77.742,42.000 78.316,42.000 78.467 C 42.000 78.619,41.775 78.981,41.500 79.271 C 39.311 81.585,31.526 93.152,27.952 99.400 C 22.952 108.140,17.755 118.455,15.861 123.400 C 15.523 124.280,14.546 126.800,13.689 129.000 C 9.899 138.727,5.240 155.115,3.795 163.800 C 3.722 164.240,3.462 165.680,3.218 167.000 C 2.974 168.320,2.517 171.470,2.203 174.000 C 1.889 176.530,1.421 180.130,1.162 182.000 C -0.621 194.919,0.978 223.215,4.409 239.443 C 6.858 251.028,12.377 269.924,13.567 270.800 C 13.716 270.910,13.862 271.360,13.890 271.800 C 13.962 272.902,16.094 277.943,19.863 285.923 C 21.039 288.411,22.000 290.512,22.000 290.592 C 22.000 290.672,22.900 292.295,24.000 294.200 C 25.100 296.105,26.000 297.742,26.000 297.838 C 26.000 298.158,32.866 309.372,34.243 311.301 C 34.989 312.346,35.600 313.305,35.600 313.431 C 35.600 313.730,40.875 320.659,45.169 326.000 C 55.227 338.513,69.939 352.556,81.416 360.600 C 82.671 361.480,83.901 362.390,84.149 362.622 C 84.835 363.264,96.294 370.800,96.584 370.800 C 96.724 370.800,97.775 371.396,98.919 372.125 C 101.710 373.902,107.042 376.802,111.600 379.022 C 112.370 379.397,113.810 380.107,114.800 380.601 C 117.275 381.833,122.099 383.956,126.600 385.792 C 138.733 390.742,156.196 395.407,171.000 397.652 C 173.860 398.086,177.245 398.599,178.522 398.793 C 187.474 400.151,212.410 400.156,220.400 398.801 C 221.610 398.596,224.760 398.147,227.400 397.803 C 241.003 396.029,255.164 392.466,269.683 387.165 C 275.037 385.209,275.134 385.170,281.800 382.190 C 289.261 378.855,300.400 373.011,300.400 372.431 C 300.400 372.267,300.625 372.129,300.900 372.123 C 301.617 372.108,312.245 365.454,315.109 363.227 C 315.709 362.761,316.765 361.979,317.455 361.490 C 326.796 354.867,337.378 345.454,346.000 336.097 C 352.468 329.078,352.886 328.587,357.672 322.400 C 363.558 314.789,367.741 308.552,367.366 307.946 C 367.195 307.668,367.249 307.583,367.497 307.737 C 368.663 308.457,380.634 285.960,384.919 275.000 C 392.013 256.851,398.354 231.286,398.760 219.200 C 398.771 218.870,398.983 215.990,399.230 212.800 C 399.826 205.115,399.462 185.998,398.615 180.500 C 398.267 178.245,397.948 175.597,397.905 174.616 C 397.856 173.486,397.700 173.009,397.480 173.316 C 397.273 173.605,397.230 173.242,397.373 172.418 C 397.505 171.657,397.351 169.857,397.030 168.418 C 396.709 166.978,396.066 163.910,395.601 161.600 C 393.969 153.504,393.632 151.966,392.966 149.592 C 392.597 148.277,392.144 147.200,391.960 147.200 C 391.776 147.200,391.720 146.953,391.835 146.652 C 392.030 146.145,391.534 144.388,388.940 136.400 C 387.751 132.738,386.118 128.238,385.361 126.540 C 385.053 125.846,384.800 125.169,384.800 125.035 C 384.800 124.813,384.040 123.001,382.604 119.800 C 380.627 115.390,375.157 104.498,373.665 102.000 C 362.165 82.740,354.943 73.304,341.213 59.600 C 333.655 52.057,331.407 49.956,328.612 47.827 C 327.519 46.994,326.439 46.080,326.212 45.797 C 325.985 45.513,323.460 43.528,320.600 41.385 C 317.740 39.243,314.950 37.151,314.400 36.735 C 313.085 35.741,306.007 31.200,305.773 31.200 C 305.673 31.200,304.155 30.300,302.400 29.200 C 300.645 28.100,299.086 27.200,298.936 27.200 C 298.786 27.200,298.379 26.945,298.031 26.634 C 297.341 26.014,284.050 19.218,280.200 17.515 C 271.505 13.670,255.130 8.165,247.200 6.421 C 245.990 6.155,243.470 5.600,241.600 5.188 C 233.677 3.442,227.302 2.484,215.137 1.209 C 210.337 0.707,196.279 0.213,195.979 0.537 M190.742 20.300 C 189.781 22.839,50.165 301.367,49.800 301.474 C 49.426 301.583,48.429 300.132,44.801 294.200 C 41.733 289.182,36.474 278.965,34.199 273.600 C 33.593 272.170,32.782 270.280,32.396 269.400 C 28.958 261.551,25.095 249.368,23.390 241.000 C 23.076 239.460,22.636 237.480,22.413 236.600 C 21.815 234.239,20.021 222.435,19.526 217.600 C 18.865 211.147,19.002 186.381,19.729 180.800 C 20.059 178.270,20.448 175.030,20.594 173.600 C 20.740 172.170,21.188 169.470,21.590 167.600 C 21.992 165.730,22.322 163.930,22.325 163.600 C 22.329 162.973,24.550 153.884,25.208 151.800 C 25.416 151.140,26.408 147.990,27.413 144.800 C 29.133 139.334,31.003 134.107,32.206 131.400 C 32.499 130.740,33.311 128.850,34.010 127.200 C 35.252 124.268,40.210 114.194,40.802 113.400 C 40.966 113.180,41.785 111.740,42.622 110.200 C 44.634 106.496,48.299 100.757,51.888 95.686 C 53.490 93.424,54.800 91.414,54.800 91.220 C 54.800 91.026,54.957 90.807,55.150 90.733 C 55.342 90.660,56.629 89.160,58.010 87.400 C 65.307 78.099,77.715 65.677,87.200 58.176 C 88.850 56.871,90.344 55.578,90.520 55.302 C 90.696 55.026,91.056 54.800,91.320 54.800 C 91.584 54.800,92.790 54.025,94.000 53.078 C 98.016 49.937,116.782 38.400,117.876 38.400 C 118.069 38.400,120.494 37.316,124.800 35.305 C 143.028 26.793,162.762 21.622,184.600 19.636 C 191.251 19.031,191.224 19.028,190.742 20.300 M219.600 20.034 C 235.784 21.564,258.789 27.529,270.281 33.174 C 271.205 33.628,272.143 34.000,272.364 34.000 C 272.925 34.000,284.680 39.789,288.800 42.094 C 293.335 44.632,303.750 51.230,304.400 51.977 C 304.510 52.104,305.274 52.656,306.097 53.204 C 306.921 53.752,307.596 54.335,307.597 54.500 C 307.599 54.665,307.800 54.800,308.045 54.800 C 308.290 54.800,309.055 55.265,309.745 55.834 C 310.435 56.403,312.189 57.798,313.641 58.934 C 322.913 66.185,336.035 79.324,341.400 86.729 C 342.062 87.643,342.833 88.301,343.121 88.197 C 343.407 88.094,343.535 88.181,343.405 88.392 C 343.275 88.603,344.653 90.806,346.467 93.287 C 350.540 98.861,353.849 103.846,355.568 107.000 C 356.288 108.320,357.022 109.580,357.199 109.800 C 357.906 110.675,365.200 124.925,365.200 125.430 C 365.200 125.551,365.668 126.673,366.239 127.925 C 368.067 131.927,368.301 132.503,370.323 138.000 C 372.795 144.718,376.439 157.268,377.003 161.000 C 377.102 161.660,377.540 163.820,377.975 165.800 C 380.580 177.641,381.813 198.176,380.775 212.400 C 380.478 216.470,380.227 220.565,380.217 221.500 C 380.208 222.435,380.065 223.200,379.900 223.200 C 379.735 223.200,379.600 223.742,379.600 224.403 C 379.600 225.737,377.766 236.994,377.189 239.200 C 376.988 239.970,376.360 242.580,375.793 245.000 C 375.227 247.420,374.438 250.390,374.041 251.600 C 373.644 252.810,373.012 254.790,372.636 256.000 C 372.260 257.210,371.616 259.100,371.205 260.200 C 369.692 264.242,367.514 269.838,366.922 271.200 C 365.815 273.748,361.032 283.761,360.426 284.800 C 360.234 285.130,359.133 287.110,357.980 289.200 C 354.773 295.012,350.771 301.200,350.218 301.200 C 349.945 301.200,348.327 298.365,346.622 294.900 C 344.917 291.435,343.370 288.330,343.183 288.000 C 342.997 287.670,339.310 280.290,334.989 271.600 C 330.668 262.910,326.980 255.530,326.793 255.200 C 326.606 254.870,322.196 246.050,316.994 235.600 C 311.791 225.150,307.380 216.330,307.191 216.000 C 307.001 215.670,303.312 208.290,298.992 199.600 C 294.672 190.910,290.983 183.530,290.795 183.200 C 290.607 182.870,286.196 174.050,280.994 163.600 C 275.791 153.150,271.378 144.330,271.186 144.000 C 270.994 143.670,267.306 136.290,262.989 127.600 C 258.673 118.910,254.985 111.530,254.794 111.200 C 254.604 110.870,250.191 102.050,244.987 91.600 C 239.783 81.150,235.373 72.330,235.186 72.000 C 234.999 71.670,231.308 64.290,226.984 55.600 C 222.659 46.910,218.972 39.530,218.790 39.200 C 217.036 36.028,209.200 20.080,209.200 19.683 C 209.200 19.137,210.607 19.184,219.600 20.034 M207.356 64.531 C 213.654 77.275,217.745 85.482,226.727 103.400 C 228.712 107.360,232.399 114.740,234.920 119.800 C 237.441 124.860,241.847 133.680,244.712 139.400 C 247.577 145.120,251.755 153.490,253.998 158.000 C 256.242 162.510,258.254 166.416,258.471 166.681 C 258.688 166.945,258.806 167.440,258.733 167.781 C 258.546 168.650,141.472 168.768,141.287 167.899 C 141.225 167.607,141.653 166.476,142.239 165.384 C 142.825 164.293,145.724 158.540,148.683 152.600 C 151.641 146.660,155.327 139.280,156.873 136.200 C 160.596 128.783,169.217 111.539,174.670 100.600 C 177.083 95.760,179.265 91.440,179.518 91.000 C 179.772 90.560,184.240 81.650,189.449 71.200 C 194.657 60.750,199.112 51.816,199.347 51.346 C 200.069 49.908,200.388 50.434,207.356 64.531 M210.800 183.560 C 220.484 185.498,229.234 190.027,236.123 196.667 C 239.019 199.459,246.055 208.207,246.204 209.200 C 246.220 209.310,246.652 210.300,247.164 211.400 C 258.187 235.100,251.814 262.071,231.600 277.274 C 230.181 278.341,223.674 282.400,223.382 282.400 C 223.295 282.400,222.240 282.850,221.037 283.400 C 219.835 283.950,218.732 284.400,218.586 284.400 C 218.440 284.400,217.754 284.652,217.060 284.960 C 211.140 287.588,196.662 288.339,188.400 286.446 C 167.557 281.670,151.735 264.966,148.008 243.800 C 146.798 236.929,147.963 222.528,150.085 218.127 C 150.317 217.647,150.383 216.932,150.232 216.539 C 150.081 216.146,150.079 215.946,150.227 216.094 C 150.376 216.242,151.490 214.347,152.704 211.882 C 153.918 209.417,156.191 205.692,157.756 203.603 C 159.320 201.515,160.540 199.625,160.467 199.403 C 160.393 199.182,160.463 199.130,160.623 199.289 C 160.782 199.448,162.102 198.437,163.556 197.041 C 168.476 192.319,171.482 190.215,177.200 187.492 C 182.630 184.906,185.848 184.048,195.400 182.640 C 197.879 182.274,207.140 182.828,210.800 183.560 M1.882 185.700 C 1.787 186.195,1.709 185.790,1.709 184.800 C 1.709 183.810,1.787 183.405,1.882 183.900 C 1.978 184.395,1.978 185.205,1.882 185.700 M133.496 241.100 L 133.400 297.800 104.900 297.903 C 85.123 297.974,76.400 297.876,76.400 297.584 C 76.400 297.352,83.351 283.265,91.848 266.281 C 100.344 249.296,109.718 230.540,112.679 224.600 C 115.639 218.660,119.326 211.280,120.872 208.200 C 122.418 205.120,125.736 198.505,128.245 193.500 C 130.754 188.495,132.984 184.400,133.200 184.400 C 133.455 184.400,133.559 204.221,133.496 241.100 M295.451 240.822 C 310.916 271.720,323.577 297.226,323.585 297.503 C 323.597 297.903,317.775 297.984,295.100 297.903 L 266.600 297.800 266.499 241.066 C 266.422 197.915,266.509 184.370,266.865 184.488 C 267.122 184.574,279.986 209.924,295.451 240.822 M381.876 221.500 C 381.775 221.885,381.693 221.570,381.693 220.800 C 381.693 220.030,381.775 219.715,381.876 220.100 C 381.976 220.485,381.976 221.115,381.876 221.500 M254.276 231.900 C 254.175 232.285,254.093 231.970,254.093 231.200 C 254.093 230.430,254.175 230.115,254.276 230.500 C 254.376 230.885,254.376 231.515,254.276 231.900 M337.010 318.417 C 337.943 319.925,319.774 337.207,308.200 345.821 C 288.904 360.182,265.439 371.165,242.800 376.431 C 240.930 376.866,239.040 377.312,238.600 377.422 C 215.892 383.118,180.079 382.592,156.000 376.210 C 148.412 374.199,144.539 373.086,143.400 372.590 C 142.740 372.302,141.030 371.680,139.600 371.208 C 135.823 369.959,130.955 368.069,128.200 366.781 C 126.880 366.165,124.043 364.845,121.895 363.849 C 107.991 357.401,91.085 346.221,79.177 335.600 C 72.891 329.993,62.589 319.064,62.986 318.423 C 63.351 317.832,336.645 317.826,337.010 318.417 M215.500 381.876 C 215.115 381.976,214.485 381.976,214.100 381.876 C 213.715 381.775,214.030 381.693,214.800 381.693 C 215.570 381.693,215.885 381.775,215.500 381.876 "
       stroke="none"
       fill-rule="evenodd"
       fill="#231c1c" />
    <path
       id="path1"
       d="M0.070 96.300 C 0.108 149.265,0.197 191.790,0.266 190.800 C 0.336 189.810,0.582 186.300,0.813 183.000 C 1.372 175.025,3.339 162.444,5.349 154.000 C 7.135 146.494,10.492 135.586,12.981 129.200 C 14.761 124.636,15.782 122.152,16.024 121.800 C 16.175 121.580,17.154 119.420,18.199 117.000 C 30.709 88.041,55.249 57.985,82.352 38.428 C 87.140 34.973,92.725 31.200,93.051 31.200 C 93.157 31.200,94.269 30.511,95.522 29.668 C 99.962 26.683,110.917 20.897,117.600 18.009 C 119.250 17.296,121.140 16.473,121.800 16.181 C 132.131 11.607,143.146 8.116,157.800 4.772 C 185.854 -1.631,222.438 -0.883,250.400 6.665 C 252.490 7.229,254.560 7.779,255.000 7.888 C 256.727 8.313,267.101 11.715,268.800 12.413 C 269.790 12.820,271.860 13.637,273.400 14.228 C 274.940 14.820,277.010 15.650,278.000 16.074 C 308.150 28.971,334.688 48.842,354.828 73.600 C 359.470 79.306,363.200 84.270,363.200 84.743 C 363.200 84.958,363.350 85.193,363.534 85.267 C 365.976 86.243,381.574 114.703,385.310 125.000 C 385.869 126.540,386.677 128.610,387.105 129.600 C 390.894 138.354,395.832 157.130,397.626 169.600 C 397.863 171.250,398.211 173.680,398.400 175.000 C 398.690 177.027,399.265 183.968,399.742 191.200 C 399.807 192.190,399.892 149.575,399.930 96.500 L 400.000 0.000 200.000 0.000 L 0.000 0.000 0.070 96.300 M187.151 19.782 C 187.051 19.883,184.702 20.149,181.931 20.374 C 166.609 21.618,144.043 27.333,129.800 33.576 C 128.920 33.961,127.580 34.530,126.823 34.838 C 121.971 36.817,110.953 42.734,103.178 47.534 C 91.513 54.736,74.616 68.874,66.764 78.000 C 52.879 94.140,46.194 103.837,38.639 118.800 C 28.840 138.206,23.696 155.312,20.114 180.400 C 18.472 191.898,19.226 217.087,21.592 229.800 C 22.002 232.000,22.452 234.520,22.593 235.400 C 22.733 236.280,23.009 237.540,23.205 238.200 C 23.402 238.860,24.128 241.740,24.819 244.600 C 25.973 249.375,30.478 263.627,31.761 266.558 C 32.060 267.241,32.706 268.790,33.197 270.000 C 37.236 279.951,49.005 301.528,49.904 300.629 C 50.109 300.424,190.400 19.931,190.400 19.726 C 190.400 19.527,187.354 19.580,187.151 19.782 M209.600 19.679 C 209.600 20.330,350.052 300.562,350.297 300.400 C 351.271 299.755,357.619 289.175,360.977 282.600 C 369.290 266.324,376.714 243.597,378.812 228.000 C 379.034 226.350,379.525 222.750,379.903 220.000 C 380.759 213.770,380.880 188.136,380.082 182.000 C 377.445 161.728,372.166 141.966,365.572 127.683 C 365.137 126.739,364.478 125.209,364.108 124.283 C 362.898 121.250,358.357 112.717,354.737 106.674 C 338.965 80.341,315.457 57.707,287.779 42.206 C 270.579 32.573,250.691 25.552,230.600 22.022 C 222.244 20.554,209.600 19.143,209.600 19.679 M199.121 52.900 C 198.758 53.615,194.923 61.290,190.599 69.956 C 186.275 78.622,182.578 86.002,182.385 86.356 C 182.191 86.710,177.793 95.511,172.611 105.914 C 167.429 116.316,163.020 125.136,162.812 125.514 C 162.605 125.891,160.654 129.800,158.477 134.200 C 156.300 138.600,151.934 147.330,148.774 153.600 C 145.615 159.870,142.717 165.675,142.335 166.500 L 141.639 168.000 200.019 168.000 L 258.400 168.000 229.300 109.800 C 213.296 77.790,200.107 51.600,199.992 51.600 C 199.876 51.600,199.485 52.185,199.121 52.900 M193.800 183.047 C 156.985 188.595,136.915 226.878,153.877 259.200 C 173.750 297.068,227.952 296.252,246.824 257.800 C 261.848 227.189,244.027 191.095,210.262 183.750 C 207.479 183.145,196.315 182.668,193.800 183.047 M266.947 188.500 C 267.071 190.095,267.178 215.295,267.186 244.500 L 267.200 297.600 295.200 297.600 L 323.201 297.600 295.200 241.600 C 279.800 210.800,267.092 185.600,266.960 185.600 C 266.829 185.600,266.823 186.905,266.947 188.500 M129.545 192.104 C 127.865 195.457,122.237 206.711,117.040 217.114 C 111.842 227.516,107.421 236.336,107.215 236.714 C 107.009 237.091,103.307 244.490,98.989 253.156 C 94.670 261.822,90.977 269.202,90.783 269.556 C 90.588 269.910,87.367 276.365,83.624 283.900 L 76.820 297.600 105.013 297.600 L 133.205 297.600 133.185 243.100 C 133.174 213.125,133.038 188.017,132.882 187.304 C 132.614 186.072,132.451 186.306,129.545 192.104 M0.063 304.100 L 0.000 400.400 99.100 400.335 C 153.605 400.300,194.960 400.138,191.000 399.977 C 184.068 399.694,172.177 398.498,167.059 397.568 C 143.176 393.228,124.183 386.609,102.998 375.245 C 80.393 363.118,52.491 338.602,38.800 318.839 C 28.249 303.607,21.671 292.156,16.793 280.526 C 15.887 278.367,14.903 276.060,14.605 275.400 C 12.383 270.470,8.388 258.325,6.249 250.000 C 4.977 245.047,4.332 241.944,2.594 232.400 C 1.837 228.245,0.832 219.065,0.427 212.600 C 0.262 209.960,0.098 251.135,0.063 304.100 M399.481 213.373 C 398.091 244.121,386.742 279.295,369.401 306.600 C 367.087 310.243,363.920 314.975,363.645 315.200 C 363.510 315.310,362.600 316.570,361.622 318.000 C 351.154 333.302,330.015 353.996,314.005 364.614 C 312.357 365.706,310.783 366.811,310.507 367.070 C 310.230 367.328,308.993 368.138,307.758 368.870 C 306.523 369.601,305.037 370.496,304.456 370.858 C 290.606 379.492,270.456 388.336,254.800 392.654 C 239.276 396.935,224.690 399.269,209.000 399.984 C 205.480 400.144,247.015 400.303,301.300 400.338 L 400.000 400.400 400.000 304.200 C 400.000 251.290,399.938 208.000,399.862 208.000 C 399.786 208.000,399.614 210.418,399.481 213.373 M64.430 319.888 C 76.701 333.651,92.854 347.111,106.600 355.026 C 107.700 355.659,109.182 356.568,109.893 357.046 C 112.295 358.660,128.166 366.343,132.800 368.135 C 162.140 379.484,192.640 383.568,221.200 379.972 C 236.180 378.086,252.754 373.763,267.800 367.819 C 292.083 358.225,319.713 338.820,334.871 320.715 L 336.474 318.800 199.968 318.800 L 63.461 318.800 64.430 319.888 "
       stroke="none"
       fill-rule="evenodd"
       fill="#040404"
       style="fill:#000000;fill-opacity:0" />
    <path
       id="path2"
       d="M190.700 0.682 C 191.195 0.778,192.005 0.778,192.500 0.682 C 192.995 0.587,192.590 0.509,191.600 0.509 C 190.610 0.509,190.205 0.587,190.700 0.682 M207.105 0.683 C 207.602 0.779,208.322 0.775,208.705 0.675 C 209.087 0.575,208.680 0.496,207.800 0.501 C 206.920 0.505,206.607 0.587,207.105 0.683 M67.775 50.500 L 66.600 51.800 67.900 50.625 C 68.615 49.979,69.200 49.394,69.200 49.325 C 69.200 49.016,68.870 49.288,67.775 50.500 M93.722 53.429 L 92.600 54.458 93.900 53.554 C 94.615 53.057,95.200 52.593,95.200 52.525 C 95.200 52.209,94.758 52.480,93.722 53.429 M335.600 53.800 C 336.346 54.570,337.047 55.200,337.157 55.200 C 337.267 55.200,336.746 54.570,336.000 53.800 C 335.254 53.030,334.553 52.400,334.443 52.400 C 334.333 52.400,334.854 53.030,335.600 53.800 M90.785 55.629 L 89.400 56.858 90.900 55.781 C 92.226 54.830,92.657 54.400,92.285 54.400 C 92.222 54.400,91.547 54.953,90.785 55.629 M346.800 65.000 C 347.546 65.770,348.247 66.400,348.357 66.400 C 348.467 66.400,347.946 65.770,347.200 65.000 C 346.454 64.230,345.753 63.600,345.643 63.600 C 345.533 63.600,346.054 64.230,346.800 65.000 M77.781 66.500 L 76.200 68.200 77.900 66.619 C 78.835 65.749,79.600 64.984,79.600 64.919 C 79.600 64.616,79.252 64.919,77.781 66.500 M320.400 64.925 C 320.400 64.994,320.985 65.579,321.700 66.225 L 323.000 67.400 321.825 66.100 C 320.730 64.888,320.400 64.616,320.400 64.925 M49.781 68.500 L 48.200 70.200 49.900 68.619 C 50.835 67.749,51.600 66.984,51.600 66.919 C 51.600 66.616,51.252 66.919,49.781 68.500 M73.375 70.500 L 72.200 71.800 73.500 70.625 C 74.215 69.979,74.800 69.394,74.800 69.325 C 74.800 69.016,74.470 69.288,73.375 70.500 M328.400 72.600 C 329.146 73.370,329.847 74.000,329.957 74.000 C 330.067 74.000,329.546 73.370,328.800 72.600 C 328.054 71.830,327.353 71.200,327.243 71.200 C 327.133 71.200,327.654 71.830,328.400 72.600 M70.175 73.700 L 69.000 75.000 70.300 73.825 C 71.015 73.179,71.600 72.594,71.600 72.525 C 71.600 72.216,71.270 72.488,70.175 73.700 M65.775 78.500 L 64.600 79.800 65.900 78.625 C 67.112 77.530,67.384 77.200,67.075 77.200 C 67.006 77.200,66.421 77.785,65.775 78.500 M332.800 77.325 C 332.800 77.394,333.385 77.979,334.100 78.625 L 335.400 79.800 334.225 78.500 C 333.130 77.288,332.800 77.016,332.800 77.325 M55.944 90.300 C 54.793 91.689,54.306 92.400,54.504 92.400 C 54.614 92.400,55.186 91.770,55.773 91.000 C 56.863 89.571,56.995 89.032,55.944 90.300 M21.000 111.200 C 20.659 111.860,20.469 112.400,20.579 112.400 C 20.689 112.400,21.059 111.860,21.400 111.200 C 21.741 110.540,21.931 110.000,21.821 110.000 C 21.711 110.000,21.341 110.540,21.000 111.200 M172.300 168.300 C 187.975 168.358,213.625 168.358,229.300 168.300 C 244.975 168.242,232.150 168.195,200.800 168.195 C 169.450 168.195,156.625 168.242,172.300 168.300 M197.900 182.693 C 198.835 182.777,200.365 182.777,201.300 182.693 C 202.235 182.609,201.470 182.540,199.600 182.540 C 197.730 182.540,196.965 182.609,197.900 182.693 M168.922 192.629 L 167.800 193.658 169.100 192.754 C 169.815 192.257,170.400 191.793,170.400 191.725 C 170.400 191.409,169.958 191.680,168.922 192.629 M18.914 194.600 C 18.917 195.700,18.995 196.103,19.087 195.495 C 19.179 194.886,19.177 193.986,19.082 193.495 C 18.987 193.003,18.911 193.500,18.914 194.600 M380.901 194.600 C 380.905 195.480,380.987 195.793,381.083 195.295 C 381.179 194.798,381.175 194.078,381.075 193.695 C 380.975 193.313,380.896 193.720,380.901 194.600 M399.758 200.200 C 399.758 203.280,399.821 204.487,399.897 202.882 C 399.973 201.278,399.973 198.758,399.896 197.282 C 399.819 195.807,399.757 197.120,399.758 200.200 M0.155 201.000 C 0.156 203.860,0.220 204.978,0.297 203.483 C 0.374 201.989,0.374 199.649,0.296 198.283 C 0.218 196.918,0.155 198.140,0.155 201.000 M236.000 196.925 C 236.000 196.994,236.585 197.579,237.300 198.225 L 238.600 199.400 237.425 198.100 C 236.330 196.888,236.000 196.616,236.000 196.925 M18.928 205.200 C 18.928 206.630,19.001 207.215,19.089 206.500 C 19.178 205.785,19.178 204.615,19.089 203.900 C 19.001 203.185,18.928 203.770,18.928 205.200 M380.909 207.600 C 380.909 208.590,380.987 208.995,381.082 208.500 C 381.178 208.005,381.178 207.195,381.082 206.700 C 380.987 206.205,380.909 206.610,380.909 207.600 M7.656 254.400 C 7.656 254.730,7.811 255.360,8.000 255.800 C 8.217 256.304,8.344 256.378,8.344 256.000 C 8.344 255.670,8.189 255.040,8.000 254.600 C 7.783 254.096,7.656 254.022,7.656 254.400 M391.829 255.029 C 391.681 255.615,391.638 256.172,391.732 256.266 C 391.827 256.360,392.024 255.958,392.171 255.371 C 392.319 254.785,392.362 254.228,392.268 254.134 C 392.173 254.040,391.976 254.442,391.829 255.029 M152.028 256.600 C 152.028 256.820,152.286 257.450,152.600 258.000 C 152.914 258.550,153.172 258.820,153.172 258.600 C 153.172 258.380,152.914 257.750,152.600 257.200 C 152.286 256.650,152.028 256.380,152.028 256.600 M158.000 266.800 C 158.470 267.460,158.944 268.000,159.054 268.000 C 159.164 268.000,158.870 267.460,158.400 266.800 C 157.930 266.140,157.456 265.600,157.346 265.600 C 157.236 265.600,157.530 266.140,158.000 266.800 M161.800 271.200 C 162.659 272.080,163.452 272.800,163.562 272.800 C 163.672 272.800,163.059 272.080,162.200 271.200 C 161.341 270.320,160.548 269.600,160.438 269.600 C 160.328 269.600,160.941 270.320,161.800 271.200 M237.600 271.400 C 236.628 272.390,235.923 273.200,236.033 273.200 C 236.143 273.200,237.028 272.390,238.000 271.400 C 238.972 270.410,239.677 269.600,239.567 269.600 C 239.457 269.600,238.572 270.410,237.600 271.400 M172.000 279.620 C 173.387 280.561,174.178 280.835,173.200 280.036 C 172.650 279.586,172.020 279.217,171.800 279.215 C 171.580 279.213,171.670 279.396,172.000 279.620 M362.200 280.400 C 361.859 281.060,361.669 281.600,361.779 281.600 C 361.889 281.600,362.259 281.060,362.600 280.400 C 362.941 279.740,363.131 279.200,363.021 279.200 C 362.911 279.200,362.541 279.740,362.200 280.400 M323.019 296.900 C 323.271 297.562,321.748 297.605,294.943 297.697 L 266.600 297.795 294.777 297.900 C 322.801 298.005,324.499 297.933,323.256 296.700 C 322.852 296.299,322.805 296.339,323.019 296.900 M76.743 297.703 C 76.909 297.869,89.725 297.959,105.223 297.903 L 133.400 297.800 104.920 297.600 C 89.256 297.490,76.576 297.536,76.743 297.703 M64.800 321.000 C 65.546 321.770,66.247 322.400,66.357 322.400 C 66.467 322.400,65.946 321.770,65.200 321.000 C 64.454 320.230,63.753 319.600,63.643 319.600 C 63.533 319.600,64.054 320.230,64.800 321.000 M330.400 325.800 C 328.761 327.450,327.510 328.800,327.620 328.800 C 327.730 328.800,329.161 327.450,330.800 325.800 C 332.439 324.150,333.690 322.800,333.580 322.800 C 333.470 322.800,332.039 324.150,330.400 325.800 M72.400 328.925 C 72.400 328.994,72.985 329.579,73.700 330.225 L 75.000 331.400 73.825 330.100 C 72.730 328.888,72.400 328.616,72.400 328.925 M325.375 330.900 L 324.200 332.200 325.500 331.025 C 326.215 330.379,326.800 329.794,326.800 329.725 C 326.800 329.416,326.470 329.688,325.375 330.900 M317.170 338.268 L 316.200 339.336 317.287 338.568 C 317.886 338.146,318.381 337.665,318.387 337.500 C 318.408 337.007,318.189 337.146,317.170 338.268 M341.186 341.500 L 339.000 343.800 341.300 341.614 C 343.437 339.582,343.783 339.200,343.486 339.200 C 343.424 339.200,342.389 340.235,341.186 341.500 M64.400 346.925 C 64.400 346.994,64.985 347.579,65.700 348.225 L 67.000 349.400 65.825 348.100 C 64.730 346.888,64.400 346.616,64.400 346.925 M334.175 348.100 L 333.000 349.400 334.300 348.225 C 335.015 347.579,335.600 346.994,335.600 346.925 C 335.600 346.616,335.270 346.888,334.175 348.100 M281.200 362.000 C 280.430 362.422,279.944 362.774,280.120 362.783 C 280.544 362.805,282.800 361.632,282.800 361.390 C 282.800 361.128,282.777 361.137,281.200 362.000 M124.400 365.000 C 124.950 365.314,125.580 365.572,125.800 365.572 C 126.020 365.572,125.750 365.314,125.200 365.000 C 124.650 364.686,124.020 364.428,123.800 364.428 C 123.580 364.428,123.850 364.686,124.400 365.000 M197.900 381.493 C 198.835 381.577,200.365 381.577,201.300 381.493 C 202.235 381.409,201.470 381.340,199.600 381.340 C 197.730 381.340,196.965 381.409,197.900 381.493 M124.000 385.133 C 124.330 385.336,125.050 385.624,125.600 385.771 C 126.295 385.957,126.417 385.925,126.000 385.667 C 125.670 385.464,124.950 385.176,124.400 385.029 C 123.705 384.843,123.583 384.875,124.000 385.133 "
       stroke="none"
       fill-rule="evenodd"
       fill="#141414" />
    <path
       id="path3"
       d="M193.905 0.683 C 194.402 0.779,195.122 0.775,195.505 0.675 C 195.887 0.575,195.480 0.496,194.600 0.501 C 193.720 0.505,193.407 0.587,193.905 0.683 M236.000 3.982 C 236.330 4.205,236.945 4.391,237.367 4.394 C 238.390 4.402,238.071 4.173,236.600 3.844 C 235.724 3.648,235.562 3.685,236.000 3.982 M326.400 46.154 C 326.400 46.239,326.895 46.627,327.500 47.016 L 328.600 47.724 327.838 46.862 C 327.164 46.099,326.400 45.723,326.400 46.154 M332.400 50.925 C 332.400 50.994,332.985 51.579,333.700 52.225 L 335.000 53.400 333.825 52.100 C 332.730 50.888,332.400 50.616,332.400 50.925 M58.793 59.100 L 54.200 63.800 58.900 59.207 C 63.266 54.940,63.782 54.400,63.493 54.400 C 63.435 54.400,61.320 56.515,58.793 59.100 M339.237 57.500 C 340.426 58.765,342.120 60.419,343.000 61.176 C 343.880 61.932,342.984 60.897,341.008 58.876 C 337.046 54.820,335.822 53.870,339.237 57.500 M322.000 66.113 C 322.000 66.200,322.720 66.938,323.600 67.752 C 324.480 68.566,325.197 69.090,325.193 68.916 C 325.186 68.604,322.000 65.807,322.000 66.113 M347.600 66.125 C 347.600 66.194,348.185 66.779,348.900 67.425 L 350.200 68.600 349.025 67.300 C 347.930 66.088,347.600 65.816,347.600 66.125 M75.775 68.100 L 74.600 69.400 75.900 68.225 C 77.112 67.130,77.384 66.800,77.075 66.800 C 77.006 66.800,76.421 67.385,75.775 68.100 M67.775 76.100 L 66.600 77.400 67.900 76.225 C 69.112 75.130,69.384 74.800,69.075 74.800 C 69.006 74.800,68.421 75.385,67.775 76.100 M335.200 79.725 C 335.200 79.794,335.785 80.379,336.500 81.025 L 337.800 82.200 336.625 80.900 C 335.530 79.688,335.200 79.416,335.200 79.725 M394.406 156.233 C 394.409 156.655,394.595 157.270,394.818 157.600 C 395.115 158.038,395.152 157.876,394.956 157.000 C 394.627 155.529,394.398 155.210,394.406 156.233 M395.268 159.600 C 395.288 160.639,395.918 162.346,395.932 161.400 C 395.938 160.960,395.789 160.240,395.600 159.800 C 395.389 159.310,395.261 159.232,395.268 159.600 M258.200 167.600 C 258.200 168.218,258.335 168.640,258.500 168.538 C 258.665 168.436,258.800 168.014,258.800 167.600 C 258.800 167.186,258.665 166.764,258.500 166.662 C 258.335 166.560,258.200 166.982,258.200 167.600 M397.206 172.633 C 397.209 173.055,397.382 173.668,397.589 173.996 C 397.869 174.439,397.936 174.310,397.849 173.495 C 397.712 172.207,397.197 171.517,397.206 172.633 M1.709 184.800 C 1.709 185.790,1.787 186.195,1.882 185.700 C 1.978 185.205,1.978 184.395,1.882 183.900 C 1.787 183.405,1.709 183.810,1.709 184.800 M266.509 187.600 C 266.509 188.590,266.587 188.995,266.682 188.500 C 266.778 188.005,266.778 187.195,266.682 186.700 C 266.587 186.205,266.509 186.610,266.509 187.600 M133.394 242.200 C 133.394 272.780,133.442 285.231,133.500 269.869 C 133.558 254.507,133.558 229.487,133.500 214.269 C 133.442 199.051,133.394 211.620,133.394 242.200 M18.901 191.400 C 18.905 192.280,18.987 192.593,19.083 192.095 C 19.179 191.598,19.175 190.878,19.075 190.495 C 18.975 190.113,18.896 190.520,18.901 191.400 M266.594 243.800 C 266.594 273.500,266.642 285.709,266.700 270.931 C 266.758 256.153,266.758 231.853,266.700 216.931 C 266.642 202.009,266.594 214.100,266.594 243.800 M165.375 195.300 L 164.200 196.600 165.500 195.425 C 166.712 194.330,166.984 194.000,166.675 194.000 C 166.606 194.000,166.021 194.585,165.375 195.300 M233.600 194.525 C 233.600 194.594,234.185 195.179,234.900 195.825 L 236.200 197.000 235.025 195.700 C 233.930 194.488,233.600 194.216,233.600 194.525 M399.293 211.600 C 399.293 212.370,399.375 212.685,399.476 212.300 C 399.576 211.915,399.576 211.285,399.476 210.900 C 399.375 210.515,399.293 210.830,399.293 211.600 M0.901 215.800 C 0.905 216.680,0.987 216.993,1.083 216.495 C 1.179 215.998,1.175 215.278,1.075 214.895 C 0.975 214.513,0.896 214.920,0.901 215.800 M1.301 221.000 C 1.305 221.880,1.387 222.193,1.483 221.695 C 1.579 221.198,1.575 220.478,1.475 220.095 C 1.375 219.713,1.296 220.120,1.301 221.000 M381.693 220.800 C 381.693 221.570,381.775 221.885,381.876 221.500 C 381.976 221.115,381.976 220.485,381.876 220.100 C 381.775 219.715,381.693 220.030,381.693 220.800 M254.093 231.200 C 254.093 231.970,254.175 232.285,254.276 231.900 C 254.376 231.515,254.376 230.885,254.276 230.500 C 254.175 230.115,254.093 230.430,254.093 231.200 M4.406 241.033 C 4.409 241.455,4.595 242.070,4.818 242.400 C 5.115 242.838,5.152 242.676,4.956 241.800 C 4.627 240.329,4.398 240.010,4.406 241.033 M199.943 318.300 C 330.132 318.396,336.872 318.436,336.619 319.101 C 336.416 319.634,336.464 319.690,336.821 319.335 C 338.163 318.004,337.696 317.999,199.876 318.099 L 63.000 318.199 199.943 318.300 M64.800 321.325 C 64.800 321.394,65.385 321.979,66.100 322.625 L 67.400 323.800 66.225 322.500 C 65.130 321.288,64.800 321.016,64.800 321.325 M322.175 334.100 L 321.000 335.400 322.300 334.225 C 323.015 333.579,323.600 332.994,323.600 332.925 C 323.600 332.616,323.270 332.888,322.175 334.100 M344.877 337.207 C 343.171 339.263,343.447 339.258,345.352 337.200 C 346.166 336.320,346.690 335.603,346.516 335.607 C 346.342 335.611,345.605 336.331,344.877 337.207 M61.200 343.725 C 61.200 343.794,61.785 344.379,62.500 345.025 L 63.800 346.200 62.625 344.900 C 61.530 343.688,61.200 343.416,61.200 343.725 M337.294 344.812 C 336.575 345.465,336.137 346.000,336.319 346.000 C 336.501 346.000,337.168 345.460,337.800 344.800 C 339.270 343.265,338.986 343.272,337.294 344.812 M96.400 348.946 C 96.400 349.056,96.940 349.530,97.600 350.000 C 98.260 350.470,98.800 350.764,98.800 350.654 C 98.800 350.544,98.260 350.070,97.600 349.600 C 96.940 349.130,96.400 348.836,96.400 348.946 M176.900 380.276 C 177.285 380.376,177.915 380.376,178.300 380.276 C 178.685 380.175,178.370 380.093,177.600 380.093 C 176.830 380.093,176.515 380.175,176.900 380.276 M185.100 381.082 C 185.595 381.178,186.405 381.178,186.900 381.082 C 187.395 380.987,186.990 380.909,186.000 380.909 C 185.010 380.909,184.605 380.987,185.100 381.082 M194.500 381.476 C 194.885 381.576,195.515 381.576,195.900 381.476 C 196.285 381.375,195.970 381.293,195.200 381.293 C 194.430 381.293,194.115 381.375,194.500 381.476 M203.500 381.482 C 203.995 381.578,204.805 381.578,205.300 381.482 C 205.795 381.387,205.390 381.309,204.400 381.309 C 203.410 381.309,203.005 381.387,203.500 381.482 M214.100 381.876 C 214.485 381.976,215.115 381.976,215.500 381.876 C 215.885 381.775,215.570 381.693,214.800 381.693 C 214.030 381.693,213.715 381.775,214.100 381.876 M221.700 398.676 C 222.085 398.776,222.715 398.776,223.100 398.676 C 223.485 398.575,223.170 398.493,222.400 398.493 C 221.630 398.493,221.315 398.575,221.700 398.676 M190.705 399.883 C 191.202 399.979,191.922 399.975,192.305 399.875 C 192.687 399.775,192.280 399.696,191.400 399.701 C 190.520 399.705,190.207 399.787,190.705 399.883 M207.105 399.883 C 207.602 399.979,208.322 399.975,208.705 399.875 C 209.087 399.775,208.680 399.696,207.800 399.701 C 206.920 399.705,206.607 399.787,207.105 399.883 "
       stroke="none"
       fill-rule="evenodd"
       fill="#1c1417" />
    <path
       id="path4"
       d="M251.400 7.200 C 251.840 7.389,252.470 7.544,252.800 7.544 C 253.178 7.544,253.104 7.417,252.600 7.200 C 252.160 7.011,251.530 6.856,251.200 6.856 C 250.822 6.856,250.896 6.983,251.400 7.200 M185.300 19.876 C 185.685 19.976,186.315 19.976,186.700 19.876 C 187.085 19.775,186.770 19.693,186.000 19.693 C 185.230 19.693,184.915 19.775,185.300 19.876 M181.900 20.282 C 182.395 20.378,183.205 20.378,183.700 20.282 C 184.195 20.187,183.790 20.109,182.800 20.109 C 181.810 20.109,181.405 20.187,181.900 20.282 M104.700 24.229 C 103.205 25.040,103.296 25.378,104.800 24.600 C 105.460 24.259,106.000 23.894,106.000 23.790 C 106.000 23.532,105.957 23.547,104.700 24.229 M314.800 36.546 C 314.800 36.656,315.340 37.130,316.000 37.600 C 316.660 38.070,317.200 38.364,317.200 38.254 C 317.200 38.144,316.660 37.670,316.000 37.200 C 315.340 36.730,314.800 36.436,314.800 36.546 M114.300 40.629 C 112.805 41.440,112.896 41.778,114.400 41.000 C 115.060 40.659,115.600 40.294,115.600 40.190 C 115.600 39.932,115.557 39.947,114.300 40.629 M77.800 41.844 L 76.200 43.276 77.900 42.004 C 79.363 40.910,79.891 40.383,79.500 40.406 C 79.445 40.409,78.680 41.056,77.800 41.844 M70.175 48.100 L 69.000 49.400 70.398 48.200 C 71.167 47.540,71.872 46.955,71.965 46.900 C 72.057 46.845,71.957 46.800,71.742 46.800 C 71.526 46.800,70.821 47.385,70.175 48.100 M299.200 48.946 C 299.200 49.056,299.740 49.530,300.400 50.000 C 301.060 50.470,301.600 50.764,301.600 50.654 C 301.600 50.544,301.060 50.070,300.400 49.600 C 299.740 49.130,299.200 48.836,299.200 48.946 M332.800 51.000 C 333.546 51.770,334.247 52.400,334.357 52.400 C 334.467 52.400,333.946 51.770,333.200 51.000 C 332.454 50.230,331.753 49.600,331.643 49.600 C 331.533 49.600,332.054 50.230,332.800 51.000 M61.791 55.700 L 58.600 59.000 61.900 55.809 C 64.965 52.846,65.382 52.400,65.091 52.400 C 65.030 52.400,63.545 53.885,61.791 55.700 M337.885 55.595 C 339.472 57.227,340.826 58.481,340.893 58.382 C 340.961 58.282,339.663 56.946,338.008 55.413 L 335.000 52.626 337.885 55.595 M54.987 62.500 L 52.600 65.000 55.100 62.613 C 57.422 60.395,57.783 60.000,57.487 60.000 C 57.426 60.000,56.301 61.125,54.987 62.500 M344.400 62.125 C 344.400 62.194,344.985 62.779,345.700 63.425 L 347.000 64.600 345.825 63.300 C 344.730 62.088,344.400 61.816,344.400 62.125 M320.383 65.300 C 321.364 66.345,322.219 67.200,322.283 67.200 C 322.584 67.200,322.266 66.841,320.500 65.183 L 318.600 63.400 320.383 65.300 M79.375 65.300 L 78.200 66.600 79.500 65.425 C 80.712 64.330,80.984 64.000,80.675 64.000 C 80.606 64.000,80.021 64.585,79.375 65.300 M348.400 66.525 C 348.400 66.594,348.985 67.179,349.700 67.825 L 351.000 69.000 349.825 67.700 C 348.730 66.488,348.400 66.216,348.400 66.525 M328.000 72.600 C 330.081 74.690,331.874 76.400,331.984 76.400 C 332.094 76.400,330.481 74.690,328.400 72.600 C 326.319 70.510,324.526 68.800,324.416 68.800 C 324.306 68.800,325.919 70.510,328.000 72.600 M73.578 70.700 L 72.200 72.200 73.700 70.822 C 75.096 69.538,75.384 69.200,75.078 69.200 C 75.012 69.200,74.337 69.875,73.578 70.700 M70.378 73.900 L 69.000 75.400 70.500 74.022 C 71.896 72.738,72.184 72.400,71.878 72.400 C 71.812 72.400,71.137 73.075,70.378 73.900 M358.000 78.000 C 358.697 78.880,359.357 79.600,359.467 79.600 C 359.577 79.600,359.097 78.880,358.400 78.000 C 357.703 77.120,357.043 76.400,356.933 76.400 C 356.823 76.400,357.303 77.120,358.000 78.000 M64.975 79.700 L 63.800 81.000 65.100 79.825 C 66.312 78.730,66.584 78.400,66.275 78.400 C 66.206 78.400,65.621 78.985,64.975 79.700 M62.575 82.500 L 61.400 83.800 62.700 82.625 C 63.912 81.530,64.184 81.200,63.875 81.200 C 63.806 81.200,63.221 81.785,62.575 82.500 M342.175 88.532 C 342.791 89.339,343.376 90.000,343.475 90.000 C 343.753 90.000,342.021 87.660,341.509 87.344 C 341.259 87.189,341.559 87.724,342.175 88.532 M344.800 92.000 C 345.270 92.660,345.744 93.200,345.854 93.200 C 345.964 93.200,345.670 92.660,345.200 92.000 C 344.730 91.340,344.256 90.800,344.146 90.800 C 344.036 90.800,344.330 91.340,344.800 92.000 M44.200 108.000 C 43.859 108.660,43.669 109.200,43.779 109.200 C 43.889 109.200,44.259 108.660,44.600 108.000 C 44.941 107.340,45.131 106.800,45.021 106.800 C 44.911 106.800,44.541 107.340,44.200 108.000 M262.278 125.795 C 262.644 126.562,263.014 127.119,263.101 127.032 C 263.284 126.849,262.070 124.400,261.796 124.400 C 261.695 124.400,261.912 125.028,262.278 125.795 M265.878 132.995 C 266.244 133.762,266.614 134.319,266.701 134.232 C 266.884 134.049,265.670 131.600,265.396 131.600 C 265.295 131.600,265.512 132.228,265.878 132.995 M30.044 137.644 C 29.798 138.351,29.666 139.000,29.752 139.085 C 29.838 139.171,30.109 138.662,30.356 137.956 C 30.602 137.249,30.734 136.600,30.648 136.515 C 30.562 136.429,30.291 136.938,30.044 137.644 M269.078 139.395 C 269.444 140.162,269.814 140.719,269.901 140.632 C 270.084 140.449,268.870 138.000,268.596 138.000 C 268.495 138.000,268.712 138.628,269.078 139.395 M394.868 156.000 C 394.888 157.039,395.518 158.746,395.532 157.800 C 395.538 157.360,395.389 156.640,395.200 156.200 C 394.989 155.710,394.861 155.632,394.868 156.000 M285.478 172.195 C 285.844 172.962,286.214 173.519,286.301 173.432 C 286.484 173.249,285.270 170.800,284.996 170.800 C 284.895 170.800,285.112 171.428,285.478 172.195 M132.695 185.500 C 132.611 185.665,132.669 186.340,132.824 187.000 C 133.101 188.180,133.106 188.175,133.153 186.700 C 133.198 185.276,133.031 184.838,132.695 185.500 M266.994 243.800 C 266.994 273.500,267.042 285.709,267.100 270.931 C 267.158 256.153,267.158 231.853,267.100 216.931 C 267.042 202.009,266.994 214.100,266.994 243.800 M0.114 194.200 C 0.117 195.300,0.195 195.703,0.287 195.095 C 0.379 194.486,0.377 193.586,0.282 193.095 C 0.187 192.603,0.111 193.100,0.114 194.200 M380.955 201.000 C 380.956 203.860,381.020 204.978,381.097 203.483 C 381.174 201.989,381.174 199.649,381.096 198.283 C 381.018 196.918,380.955 198.140,380.955 201.000 M18.940 199.600 C 18.940 201.470,19.009 202.235,19.093 201.300 C 19.177 200.365,19.177 198.835,19.093 197.900 C 19.009 196.965,18.940 197.730,18.940 199.600 M236.800 198.200 C 237.546 198.970,238.247 199.600,238.357 199.600 C 238.467 199.600,237.946 198.970,237.200 198.200 C 236.454 197.430,235.753 196.800,235.643 196.800 C 235.533 196.800,236.054 197.430,236.800 198.200 M160.778 200.300 L 159.400 201.800 160.900 200.422 C 161.725 199.663,162.400 198.988,162.400 198.922 C 162.400 198.616,162.062 198.904,160.778 200.300 M301.878 204.995 C 302.244 205.762,302.614 206.319,302.701 206.232 C 302.884 206.049,301.670 203.600,301.396 203.600 C 301.295 203.600,301.512 204.228,301.878 204.995 M399.693 206.800 C 399.693 207.570,399.775 207.885,399.876 207.500 C 399.976 207.115,399.976 206.485,399.876 206.100 C 399.775 205.715,399.693 206.030,399.693 206.800 M0.493 214.800 C 0.493 215.570,0.575 215.885,0.676 215.500 C 0.776 215.115,0.776 214.485,0.676 214.100 C 0.575 213.715,0.493 214.030,0.493 214.800 M248.014 214.454 C 248.006 214.594,248.263 215.314,248.584 216.054 C 248.906 216.794,249.169 217.130,249.170 216.800 C 249.172 216.224,248.043 213.934,248.014 214.454 M147.693 231.200 C 147.693 231.970,147.775 232.285,147.876 231.900 C 147.976 231.515,147.976 230.885,147.876 230.500 C 147.775 230.115,147.693 230.430,147.693 231.200 M317.628 236.200 C 317.628 236.420,317.886 237.050,318.200 237.600 C 318.514 238.150,318.772 238.420,318.772 238.200 C 318.772 237.980,318.514 237.350,318.200 236.800 C 317.886 236.250,317.628 235.980,317.628 236.200 M22.834 238.000 C 22.846 238.330,23.011 238.960,23.200 239.400 L 23.544 240.200 23.566 239.400 C 23.578 238.960,23.413 238.330,23.200 238.000 C 22.855 237.467,22.815 237.467,22.834 238.000 M321.478 244.195 C 321.844 244.962,322.214 245.519,322.301 245.432 C 322.484 245.249,321.270 242.800,320.996 242.800 C 320.895 242.800,321.112 243.428,321.478 244.195 M393.429 250.229 C 393.281 250.815,393.238 251.372,393.332 251.466 C 393.427 251.560,393.624 251.158,393.771 250.571 C 393.919 249.985,393.962 249.428,393.868 249.334 C 393.773 249.240,393.576 249.642,393.429 250.229 M246.678 258.205 C 246.312 258.972,246.095 259.600,246.196 259.600 C 246.470 259.600,247.684 257.151,247.501 256.968 C 247.414 256.881,247.044 257.438,246.678 258.205 M28.629 258.400 C 28.776 258.950,29.064 259.670,29.267 260.000 C 29.525 260.417,29.557 260.295,29.371 259.600 C 29.224 259.050,28.936 258.330,28.733 258.000 C 28.475 257.583,28.443 257.705,28.629 258.400 M159.200 268.125 C 159.200 268.194,159.785 268.779,160.500 269.425 L 161.800 270.600 160.625 269.300 C 159.530 268.088,159.200 267.816,159.200 268.125 M165.309 274.311 C 168.010 276.726,168.813 277.156,166.400 274.897 C 165.190 273.763,164.069 272.828,163.909 272.818 C 163.749 272.808,164.379 273.480,165.309 274.311 M337.878 276.995 C 338.244 277.762,338.614 278.319,338.701 278.232 C 338.884 278.049,337.670 275.600,337.396 275.600 C 337.295 275.600,337.512 276.228,337.878 276.995 M341.078 283.395 C 341.444 284.162,341.814 284.719,341.901 284.632 C 342.084 284.449,340.870 282.000,340.596 282.000 C 340.495 282.000,340.712 282.628,341.078 283.395 M18.600 284.800 C 18.941 285.460,19.311 286.000,19.421 286.000 C 19.531 286.000,19.341 285.460,19.000 284.800 C 18.659 284.140,18.289 283.600,18.179 283.600 C 18.069 283.600,18.259 284.140,18.600 284.800 M198.691 287.489 C 199.401 287.577,200.661 287.579,201.491 287.492 C 202.321 287.405,201.740 287.333,200.200 287.331 C 198.660 287.329,197.981 287.400,198.691 287.489 M374.200 298.000 C 373.859 298.660,373.669 299.200,373.779 299.200 C 373.889 299.200,374.259 298.660,374.600 298.000 C 374.941 297.340,375.131 296.800,375.021 296.800 C 374.911 296.800,374.541 297.340,374.200 298.000 M131.700 318.700 C 169.265 318.756,230.735 318.756,268.300 318.700 C 305.865 318.644,275.130 318.598,200.000 318.598 C 124.870 318.598,94.135 318.644,131.700 318.700 M39.564 319.933 C 39.780 320.336,40.271 320.921,40.655 321.233 C 41.087 321.584,40.990 321.304,40.401 320.500 C 39.351 319.065,38.957 318.798,39.564 319.933 M332.185 323.700 L 330.200 325.800 332.300 323.815 C 334.251 321.971,334.583 321.600,334.285 321.600 C 334.222 321.600,333.277 322.545,332.185 323.700 M67.983 324.100 C 68.964 325.145,69.819 326.000,69.883 326.000 C 70.184 326.000,69.866 325.641,68.100 323.983 L 66.200 322.200 67.983 324.100 M323.385 332.500 L 321.400 334.600 323.500 332.615 C 324.655 331.523,325.600 330.578,325.600 330.515 C 325.600 330.217,325.229 330.549,323.385 332.500 M48.400 330.925 C 48.400 330.994,48.985 331.579,49.700 332.225 L 51.000 333.400 49.825 332.100 C 48.730 330.888,48.400 330.616,48.400 330.925 M350.175 332.100 L 349.000 333.400 350.300 332.225 C 351.015 331.579,351.600 330.994,351.600 330.925 C 351.600 330.616,351.270 330.888,350.175 332.100 M76.800 333.000 C 77.546 333.770,78.247 334.400,78.357 334.400 C 78.467 334.400,77.946 333.770,77.200 333.000 C 76.454 332.230,75.753 331.600,75.643 331.600 C 75.533 331.600,76.054 332.230,76.800 333.000 M53.200 336.200 C 54.395 337.410,55.463 338.400,55.573 338.400 C 55.683 338.400,54.795 337.410,53.600 336.200 C 52.405 334.990,51.337 334.000,51.227 334.000 C 51.117 334.000,52.005 334.990,53.200 336.200 M80.000 335.800 C 80.746 336.570,81.447 337.200,81.557 337.200 C 81.667 337.200,81.146 336.570,80.400 335.800 C 79.654 335.030,78.953 334.400,78.843 334.400 C 78.733 334.400,79.254 335.030,80.000 335.800 M346.400 336.200 C 345.428 337.190,344.723 338.000,344.833 338.000 C 344.943 338.000,345.828 337.190,346.800 336.200 C 347.772 335.210,348.477 334.400,348.367 334.400 C 348.257 334.400,347.372 335.210,346.400 336.200 M63.400 346.400 C 64.483 347.500,65.460 348.400,65.570 348.400 C 65.680 348.400,64.883 347.500,63.800 346.400 C 62.717 345.300,61.740 344.400,61.630 344.400 C 61.520 344.400,62.317 345.300,63.400 346.400 M335.986 346.700 L 333.800 349.000 336.100 346.814 C 338.237 344.782,338.583 344.400,338.286 344.400 C 338.224 344.400,337.189 345.435,335.986 346.700 M302.200 349.435 L 301.000 350.466 302.300 349.606 C 303.015 349.133,303.600 348.668,303.600 348.573 C 303.600 348.273,303.431 348.378,302.200 349.435 M66.800 349.325 C 66.800 349.394,67.385 349.979,68.100 350.625 L 69.400 351.800 68.225 350.500 C 67.130 349.288,66.800 349.016,66.800 349.325 M331.775 350.500 L 330.600 351.800 331.900 350.625 C 332.615 349.979,333.200 349.394,333.200 349.325 C 333.200 349.016,332.870 349.288,331.775 350.500 M106.800 355.379 C 106.800 355.489,107.340 355.859,108.000 356.200 C 108.660 356.541,109.200 356.731,109.200 356.621 C 109.200 356.511,108.660 356.141,108.000 355.800 C 107.340 355.459,106.800 355.269,106.800 355.379 M309.200 367.636 C 308.536 368.179,308.469 368.315,309.000 368.040 C 310.305 367.366,311.028 366.812,310.600 366.815 C 310.380 366.817,309.750 367.186,309.200 367.636 M100.000 373.355 C 100.000 373.631,102.821 375.312,102.994 375.139 C 103.078 375.055,102.438 374.580,101.573 374.082 C 100.708 373.584,100.000 373.257,100.000 373.355 M184.305 380.683 C 184.802 380.779,185.522 380.775,185.905 380.675 C 186.287 380.575,185.880 380.496,185.000 380.501 C 184.120 380.505,183.807 380.587,184.305 380.683 M187.100 399.882 C 187.595 399.978,188.405 399.978,188.900 399.882 C 189.395 399.787,188.990 399.709,188.000 399.709 C 187.010 399.709,186.605 399.787,187.100 399.882 M210.705 399.883 C 211.202 399.979,211.922 399.975,212.305 399.875 C 212.687 399.775,212.280 399.696,211.400 399.701 C 210.520 399.705,210.207 399.787,210.705 399.883 M199.100 400.289 C 199.815 400.378,200.985 400.378,201.700 400.289 C 202.415 400.201,201.830 400.128,200.400 400.128 C 198.970 400.128,198.385 400.201,199.100 400.289 "
       stroke="none"
       fill-rule="evenodd"
       fill="#0c0a0b" />
  </g>
</svg>
