<?xml version="1.0" encoding="UTF-8" standalone="no"?>
<svg
   xmlns:dc="http://purl.org/dc/elements/1.1/"
   xmlns:cc="http://creativecommons.org/ns#"
   xmlns:rdf="http://www.w3.org/1999/02/22-rdf-syntax-ns#"
   xmlns:svg="http://www.w3.org/2000/svg"
   xmlns="http://www.w3.org/2000/svg"
   xmlns:sodipodi="http://sodipodi.sourceforge.net/DTD/sodipodi-0.dtd"
   xmlns:inkscape="http://www.inkscape.org/namespaces/inkscape"
   id="svg"
   version="1.1"
   width="400"
   height="400.40899795501025"
   viewBox="0, 0, 400,400.40899795501025"
   sodipodi:docname="ALQsvg.svg"
   inkscape:version="0.92.4 (5da689c313, 2019-01-14)">
  <metadata
     id="metadata4646">
    <rdf:RDF>
      <cc:Work
         rdf:about="">
        <dc:format>image/svg+xml</dc:format>
        <dc:type
           rdf:resource="http://purl.org/dc/dcmitype/StillImage" />
        <dc:title></dc:title>
      </cc:Work>
    </rdf:RDF>
  </metadata>
  <defs
     id="defs4644" />
  <sodipodi:namedview
     pagecolor="#000000"
     bordercolor="#666666"
     borderopacity="1"
     objecttolerance="10"
     gridtolerance="10"
     guidetolerance="10"
     inkscape:pageopacity="0"
     inkscape:pageshadow="2"
     inkscape:window-width="1920"
     inkscape:window-height="1016"
     id="namedview4642"
     showgrid="false"
     inkscape:zoom="1.4957692"
     inkscape:cx="277.21211"
     inkscape:cy="234.66032"
     inkscape:window-x="-8"
     inkscape:window-y="-8"
     inkscape:window-maximized="1"
     inkscape:current-layer="svg" />
  <circle
     style="opacity:1;fill:#ffffff;fill-opacity:1;stroke:#ffffff;stroke-width:0.58985609;stroke-miterlimit:4;stroke-dasharray:none;stroke-dashoffset:0;stroke-opacity:1"
     id="path825"
     cx="199.91412"
     cy="199.86594"
     r="199.42506" />
  <g
     id="svgg"
     transform="matrix(0.96894503,0,0,0.96894503,6.8852106,6.396091)"
     inkscape:transform-center-y="-25.911617">
    <path
       id="path0"
       d="m 195.979,0.537 c -0.122,0.131 -1.832,0.256 -3.8,0.277 -13.962,0.148 -32.426,3.395 -51.789,9.108 -4.423,1.305 -15.239,5.246 -17.816,6.492 -0.895,0.432 -1.745,0.786 -1.89,0.786 -0.362,0 -12.435,5.724 -12.684,6.014 -0.11,0.128 -1.55,0.922 -3.2,1.764 -2.905,1.482 -8.875,4.975 -12.005,7.022 -0.84,0.55 -2.668,1.709 -4.062,2.576 -1.393,0.866 -2.623,1.682 -2.733,1.813 -0.11,0.131 -2.27,1.75 -4.8,3.597 -10.17,7.427 -23.076,19.324 -31.204,28.764 -1.208,1.403 -2.38,2.753 -2.604,3 -0.225,0.248 -1.125,1.348 -2,2.446 -0.876,1.098 -1.997,2.447 -2.492,2.996 -0.495,0.55 -0.9,1.124 -0.9,1.275 0,0.152 -0.225,0.514 -0.5,0.804 -2.189,2.314 -9.974,13.881 -13.548,20.129 -5,8.74 -10.197,19.055 -12.091,24 -0.338,0.88 -1.315,3.4 -2.172,5.6 -3.79,9.727 -8.449,26.115 -9.894,34.8 -0.073,0.44 -0.333,1.88 -0.577,3.2 -0.244,1.32 -0.701,4.47 -1.015,7 -0.314,2.53 -0.782,6.13 -1.041,8 -1.783,12.919 -0.184,41.215 3.247,57.443 2.449,11.585 7.968,30.481 9.158,31.357 0.149,0.11 0.295,0.56 0.323,1 0.072,1.102 2.204,6.143 5.973,14.123 1.176,2.488 2.137,4.589 2.137,4.669 0,0.08 0.9,1.703 2,3.608 1.1,1.905 2,3.542 2,3.638 0,0.32 6.866,11.534 8.243,13.463 0.746,1.045 1.357,2.004 1.357,2.13 0,0.299 5.275,7.228 9.569,12.569 10.058,12.513 24.77,26.556 36.247,34.6 1.255,0.88 2.485,1.79 2.733,2.022 0.686,0.642 12.145,8.178 12.435,8.178 0.14,0 1.191,0.596 2.335,1.325 2.791,1.777 8.123,4.677 12.681,6.897 0.77,0.375 2.21,1.085 3.2,1.579 2.475,1.232 7.299,3.355 11.8,5.191 12.133,4.95 29.596,9.615 44.4,11.86 2.86,0.434 6.245,0.947 7.522,1.141 8.952,1.358 33.888,1.363 41.878,0.008 1.21,-0.205 4.36,-0.654 7,-0.998 13.603,-1.774 27.764,-5.337 42.283,-10.638 5.354,-1.956 5.451,-1.995 12.117,-4.975 7.461,-3.335 18.6,-9.179 18.6,-9.759 0,-0.164 0.225,-0.302 0.5,-0.308 0.717,-0.015 11.345,-6.669 14.209,-8.896 0.6,-0.466 1.656,-1.248 2.346,-1.737 9.341,-6.623 19.923,-16.036 28.545,-25.393 6.468,-7.019 6.886,-7.51 11.672,-13.697 5.886,-7.611 10.069,-13.848 9.694,-14.454 -0.171,-0.278 -0.117,-0.363 0.131,-0.209 1.166,0.72 13.137,-21.777 17.422,-32.737 7.094,-18.149 13.435,-43.714 13.841,-55.8 0.011,-0.33 0.223,-3.21 0.47,-6.4 0.596,-7.685 0.232,-26.802 -0.615,-32.3 -0.348,-2.255 -0.667,-4.903 -0.71,-5.884 -0.049,-1.13 -0.205,-1.607 -0.425,-1.3 -0.207,0.289 -0.25,-0.074 -0.107,-0.898 0.132,-0.761 -0.022,-2.561 -0.343,-4 -0.321,-1.44 -0.964,-4.508 -1.429,-6.818 -1.632,-8.096 -1.969,-9.634 -2.635,-12.008 -0.369,-1.315 -0.822,-2.392 -1.006,-2.392 -0.184,0 -0.24,-0.247 -0.125,-0.548 0.195,-0.507 -0.301,-2.264 -2.895,-10.252 -1.189,-3.662 -2.822,-8.162 -3.579,-9.86 -0.308,-0.694 -0.561,-1.371 -0.561,-1.505 0,-0.222 -0.76,-2.034 -2.196,-5.235 -1.977,-4.41 -7.447,-15.302 -8.939,-17.8 -11.5,-19.26 -18.722,-28.696 -32.452,-42.4 -7.558,-7.543 -9.806,-9.644 -12.601,-11.773 -1.093,-0.833 -2.173,-1.747 -2.4,-2.03 -0.227,-0.284 -2.752,-2.269 -5.612,-4.412 -2.86,-2.142 -5.65,-4.234 -6.2,-4.65 -1.315,-0.994 -8.393,-5.535 -8.627,-5.535 -0.1,0 -1.618,-0.9 -3.373,-2 -1.755,-1.1 -3.314,-2 -3.464,-2 -0.15,0 -0.557,-0.255 -0.905,-0.566 C 297.341,26.014 284.05,19.218 280.2,17.515 271.505,13.67 255.13,8.165 247.2,6.421 245.99,6.155 243.47,5.6 241.6,5.188 233.677,3.442 227.302,2.484 215.137,1.209 210.337,0.707 196.279,0.213 195.979,0.537 M 190.742,20.3 C 189.781,22.839 50.165,301.367 49.8,301.474 c -0.374,0.109 -1.371,-1.342 -4.999,-7.274 -3.068,-5.018 -8.327,-15.235 -10.602,-20.6 -0.606,-1.43 -1.417,-3.32 -1.803,-4.2 -3.438,-7.849 -7.301,-20.032 -9.006,-28.4 -0.314,-1.54 -0.754,-3.52 -0.977,-4.4 -0.598,-2.361 -2.392,-14.165 -2.887,-19 -0.661,-6.453 -0.524,-31.219 0.203,-36.8 0.33,-2.53 0.719,-5.77 0.865,-7.2 0.146,-1.43 0.594,-4.13 0.996,-6 0.402,-1.87 0.732,-3.67 0.735,-4 0.004,-0.627 2.225,-9.716 2.883,-11.8 0.208,-0.66 1.2,-3.81 2.205,-7 1.72,-5.466 3.59,-10.693 4.793,-13.4 0.293,-0.66 1.105,-2.55 1.804,-4.2 1.242,-2.932 6.2,-13.006 6.792,-13.8 0.164,-0.22 0.983,-1.66 1.82,-3.2 2.012,-3.704 5.677,-9.443 9.266,-14.514 1.602,-2.262 2.912,-4.272 2.912,-4.466 0,-0.194 0.157,-0.413 0.35,-0.487 0.192,-0.073 1.479,-1.573 2.86,-3.333 7.297,-9.301 19.705,-21.723 29.19,-29.224 1.65,-1.305 3.144,-2.598 3.32,-2.874 0.176,-0.276 0.536,-0.502 0.8,-0.502 0.264,0 1.47,-0.775 2.68,-1.722 4.016,-3.141 22.782,-14.678 23.876,-14.678 0.193,0 2.618,-1.084 6.924,-3.095 18.228,-8.512 37.962,-13.683 59.8,-15.669 6.651,-0.605 6.624,-0.608 6.142,0.664 M 219.6,20.034 c 16.184,1.53 39.189,7.495 50.681,13.14 0.924,0.454 1.862,0.826 2.083,0.826 0.561,0 12.316,5.789 16.436,8.094 4.535,2.538 14.95,9.136 15.6,9.883 0.11,0.127 0.874,0.679 1.697,1.227 0.824,0.548 1.499,1.131 1.5,1.296 0.002,0.165 0.203,0.3 0.448,0.3 0.245,0 1.01,0.465 1.7,1.034 0.69,0.569 2.444,1.964 3.896,3.1 9.272,7.251 22.394,20.39 27.759,27.795 0.662,0.914 1.433,1.572 1.721,1.468 0.286,-0.103 0.414,-0.016 0.284,0.195 -0.13,0.211 1.248,2.414 3.062,4.895 4.073,5.574 7.382,10.559 9.101,13.713 0.72,1.32 1.454,2.58 1.631,2.8 0.707,0.875 8.001,15.125 8.001,15.63 0,0.121 0.468,1.243 1.039,2.495 1.828,4.002 2.062,4.578 4.084,10.075 2.472,6.718 6.116,19.268 6.68,23 0.099,0.66 0.537,2.82 0.972,4.8 2.605,11.841 3.838,32.376 2.8,46.6 -0.297,4.07 -0.548,8.165 -0.558,9.1 -0.009,0.935 -0.152,1.7 -0.317,1.7 -0.165,0 -0.3,0.542 -0.3,1.203 0,1.334 -1.834,12.591 -2.411,14.797 -0.201,0.77 -0.829,3.38 -1.396,5.8 -0.566,2.42 -1.355,5.39 -1.752,6.6 -0.397,1.21 -1.029,3.19 -1.405,4.4 -0.376,1.21 -1.02,3.1 -1.431,4.2 -1.513,4.042 -3.691,9.638 -4.283,11 -1.107,2.548 -5.89,12.561 -6.496,13.6 -0.192,0.33 -1.293,2.31 -2.446,4.4 -3.207,5.812 -7.209,12 -7.762,12 -0.273,0 -1.891,-2.835 -3.596,-6.3 -1.705,-3.465 -3.252,-6.57 -3.439,-6.9 -0.186,-0.33 -3.873,-7.71 -8.194,-16.4 -4.321,-8.69 -8.009,-16.07 -8.196,-16.4 -0.187,-0.33 -4.597,-9.15 -9.799,-19.6 -5.203,-10.45 -9.614,-19.27 -9.803,-19.6 -0.19,-0.33 -3.879,-7.71 -8.199,-16.4 -4.32,-8.69 -8.009,-16.07 -8.197,-16.4 -0.188,-0.33 -4.599,-9.15 -9.801,-19.6 -5.203,-10.45 -9.616,-19.27 -9.808,-19.6 -0.192,-0.33 -3.88,-7.71 -8.197,-16.4 -4.316,-8.69 -8.004,-16.07 -8.195,-16.4 -0.19,-0.33 -4.603,-9.15 -9.807,-19.6 -5.204,-10.45 -9.614,-19.27 -9.801,-19.6 -0.187,-0.33 -3.878,-7.71 -8.202,-16.4 -4.325,-8.69 -8.012,-16.07 -8.194,-16.4 -1.754,-3.172 -9.59,-19.12 -9.59,-19.517 0,-0.546 1.407,-0.499 10.4,0.351 m -12.244,44.497 c 6.298,12.744 10.389,20.951 19.371,38.869 1.985,3.96 5.672,11.34 8.193,16.4 2.521,5.06 6.927,13.88 9.792,19.6 2.865,5.72 7.043,14.09 9.286,18.6 2.244,4.51 4.256,8.416 4.473,8.681 0.217,0.264 0.335,0.759 0.262,1.1 -0.187,0.869 -117.261,0.987 -117.446,0.118 -0.062,-0.292 0.366,-1.423 0.952,-2.515 0.586,-1.091 3.485,-6.844 6.444,-12.784 2.958,-5.94 6.644,-13.32 8.19,-16.4 3.723,-7.417 12.344,-24.661 17.797,-35.6 2.413,-4.84 4.595,-9.16 4.848,-9.6 0.254,-0.44 4.722,-9.35 9.931,-19.8 5.208,-10.45 9.663,-19.384 9.898,-19.854 0.722,-1.438 1.041,-0.912 8.009,13.185 M 210.8,183.56 c 9.684,1.938 18.434,6.467 25.323,13.107 2.896,2.792 9.932,11.54 10.081,12.533 0.016,0.11 0.448,1.1 0.96,2.2 11.023,23.7 4.65,50.671 -15.564,65.874 -1.419,1.067 -7.926,5.126 -8.218,5.126 -0.087,0 -1.142,0.45 -2.345,1 -1.202,0.55 -2.305,1 -2.451,1 -0.146,0 -0.832,0.252 -1.526,0.56 -5.92,2.628 -20.398,3.379 -28.66,1.486 -20.843,-4.776 -36.665,-21.48 -40.392,-42.646 -1.21,-6.871 -0.045,-21.272 2.077,-25.673 0.232,-0.48 0.298,-1.195 0.147,-1.588 -0.151,-0.393 -0.153,-0.593 -0.005,-0.445 0.149,0.148 1.263,-1.747 2.477,-4.212 1.214,-2.465 3.487,-6.19 5.052,-8.279 1.564,-2.088 2.784,-3.978 2.711,-4.2 -0.074,-0.221 -0.004,-0.273 0.156,-0.114 0.159,0.159 1.479,-0.852 2.933,-2.248 4.92,-4.722 7.926,-6.826 13.644,-9.549 5.43,-2.586 8.648,-3.444 18.2,-4.852 2.479,-0.366 11.74,0.188 15.4,0.92 M 1.882,185.7 c -0.095,0.495 -0.173,0.09 -0.173,-0.9 0,-0.99 0.078,-1.395 0.173,-0.9 0.096,0.495 0.096,1.305 0,1.8 m 131.614,55.4 -0.096,56.7 -28.5,0.103 c -19.777,0.071 -28.5,-0.027 -28.5,-0.319 0,-0.232 6.951,-14.319 15.448,-31.303 8.496,-16.985 17.87,-35.741 20.831,-41.681 2.96,-5.94 6.647,-13.32 8.193,-16.4 1.546,-3.08 4.864,-9.695 7.373,-14.7 2.509,-5.005 4.739,-9.1 4.955,-9.1 0.255,0 0.359,19.821 0.296,56.7 m 161.955,-0.278 c 15.465,30.898 28.126,56.404 28.134,56.681 0.012,0.4 -5.81,0.481 -28.485,0.4 l -28.5,-0.103 -0.101,-56.734 c -0.077,-43.151 0.01,-56.696 0.366,-56.578 0.257,0.086 13.121,25.436 28.586,56.334 M 381.876,221.5 c -0.101,0.385 -0.183,0.07 -0.183,-0.7 0,-0.77 0.082,-1.085 0.183,-0.7 0.1,0.385 0.1,1.015 0,1.4 m -127.6,10.4 c -0.101,0.385 -0.183,0.07 -0.183,-0.7 0,-0.77 0.082,-1.085 0.183,-0.7 0.1,0.385 0.1,1.015 0,1.4 m 82.734,86.517 c 0.933,1.508 -17.236,18.79 -28.81,27.404 -19.296,14.361 -42.761,25.344 -65.4,30.61 -1.87,0.435 -3.76,0.881 -4.2,0.991 -22.708,5.696 -58.521,5.17 -82.6,-1.212 -7.588,-2.011 -11.461,-3.124 -12.6,-3.62 -0.66,-0.288 -2.37,-0.91 -3.8,-1.382 -3.777,-1.249 -8.645,-3.139 -11.4,-4.427 -1.32,-0.616 -4.157,-1.936 -6.305,-2.932 -13.904,-6.448 -30.81,-17.628 -42.718,-28.249 -6.286,-5.607 -16.588,-16.536 -16.191,-17.177 0.365,-0.591 273.659,-0.597 274.024,-0.006 M 215.5,381.876 c -0.385,0.1 -1.015,0.1 -1.4,0 -0.385,-0.101 -0.07,-0.183 0.7,-0.183 0.77,0 1.085,0.082 0.7,0.183"
       inkscape:connector-curvature="0"
       style="fill:#231c1c;fill-rule:evenodd;stroke:none" />
    <path
       id="path1"
       d="m 0.07,96.3 c 0.038,52.965 0.127,95.49 0.196,94.5 0.07,-0.99 0.316,-4.5 0.547,-7.8 0.559,-7.975 2.526,-20.556 4.536,-29 1.786,-7.506 5.143,-18.414 7.632,-24.8 1.78,-4.564 2.801,-7.048 3.043,-7.4 0.151,-0.22 1.13,-2.38 2.175,-4.8 C 30.709,88.041 55.249,57.985 82.352,38.428 87.14,34.973 92.725,31.2 93.051,31.2 c 0.106,0 1.218,-0.689 2.471,-1.532 4.44,-2.985 15.395,-8.771 22.078,-11.659 1.65,-0.713 3.54,-1.536 4.2,-1.828 10.331,-4.574 21.346,-8.065 36,-11.409 28.054,-6.403 64.638,-5.655 92.6,1.893 2.09,0.564 4.16,1.114 4.6,1.223 1.727,0.425 12.101,3.827 13.8,4.525 0.99,0.407 3.06,1.224 4.6,1.815 1.54,0.592 3.61,1.422 4.6,1.846 30.15,12.897 56.688,32.768 76.828,57.526 4.642,5.706 8.372,10.67 8.372,11.143 0,0.215 0.15,0.45 0.334,0.524 2.442,0.976 18.04,29.436 21.776,39.733 0.559,1.54 1.367,3.61 1.795,4.6 3.789,8.754 8.727,27.53 10.521,40 0.237,1.65 0.585,4.08 0.774,5.4 0.29,2.027 0.865,8.968 1.342,16.2 0.065,0.99 0.15,-41.625 0.188,-94.7 L 400,0 H 200 0 L 0.07,96.3 M 187.151,19.782 c -0.1,0.101 -2.449,0.367 -5.22,0.592 -15.322,1.244 -37.888,6.959 -52.131,13.202 -0.88,0.385 -2.22,0.954 -2.977,1.262 -4.852,1.979 -15.87,7.896 -23.645,12.696 C 91.513,54.736 74.616,68.874 66.764,78 c -13.885,16.14 -20.57,25.837 -28.125,40.8 -9.799,19.406 -14.943,36.512 -18.525,61.6 -1.642,11.498 -0.888,36.687 1.478,49.4 0.41,2.2 0.86,4.72 1.001,5.6 0.14,0.88 0.416,2.14 0.612,2.8 0.197,0.66 0.923,3.54 1.614,6.4 1.154,4.775 5.659,19.027 6.942,21.958 0.299,0.683 0.945,2.232 1.436,3.442 4.039,9.951 15.808,31.528 16.707,30.629 C 50.109,300.424 190.4,19.931 190.4,19.726 c 0,-0.199 -3.046,-0.146 -3.249,0.056 M 209.6,19.679 c 0,0.651 140.452,280.883 140.697,280.721 0.974,-0.645 7.322,-11.225 10.68,-17.8 8.313,-16.276 15.737,-39.003 17.835,-54.6 0.222,-1.65 0.713,-5.25 1.091,-8 0.856,-6.23 0.977,-31.864 0.179,-38 -2.637,-20.272 -7.916,-40.034 -14.51,-54.317 -0.435,-0.944 -1.094,-2.474 -1.464,-3.4 -1.21,-3.033 -5.751,-11.566 -9.371,-17.609 -15.772,-26.333 -39.28,-48.967 -66.958,-64.468 -17.2,-9.633 -37.088,-16.654 -57.179,-20.184 -8.356,-1.468 -21,-2.879 -21,-2.343 M 199.121,52.9 c -0.363,0.715 -4.198,8.39 -8.522,17.056 -4.324,8.666 -8.021,16.046 -8.214,16.4 -0.194,0.354 -4.592,9.155 -9.774,19.558 -5.182,10.402 -9.591,19.222 -9.799,19.6 -0.207,0.377 -2.158,4.286 -4.335,8.686 -2.177,4.4 -6.543,13.13 -9.703,19.4 -3.159,6.27 -6.057,12.075 -6.439,12.9 l -0.696,1.5 h 58.38 58.381 L 229.3,109.8 C 213.296,77.79 200.107,51.6 199.992,51.6 c -0.116,0 -0.507,0.585 -0.871,1.3 M 193.8,183.047 c -36.815,5.548 -56.885,43.831 -39.923,76.153 19.873,37.868 74.075,37.052 92.947,-1.4 15.024,-30.611 -2.797,-66.705 -36.562,-74.05 -2.783,-0.605 -13.947,-1.082 -16.462,-0.703 m 73.147,5.453 c 0.124,1.595 0.231,26.795 0.239,56 l 0.014,53.1 h 28 28.001 l -28.001,-56 c -15.4,-30.8 -28.108,-56 -28.24,-56 -0.131,0 -0.137,1.305 -0.013,2.9 m -137.402,3.604 c -1.68,3.353 -7.308,14.607 -12.505,25.01 -5.198,10.402 -9.619,19.222 -9.825,19.6 -0.206,0.377 -3.908,7.776 -8.226,16.442 -4.319,8.666 -8.012,16.046 -8.206,16.4 -0.195,0.354 -3.416,6.809 -7.159,14.344 l -6.804,13.7 h 28.193 28.192 l -0.02,-54.5 c -0.011,-29.975 -0.147,-55.083 -0.303,-55.796 -0.268,-1.232 -0.431,-0.998 -3.337,4.8 M 0.063,304.1 0,400.4 99.1,400.335 c 54.505,-0.035 95.86,-0.197 91.9,-0.358 -6.932,-0.283 -18.823,-1.479 -23.941,-2.409 -23.883,-4.34 -42.876,-10.959 -64.061,-22.323 C 80.393,363.118 52.491,338.602 38.8,318.839 28.249,303.607 21.671,292.156 16.793,280.526 15.887,278.367 14.903,276.06 14.605,275.4 12.383,270.47 8.388,258.325 6.249,250 4.977,245.047 4.332,241.944 2.594,232.4 1.837,228.245 0.832,219.065 0.427,212.6 0.262,209.96 0.098,251.135 0.063,304.1 m 399.418,-90.727 c -1.39,30.748 -12.739,65.922 -30.08,93.227 -2.314,3.643 -5.481,8.375 -5.756,8.6 -0.135,0.11 -1.045,1.37 -2.023,2.8 -10.468,15.302 -31.607,35.996 -47.617,46.614 -1.648,1.092 -3.222,2.197 -3.498,2.456 -0.277,0.258 -1.514,1.068 -2.749,1.8 -1.235,0.731 -2.721,1.626 -3.302,1.988 -13.85,8.634 -34,17.478 -49.656,21.796 -15.524,4.281 -30.11,6.615 -45.8,7.33 -3.52,0.16 38.015,0.319 92.3,0.354 L 400,400.4 v -96.2 c 0,-52.91 -0.062,-96.2 -0.138,-96.2 -0.076,0 -0.248,2.418 -0.381,5.373 M 64.43,319.888 c 12.271,13.763 28.424,27.223 42.17,35.138 1.1,0.633 2.582,1.542 3.293,2.02 2.402,1.614 18.273,9.297 22.907,11.089 29.34,11.349 59.84,15.433 88.4,11.837 14.98,-1.886 31.554,-6.209 46.6,-12.153 24.283,-9.594 51.913,-28.999 67.071,-47.104 l 1.603,-1.915 H 199.968 63.461 l 0.969,1.088"
       style="fill:#000000;fill-opacity:0;fill-rule:evenodd;stroke:none"
       inkscape:connector-curvature="0" />
    <path
       id="path2"
       d="m 190.7,0.682 c 0.495,0.096 1.305,0.096 1.8,0 0.495,-0.095 0.09,-0.173 -0.9,-0.173 -0.99,0 -1.395,0.078 -0.9,0.173 m 16.405,0.001 c 0.497,0.096 1.217,0.092 1.6,-0.008 0.382,-0.1 -0.025,-0.179 -0.905,-0.174 -0.88,0.004 -1.193,0.086 -0.695,0.182 M 67.775,50.5 66.6,51.8 67.9,50.625 c 0.715,-0.646 1.3,-1.231 1.3,-1.3 0,-0.309 -0.33,-0.037 -1.425,1.175 m 25.947,2.929 -1.122,1.029 1.3,-0.904 c 0.715,-0.497 1.3,-0.961 1.3,-1.029 0,-0.316 -0.442,-0.045 -1.478,0.904 M 335.6,53.8 c 0.746,0.77 1.447,1.4 1.557,1.4 0.11,0 -0.411,-0.63 -1.157,-1.4 -0.746,-0.77 -1.447,-1.4 -1.557,-1.4 -0.11,0 0.411,0.63 1.157,1.4 M 90.785,55.629 89.4,56.858 90.9,55.781 c 1.326,-0.951 1.757,-1.381 1.385,-1.381 -0.063,0 -0.738,0.553 -1.5,1.229 M 346.8,65 c 0.746,0.77 1.447,1.4 1.557,1.4 0.11,0 -0.411,-0.63 -1.157,-1.4 -0.746,-0.77 -1.447,-1.4 -1.557,-1.4 -0.11,0 0.411,0.63 1.157,1.4 M 77.781,66.5 76.2,68.2 77.9,66.619 c 0.935,-0.87 1.7,-1.635 1.7,-1.7 0,-0.303 -0.348,0 -1.819,1.581 M 320.4,64.925 c 0,0.069 0.585,0.654 1.3,1.3 L 323,67.4 321.825,66.1 C 320.73,64.888 320.4,64.616 320.4,64.925 M 49.781,68.5 48.2,70.2 49.9,68.619 c 0.935,-0.87 1.7,-1.635 1.7,-1.7 0,-0.303 -0.348,0 -1.819,1.581 m 23.594,2 -1.175,1.3 1.3,-1.175 c 0.715,-0.646 1.3,-1.231 1.3,-1.3 0,-0.309 -0.33,-0.037 -1.425,1.175 M 328.4,72.6 c 0.746,0.77 1.447,1.4 1.557,1.4 0.11,0 -0.411,-0.63 -1.157,-1.4 -0.746,-0.77 -1.447,-1.4 -1.557,-1.4 -0.11,0 0.411,0.63 1.157,1.4 M 70.175,73.7 69,75 70.3,73.825 c 0.715,-0.646 1.3,-1.231 1.3,-1.3 0,-0.309 -0.33,-0.037 -1.425,1.175 m -4.4,4.8 -1.175,1.3 1.3,-1.175 c 1.212,-1.095 1.484,-1.425 1.175,-1.425 -0.069,0 -0.654,0.585 -1.3,1.3 M 332.8,77.325 c 0,0.069 0.585,0.654 1.3,1.3 l 1.3,1.175 -1.175,-1.3 C 333.13,77.288 332.8,77.016 332.8,77.325 M 55.944,90.3 c -1.151,1.389 -1.638,2.1 -1.44,2.1 0.11,0 0.682,-0.63 1.269,-1.4 1.09,-1.429 1.222,-1.968 0.171,-0.7 M 21,111.2 c -0.341,0.66 -0.531,1.2 -0.421,1.2 0.11,0 0.48,-0.54 0.821,-1.2 0.341,-0.66 0.531,-1.2 0.421,-1.2 -0.11,0 -0.48,0.54 -0.821,1.2 m 151.3,57.1 c 15.675,0.058 41.325,0.058 57,0 15.675,-0.058 2.85,-0.105 -28.5,-0.105 -31.35,0 -44.175,0.047 -28.5,0.105 m 25.6,14.393 c 0.935,0.084 2.465,0.084 3.4,0 0.935,-0.084 0.17,-0.153 -1.7,-0.153 -1.87,0 -2.635,0.069 -1.7,0.153 m -28.978,9.936 -1.122,1.029 1.3,-0.904 c 0.715,-0.497 1.3,-0.961 1.3,-1.029 0,-0.316 -0.442,-0.045 -1.478,0.904 M 18.914,194.6 c 0.003,1.1 0.081,1.503 0.173,0.895 0.092,-0.609 0.09,-1.509 -0.005,-2 -0.095,-0.492 -0.171,0.005 -0.168,1.105 m 361.987,0 c 0.004,0.88 0.086,1.193 0.182,0.695 0.096,-0.497 0.092,-1.217 -0.008,-1.6 -0.1,-0.382 -0.179,0.025 -0.174,0.905 m 18.857,5.6 c 0,3.08 0.063,4.287 0.139,2.682 0.076,-1.604 0.076,-4.124 -10e-4,-5.6 -0.077,-1.475 -0.139,-0.162 -0.138,2.918 M 0.155,201 c 0.001,2.86 0.065,3.978 0.142,2.483 0.077,-1.494 0.077,-3.834 -0.001,-5.2 C 0.218,196.918 0.155,198.14 0.155,201 M 236,196.925 c 0,0.069 0.585,0.654 1.3,1.3 l 1.3,1.175 -1.175,-1.3 C 236.33,196.888 236,196.616 236,196.925 M 18.928,205.2 c 0,1.43 0.073,2.015 0.161,1.3 0.089,-0.715 0.089,-1.885 0,-2.6 -0.088,-0.715 -0.161,-0.13 -0.161,1.3 m 361.981,2.4 c 0,0.99 0.078,1.395 0.173,0.9 0.096,-0.495 0.096,-1.305 0,-1.8 -0.095,-0.495 -0.173,-0.09 -0.173,0.9 M 7.656,254.4 c 0,0.33 0.155,0.96 0.344,1.4 0.217,0.504 0.344,0.578 0.344,0.2 0,-0.33 -0.155,-0.96 -0.344,-1.4 -0.217,-0.504 -0.344,-0.578 -0.344,-0.2 m 384.173,0.629 c -0.148,0.586 -0.191,1.143 -0.097,1.237 0.095,0.094 0.292,-0.308 0.439,-0.895 0.148,-0.586 0.191,-1.143 0.097,-1.237 -0.095,-0.094 -0.292,0.308 -0.439,0.895 M 152.028,256.6 c 0,0.22 0.258,0.85 0.572,1.4 0.314,0.55 0.572,0.82 0.572,0.6 0,-0.22 -0.258,-0.85 -0.572,-1.4 -0.314,-0.55 -0.572,-0.82 -0.572,-0.6 M 158,266.8 c 0.47,0.66 0.944,1.2 1.054,1.2 0.11,0 -0.184,-0.54 -0.654,-1.2 -0.47,-0.66 -0.944,-1.2 -1.054,-1.2 -0.11,0 0.184,0.54 0.654,1.2 m 3.8,4.4 c 0.859,0.88 1.652,1.6 1.762,1.6 0.11,0 -0.503,-0.72 -1.362,-1.6 -0.859,-0.88 -1.652,-1.6 -1.762,-1.6 -0.11,0 0.503,0.72 1.362,1.6 m 75.8,0.2 c -0.972,0.99 -1.677,1.8 -1.567,1.8 0.11,0 0.995,-0.81 1.967,-1.8 0.972,-0.99 1.677,-1.8 1.567,-1.8 -0.11,0 -0.995,0.81 -1.967,1.8 m -65.6,8.22 c 1.387,0.941 2.178,1.215 1.2,0.416 -0.55,-0.45 -1.18,-0.819 -1.4,-0.821 -0.22,-0.002 -0.13,0.181 0.2,0.405 m 190.2,0.78 c -0.341,0.66 -0.531,1.2 -0.421,1.2 0.11,0 0.48,-0.54 0.821,-1.2 0.341,-0.66 0.531,-1.2 0.421,-1.2 -0.11,0 -0.48,0.54 -0.821,1.2 m -39.181,16.5 c 0.252,0.662 -1.271,0.705 -28.076,0.797 l -28.343,0.098 28.177,0.105 c 28.024,0.105 29.722,0.033 28.479,-1.2 -0.404,-0.401 -0.451,-0.361 -0.237,0.2 m -246.276,0.803 c 0.166,0.166 12.982,0.256 28.48,0.2 L 133.4,297.8 104.92,297.6 c -15.664,-0.11 -28.344,-0.064 -28.177,0.103 M 64.8,321 c 0.746,0.77 1.447,1.4 1.557,1.4 0.11,0 -0.411,-0.63 -1.157,-1.4 -0.746,-0.77 -1.447,-1.4 -1.557,-1.4 -0.11,0 0.411,0.63 1.157,1.4 m 265.6,4.8 c -1.639,1.65 -2.89,3 -2.78,3 0.11,0 1.541,-1.35 3.18,-3 1.639,-1.65 2.89,-3 2.78,-3 -0.11,0 -1.541,1.35 -3.18,3 m -258,3.125 c 0,0.069 0.585,0.654 1.3,1.3 L 75,331.4 73.825,330.1 C 72.73,328.888 72.4,328.616 72.4,328.925 m 252.975,1.975 -1.175,1.3 1.3,-1.175 c 0.715,-0.646 1.3,-1.231 1.3,-1.3 0,-0.309 -0.33,-0.037 -1.425,1.175 m -8.205,7.368 -0.97,1.068 1.087,-0.768 c 0.599,-0.422 1.094,-0.903 1.1,-1.068 0.021,-0.493 -0.198,-0.354 -1.217,0.768 m 24.016,3.232 -2.186,2.3 2.3,-2.186 c 2.137,-2.032 2.483,-2.414 2.186,-2.414 -0.062,0 -1.097,1.035 -2.3,2.3 M 64.4,346.925 c 0,0.069 0.585,0.654 1.3,1.3 L 67,349.4 65.825,348.1 C 64.73,346.888 64.4,346.616 64.4,346.925 m 269.775,1.175 -1.175,1.3 1.3,-1.175 c 0.715,-0.646 1.3,-1.231 1.3,-1.3 0,-0.309 -0.33,-0.037 -1.425,1.175 M 281.2,362 c -0.77,0.422 -1.256,0.774 -1.08,0.783 0.424,0.022 2.68,-1.151 2.68,-1.393 0,-0.262 -0.023,-0.253 -1.6,0.61 m -156.8,3 c 0.55,0.314 1.18,0.572 1.4,0.572 0.22,0 -0.05,-0.258 -0.6,-0.572 -0.55,-0.314 -1.18,-0.572 -1.4,-0.572 -0.22,0 0.05,0.258 0.6,0.572 m 73.5,16.493 c 0.935,0.084 2.465,0.084 3.4,0 0.935,-0.084 0.17,-0.153 -1.7,-0.153 -1.87,0 -2.635,0.069 -1.7,0.153 m -73.9,3.64 c 0.33,0.203 1.05,0.491 1.6,0.638 0.695,0.186 0.817,0.154 0.4,-0.104 -0.33,-0.203 -1.05,-0.491 -1.6,-0.638 -0.695,-0.186 -0.817,-0.154 -0.4,0.104"
       inkscape:connector-curvature="0"
       style="fill:#141414;fill-rule:evenodd;stroke:none" />
    <path
       id="path3"
       d="m 193.905,0.683 c 0.497,0.096 1.217,0.092 1.6,-0.008 0.382,-0.1 -0.025,-0.179 -0.905,-0.174 -0.88,0.004 -1.193,0.086 -0.695,0.182 M 236,3.982 c 0.33,0.223 0.945,0.409 1.367,0.412 1.023,0.008 0.704,-0.221 -0.767,-0.55 -0.876,-0.196 -1.038,-0.159 -0.6,0.138 m 90.4,42.172 c 0,0.085 0.495,0.473 1.1,0.862 l 1.1,0.708 -0.762,-0.862 C 327.164,46.099 326.4,45.723 326.4,46.154 m 6,4.771 c 0,0.069 0.585,0.654 1.3,1.3 L 335,53.4 333.825,52.1 C 332.73,50.888 332.4,50.616 332.4,50.925 M 58.793,59.1 54.2,63.8 58.9,59.207 c 4.366,-4.267 4.882,-4.807 4.593,-4.807 -0.058,0 -2.173,2.115 -4.7,4.7 m 280.444,-1.6 c 1.189,1.265 2.883,2.919 3.763,3.676 0.88,0.756 -0.016,-0.279 -1.992,-2.3 -3.962,-4.056 -5.186,-5.006 -1.771,-1.376 M 322,66.113 c 0,0.087 0.72,0.825 1.6,1.639 0.88,0.814 1.597,1.338 1.593,1.164 C 325.186,68.604 322,65.807 322,66.113 m 25.6,0.012 c 0,0.069 0.585,0.654 1.3,1.3 l 1.3,1.175 -1.175,-1.3 C 347.93,66.088 347.6,65.816 347.6,66.125 M 75.775,68.1 74.6,69.4 75.9,68.225 c 1.212,-1.095 1.484,-1.425 1.175,-1.425 -0.069,0 -0.654,0.585 -1.3,1.3 m -8,8 -1.175,1.3 1.3,-1.175 c 1.212,-1.095 1.484,-1.425 1.175,-1.425 -0.069,0 -0.654,0.585 -1.3,1.3 M 335.2,79.725 c 0,0.069 0.585,0.654 1.3,1.3 l 1.3,1.175 -1.175,-1.3 C 335.53,79.688 335.2,79.416 335.2,79.725 m 59.206,76.508 c 0.003,0.422 0.189,1.037 0.412,1.367 0.297,0.438 0.334,0.276 0.138,-0.6 -0.329,-1.471 -0.558,-1.79 -0.55,-0.767 m 0.862,3.367 c 0.02,1.039 0.65,2.746 0.664,1.8 0.006,-0.44 -0.143,-1.16 -0.332,-1.6 -0.211,-0.49 -0.339,-0.568 -0.332,-0.2 m -137.068,8 c 0,0.618 0.135,1.04 0.3,0.938 0.165,-0.102 0.3,-0.524 0.3,-0.938 0,-0.414 -0.135,-0.836 -0.3,-0.938 -0.165,-0.102 -0.3,0.32 -0.3,0.938 m 139.006,5.033 c 0.003,0.422 0.176,1.035 0.383,1.363 0.28,0.443 0.347,0.314 0.26,-0.501 -0.137,-1.288 -0.652,-1.978 -0.643,-0.862 M 1.709,184.8 c 0,0.99 0.078,1.395 0.173,0.9 0.096,-0.495 0.096,-1.305 0,-1.8 -0.095,-0.495 -0.173,-0.09 -0.173,0.9 m 264.8,2.8 c 0,0.99 0.078,1.395 0.173,0.9 0.096,-0.495 0.096,-1.305 0,-1.8 -0.095,-0.495 -0.173,-0.09 -0.173,0.9 m -133.115,54.6 c 0,30.58 0.048,43.031 0.106,27.669 0.058,-15.362 0.058,-40.382 0,-55.6 -0.058,-15.218 -0.106,-2.649 -0.106,27.931 M 18.901,191.4 c 0.004,0.88 0.086,1.193 0.182,0.695 0.096,-0.497 0.092,-1.217 -0.008,-1.6 -0.1,-0.382 -0.179,0.025 -0.174,0.905 m 247.693,52.4 c 0,29.7 0.048,41.909 0.106,27.131 0.058,-14.778 0.058,-39.078 0,-54 -0.058,-14.922 -0.106,-2.831 -0.106,26.869 m -101.219,-48.5 -1.175,1.3 1.3,-1.175 c 1.212,-1.095 1.484,-1.425 1.175,-1.425 -0.069,0 -0.654,0.585 -1.3,1.3 m 68.225,-0.775 c 0,0.069 0.585,0.654 1.3,1.3 l 1.3,1.175 -1.175,-1.3 c -1.095,-1.212 -1.425,-1.484 -1.425,-1.175 M 399.293,211.6 c 0,0.77 0.082,1.085 0.183,0.7 0.1,-0.385 0.1,-1.015 0,-1.4 -0.101,-0.385 -0.183,-0.07 -0.183,0.7 M 0.901,215.8 c 0.004,0.88 0.086,1.193 0.182,0.695 0.096,-0.497 0.092,-1.217 -0.008,-1.6 -0.1,-0.382 -0.179,0.025 -0.174,0.905 m 0.4,5.2 c 0.004,0.88 0.086,1.193 0.182,0.695 0.096,-0.497 0.092,-1.217 -0.008,-1.6 -0.1,-0.382 -0.179,0.025 -0.174,0.905 m 380.392,-0.2 c 0,0.77 0.082,1.085 0.183,0.7 0.1,-0.385 0.1,-1.015 0,-1.4 -0.101,-0.385 -0.183,-0.07 -0.183,0.7 m -127.6,10.4 c 0,0.77 0.082,1.085 0.183,0.7 0.1,-0.385 0.1,-1.015 0,-1.4 -0.101,-0.385 -0.183,-0.07 -0.183,0.7 M 4.406,241.033 c 0.003,0.422 0.189,1.037 0.412,1.367 0.297,0.438 0.334,0.276 0.138,-0.6 -0.329,-1.471 -0.558,-1.79 -0.55,-0.767 M 199.943,318.3 c 130.189,0.096 136.929,0.136 136.676,0.801 -0.203,0.533 -0.155,0.589 0.202,0.234 1.342,-1.331 0.875,-1.336 -136.945,-1.236 L 63,318.199 199.943,318.3 M 64.8,321.325 c 0,0.069 0.585,0.654 1.3,1.3 l 1.3,1.175 -1.175,-1.3 C 65.13,321.288 64.8,321.016 64.8,321.325 m 257.375,12.775 -1.175,1.3 1.3,-1.175 c 0.715,-0.646 1.3,-1.231 1.3,-1.3 0,-0.309 -0.33,-0.037 -1.425,1.175 m 22.702,3.107 c -1.706,2.056 -1.43,2.051 0.475,-0.007 0.814,-0.88 1.338,-1.597 1.164,-1.593 -0.174,0.004 -0.911,0.724 -1.639,1.6 M 61.2,343.725 c 0,0.069 0.585,0.654 1.3,1.3 l 1.3,1.175 -1.175,-1.3 C 61.53,343.688 61.2,343.416 61.2,343.725 m 276.094,1.087 c -0.719,0.653 -1.157,1.188 -0.975,1.188 0.182,0 0.849,-0.54 1.481,-1.2 1.47,-1.535 1.186,-1.528 -0.506,0.012 M 96.4,348.946 c 0,0.11 0.54,0.584 1.2,1.054 0.66,0.47 1.2,0.764 1.2,0.654 0,-0.11 -0.54,-0.584 -1.2,-1.054 -0.66,-0.47 -1.2,-0.764 -1.2,-0.654 m 80.5,31.33 c 0.385,0.1 1.015,0.1 1.4,0 0.385,-0.101 0.07,-0.183 -0.7,-0.183 -0.77,0 -1.085,0.082 -0.7,0.183 m 8.2,0.806 c 0.495,0.096 1.305,0.096 1.8,0 0.495,-0.095 0.09,-0.173 -0.9,-0.173 -0.99,0 -1.395,0.078 -0.9,0.173 m 9.4,0.394 c 0.385,0.1 1.015,0.1 1.4,0 0.385,-0.101 0.07,-0.183 -0.7,-0.183 -0.77,0 -1.085,0.082 -0.7,0.183 m 9,0.006 c 0.495,0.096 1.305,0.096 1.8,0 0.495,-0.095 0.09,-0.173 -0.9,-0.173 -0.99,0 -1.395,0.078 -0.9,0.173 m 10.6,0.394 c 0.385,0.1 1.015,0.1 1.4,0 0.385,-0.101 0.07,-0.183 -0.7,-0.183 -0.77,0 -1.085,0.082 -0.7,0.183 m 7.6,16.8 c 0.385,0.1 1.015,0.1 1.4,0 0.385,-0.101 0.07,-0.183 -0.7,-0.183 -0.77,0 -1.085,0.082 -0.7,0.183 m -30.995,1.207 c 0.497,0.096 1.217,0.092 1.6,-0.008 0.382,-0.1 -0.025,-0.179 -0.905,-0.174 -0.88,0.004 -1.193,0.086 -0.695,0.182 m 16.4,0 c 0.497,0.096 1.217,0.092 1.6,-0.008 0.382,-0.1 -0.025,-0.179 -0.905,-0.174 -0.88,0.004 -1.193,0.086 -0.695,0.182"
       inkscape:connector-curvature="0"
       style="fill:#1c1417;fill-rule:evenodd;stroke:none" />
    <path
       id="path4"
       d="m 251.4,7.2 c 0.44,0.189 1.07,0.344 1.4,0.344 0.378,0 0.304,-0.127 -0.2,-0.344 -0.44,-0.189 -1.07,-0.344 -1.4,-0.344 -0.378,0 -0.304,0.127 0.2,0.344 m -66.1,12.676 c 0.385,0.1 1.015,0.1 1.4,0 0.385,-0.101 0.07,-0.183 -0.7,-0.183 -0.77,0 -1.085,0.082 -0.7,0.183 m -3.4,0.406 c 0.495,0.096 1.305,0.096 1.8,0 0.495,-0.095 0.09,-0.173 -0.9,-0.173 -0.99,0 -1.395,0.078 -0.9,0.173 m -77.2,3.947 c -1.495,0.811 -1.404,1.149 0.1,0.371 0.66,-0.341 1.2,-0.706 1.2,-0.81 0,-0.258 -0.043,-0.243 -1.3,0.439 m 210.1,12.317 c 0,0.11 0.54,0.584 1.2,1.054 0.66,0.47 1.2,0.764 1.2,0.654 0,-0.11 -0.54,-0.584 -1.2,-1.054 -0.66,-0.47 -1.2,-0.764 -1.2,-0.654 m -200.5,4.083 c -1.495,0.811 -1.404,1.149 0.1,0.371 0.66,-0.341 1.2,-0.706 1.2,-0.81 0,-0.258 -0.043,-0.243 -1.3,0.439 m -36.5,1.215 -1.6,1.432 1.7,-1.272 c 1.463,-1.094 1.991,-1.621 1.6,-1.598 -0.055,0.003 -0.82,0.65 -1.7,1.438 M 70.175,48.1 69,49.4 70.398,48.2 c 0.769,-0.66 1.474,-1.245 1.567,-1.3 0.092,-0.055 -0.008,-0.1 -0.223,-0.1 -0.216,0 -0.921,0.585 -1.567,1.3 M 299.2,48.946 c 0,0.11 0.54,0.584 1.2,1.054 0.66,0.47 1.2,0.764 1.2,0.654 0,-0.11 -0.54,-0.584 -1.2,-1.054 -0.66,-0.47 -1.2,-0.764 -1.2,-0.654 M 332.8,51 c 0.746,0.77 1.447,1.4 1.557,1.4 0.11,0 -0.411,-0.63 -1.157,-1.4 -0.746,-0.77 -1.447,-1.4 -1.557,-1.4 -0.11,0 0.411,0.63 1.157,1.4 M 61.791,55.7 58.6,59 61.9,55.809 c 3.065,-2.963 3.482,-3.409 3.191,-3.409 -0.061,0 -1.546,1.485 -3.3,3.3 m 276.094,-0.105 c 1.587,1.632 2.941,2.886 3.008,2.787 0.068,-0.1 -1.23,-1.436 -2.885,-2.969 L 335,52.626 l 2.885,2.969 M 54.987,62.5 52.6,65 55.1,62.613 C 57.422,60.395 57.783,60 57.487,60 c -0.061,0 -1.186,1.125 -2.5,2.5 M 344.4,62.125 c 0,0.069 0.585,0.654 1.3,1.3 L 347,64.6 345.825,63.3 C 344.73,62.088 344.4,61.816 344.4,62.125 M 320.383,65.3 c 0.981,1.045 1.836,1.9 1.9,1.9 0.301,0 -0.017,-0.359 -1.783,-2.017 l -1.9,-1.783 1.783,1.9 m -241.008,0 -1.175,1.3 1.3,-1.175 C 80.712,64.33 80.984,64 80.675,64 c -0.069,0 -0.654,0.585 -1.3,1.3 M 348.4,66.525 c 0,0.069 0.585,0.654 1.3,1.3 L 351,69 349.825,67.7 C 348.73,66.488 348.4,66.216 348.4,66.525 M 328,72.6 c 2.081,2.09 3.874,3.8 3.984,3.8 0.11,0 -1.503,-1.71 -3.584,-3.8 -2.081,-2.09 -3.874,-3.8 -3.984,-3.8 -0.11,0 1.503,1.71 3.584,3.8 M 73.578,70.7 72.2,72.2 73.7,70.822 c 1.396,-1.284 1.684,-1.622 1.378,-1.622 -0.066,0 -0.741,0.675 -1.5,1.5 m -3.2,3.2 -1.378,1.5 1.5,-1.378 c 1.396,-1.284 1.684,-1.622 1.378,-1.622 -0.066,0 -0.741,0.675 -1.5,1.5 M 358,78 c 0.697,0.88 1.357,1.6 1.467,1.6 0.11,0 -0.37,-0.72 -1.067,-1.6 -0.697,-0.88 -1.357,-1.6 -1.467,-1.6 -0.11,0 0.37,0.72 1.067,1.6 M 64.975,79.7 63.8,81 65.1,79.825 c 1.212,-1.095 1.484,-1.425 1.175,-1.425 -0.069,0 -0.654,0.585 -1.3,1.3 m -2.4,2.8 -1.175,1.3 1.3,-1.175 c 1.212,-1.095 1.484,-1.425 1.175,-1.425 -0.069,0 -0.654,0.585 -1.3,1.3 m 279.6,6.032 c 0.616,0.807 1.201,1.468 1.3,1.468 0.278,0 -1.454,-2.34 -1.966,-2.656 -0.25,-0.155 0.05,0.38 0.666,1.188 M 344.8,92 c 0.47,0.66 0.944,1.2 1.054,1.2 0.11,0 -0.184,-0.54 -0.654,-1.2 -0.47,-0.66 -0.944,-1.2 -1.054,-1.2 -0.11,0 0.184,0.54 0.654,1.2 M 44.2,108 c -0.341,0.66 -0.531,1.2 -0.421,1.2 0.11,0 0.48,-0.54 0.821,-1.2 0.341,-0.66 0.531,-1.2 0.421,-1.2 -0.11,0 -0.48,0.54 -0.821,1.2 m 218.078,17.795 c 0.366,0.767 0.736,1.324 0.823,1.237 0.183,-0.183 -1.031,-2.632 -1.305,-2.632 -0.101,0 0.116,0.628 0.482,1.395 m 3.6,7.2 c 0.366,0.767 0.736,1.324 0.823,1.237 0.183,-0.183 -1.031,-2.632 -1.305,-2.632 -0.101,0 0.116,0.628 0.482,1.395 m -235.834,4.649 c -0.246,0.707 -0.378,1.356 -0.292,1.441 0.086,0.086 0.357,-0.423 0.604,-1.129 0.246,-0.707 0.378,-1.356 0.292,-1.441 -0.086,-0.086 -0.357,0.423 -0.604,1.129 m 239.034,1.751 c 0.366,0.767 0.736,1.324 0.823,1.237 0.183,-0.183 -1.031,-2.632 -1.305,-2.632 -0.101,0 0.116,0.628 0.482,1.395 M 394.868,156 c 0.02,1.039 0.65,2.746 0.664,1.8 0.006,-0.44 -0.143,-1.16 -0.332,-1.6 -0.211,-0.49 -0.339,-0.568 -0.332,-0.2 m -109.39,16.195 c 0.366,0.767 0.736,1.324 0.823,1.237 0.183,-0.183 -1.031,-2.632 -1.305,-2.632 -0.101,0 0.116,0.628 0.482,1.395 M 132.695,185.5 c -0.084,0.165 -0.026,0.84 0.129,1.5 0.277,1.18 0.282,1.175 0.329,-0.3 0.045,-1.424 -0.122,-1.862 -0.458,-1.2 m 134.299,58.3 c 0,29.7 0.048,41.909 0.106,27.131 0.058,-14.778 0.058,-39.078 0,-54 -0.058,-14.922 -0.106,-2.831 -0.106,26.869 M 0.114,194.2 c 0.003,1.1 0.081,1.503 0.173,0.895 0.092,-0.609 0.09,-1.509 -0.005,-2 -0.095,-0.492 -0.171,0.005 -0.168,1.105 m 380.841,6.8 c 0.001,2.86 0.065,3.978 0.142,2.483 0.077,-1.494 0.077,-3.834 -10e-4,-5.2 -0.078,-1.365 -0.141,-0.143 -0.141,2.717 M 18.94,199.6 c 0,1.87 0.069,2.635 0.153,1.7 0.084,-0.935 0.084,-2.465 0,-3.4 -0.084,-0.935 -0.153,-0.17 -0.153,1.7 m 217.86,-1.4 c 0.746,0.77 1.447,1.4 1.557,1.4 0.11,0 -0.411,-0.63 -1.157,-1.4 -0.746,-0.77 -1.447,-1.4 -1.557,-1.4 -0.11,0 0.411,0.63 1.157,1.4 m -76.022,2.1 -1.378,1.5 1.5,-1.378 c 0.825,-0.759 1.5,-1.434 1.5,-1.5 0,-0.306 -0.338,-0.018 -1.622,1.378 m 141.1,4.695 c 0.366,0.767 0.736,1.324 0.823,1.237 0.183,-0.183 -1.031,-2.632 -1.305,-2.632 -0.101,0 0.116,0.628 0.482,1.395 m 97.815,1.805 c 0,0.77 0.082,1.085 0.183,0.7 0.1,-0.385 0.1,-1.015 0,-1.4 -0.101,-0.385 -0.183,-0.07 -0.183,0.7 m -399.2,8 c 0,0.77 0.082,1.085 0.183,0.7 0.1,-0.385 0.1,-1.015 0,-1.4 -0.101,-0.385 -0.183,-0.07 -0.183,0.7 m 247.521,-0.346 c -0.008,0.14 0.249,0.86 0.57,1.6 0.322,0.74 0.585,1.076 0.586,0.746 0.002,-0.576 -1.127,-2.866 -1.156,-2.346 M 147.693,231.2 c 0,0.77 0.082,1.085 0.183,0.7 0.1,-0.385 0.1,-1.015 0,-1.4 -0.101,-0.385 -0.183,-0.07 -0.183,0.7 m 169.935,5 c 0,0.22 0.258,0.85 0.572,1.4 0.314,0.55 0.572,0.82 0.572,0.6 0,-0.22 -0.258,-0.85 -0.572,-1.4 -0.314,-0.55 -0.572,-0.82 -0.572,-0.6 M 22.834,238 c 0.012,0.33 0.177,0.96 0.366,1.4 l 0.344,0.8 0.022,-0.8 c 0.012,-0.44 -0.153,-1.07 -0.366,-1.4 -0.345,-0.533 -0.385,-0.533 -0.366,0 m 298.644,6.195 c 0.366,0.767 0.736,1.324 0.823,1.237 0.183,-0.183 -1.031,-2.632 -1.305,-2.632 -0.101,0 0.116,0.628 0.482,1.395 m 71.951,6.034 c -0.148,0.586 -0.191,1.143 -0.097,1.237 0.095,0.094 0.292,-0.308 0.439,-0.895 0.148,-0.586 0.191,-1.143 0.097,-1.237 -0.095,-0.094 -0.292,0.308 -0.439,0.895 m -146.751,7.976 c -0.366,0.767 -0.583,1.395 -0.482,1.395 0.274,0 1.488,-2.449 1.305,-2.632 -0.087,-0.087 -0.457,0.47 -0.823,1.237 M 28.629,258.4 c 0.147,0.55 0.435,1.27 0.638,1.6 0.258,0.417 0.29,0.295 0.104,-0.4 -0.147,-0.55 -0.435,-1.27 -0.638,-1.6 -0.258,-0.417 -0.29,-0.295 -0.104,0.4 m 130.571,9.725 c 0,0.069 0.585,0.654 1.3,1.3 l 1.3,1.175 -1.175,-1.3 c -1.095,-1.212 -1.425,-1.484 -1.425,-1.175 m 6.109,6.186 c 2.701,2.415 3.504,2.845 1.091,0.586 -1.21,-1.134 -2.331,-2.069 -2.491,-2.079 -0.16,-0.01 0.47,0.662 1.4,1.493 m 172.569,2.684 c 0.366,0.767 0.736,1.324 0.823,1.237 0.183,-0.183 -1.031,-2.632 -1.305,-2.632 -0.101,0 0.116,0.628 0.482,1.395 m 3.2,6.4 c 0.366,0.767 0.736,1.324 0.823,1.237 0.183,-0.183 -1.031,-2.632 -1.305,-2.632 -0.101,0 0.116,0.628 0.482,1.395 M 18.6,284.8 c 0.341,0.66 0.711,1.2 0.821,1.2 0.11,0 -0.08,-0.54 -0.421,-1.2 -0.341,-0.66 -0.711,-1.2 -0.821,-1.2 -0.11,0 0.08,0.54 0.421,1.2 m 180.091,2.689 c 0.71,0.088 1.97,0.09 2.8,0.003 0.83,-0.087 0.249,-0.159 -1.291,-0.161 -1.54,-0.002 -2.219,0.069 -1.509,0.158 M 374.2,298 c -0.341,0.66 -0.531,1.2 -0.421,1.2 0.11,0 0.48,-0.54 0.821,-1.2 0.341,-0.66 0.531,-1.2 0.421,-1.2 -0.11,0 -0.48,0.54 -0.821,1.2 m -242.5,20.7 c 37.565,0.056 99.035,0.056 136.6,0 37.565,-0.056 6.83,-0.102 -68.3,-0.102 -75.13,0 -105.865,0.046 -68.3,0.102 m -92.136,1.233 c 0.216,0.403 0.707,0.988 1.091,1.3 0.432,0.351 0.335,0.071 -0.254,-0.733 -1.05,-1.435 -1.444,-1.702 -0.837,-0.567 m 292.621,3.767 -1.985,2.1 2.1,-1.985 c 1.951,-1.844 2.283,-2.215 1.985,-2.215 -0.063,0 -1.008,0.945 -2.1,2.1 m -264.202,0.4 c 0.981,1.045 1.836,1.9 1.9,1.9 0.301,0 -0.017,-0.359 -1.783,-2.017 l -1.9,-1.783 1.783,1.9 m 255.402,8.4 -1.985,2.1 2.1,-1.985 c 1.155,-1.092 2.1,-2.037 2.1,-2.1 0,-0.298 -0.371,0.034 -2.215,1.985 M 48.4,330.925 c 0,0.069 0.585,0.654 1.3,1.3 L 51,333.4 49.825,332.1 C 48.73,330.888 48.4,330.616 48.4,330.925 m 301.775,1.175 -1.175,1.3 1.3,-1.175 c 0.715,-0.646 1.3,-1.231 1.3,-1.3 0,-0.309 -0.33,-0.037 -1.425,1.175 M 76.8,333 c 0.746,0.77 1.447,1.4 1.557,1.4 0.11,0 -0.411,-0.63 -1.157,-1.4 -0.746,-0.77 -1.447,-1.4 -1.557,-1.4 -0.11,0 0.411,0.63 1.157,1.4 m -23.6,3.2 c 1.195,1.21 2.263,2.2 2.373,2.2 0.11,0 -0.778,-0.99 -1.973,-2.2 -1.195,-1.21 -2.263,-2.2 -2.373,-2.2 -0.11,0 0.778,0.99 1.973,2.2 M 80,335.8 c 0.746,0.77 1.447,1.4 1.557,1.4 0.11,0 -0.411,-0.63 -1.157,-1.4 -0.746,-0.77 -1.447,-1.4 -1.557,-1.4 -0.11,0 0.411,0.63 1.157,1.4 m 266.4,0.4 c -0.972,0.99 -1.677,1.8 -1.567,1.8 0.11,0 0.995,-0.81 1.967,-1.8 0.972,-0.99 1.677,-1.8 1.567,-1.8 -0.11,0 -0.995,0.81 -1.967,1.8 m -283,10.2 c 1.083,1.1 2.06,2 2.17,2 0.11,0 -0.687,-0.9 -1.77,-2 -1.083,-1.1 -2.06,-2 -2.17,-2 -0.11,0 0.687,0.9 1.77,2 m 272.586,0.3 -2.186,2.3 2.3,-2.186 c 2.137,-2.032 2.483,-2.414 2.186,-2.414 -0.062,0 -1.097,1.035 -2.3,2.3 m -33.786,2.735 -1.2,1.031 1.3,-0.86 c 0.715,-0.473 1.3,-0.938 1.3,-1.033 0,-0.3 -0.169,-0.195 -1.4,0.862 m -235.4,-0.11 c 0,0.069 0.585,0.654 1.3,1.3 l 1.3,1.175 -1.175,-1.3 C 67.13,349.288 66.8,349.016 66.8,349.325 m 264.975,1.175 -1.175,1.3 1.3,-1.175 c 0.715,-0.646 1.3,-1.231 1.3,-1.3 0,-0.309 -0.33,-0.037 -1.425,1.175 M 106.8,355.379 c 0,0.11 0.54,0.48 1.2,0.821 0.66,0.341 1.2,0.531 1.2,0.421 0,-0.11 -0.54,-0.48 -1.2,-0.821 -0.66,-0.341 -1.2,-0.531 -1.2,-0.421 m 202.4,12.257 c -0.664,0.543 -0.731,0.679 -0.2,0.404 1.305,-0.674 2.028,-1.228 1.6,-1.225 -0.22,0.002 -0.85,0.371 -1.4,0.821 M 100,373.355 c 0,0.276 2.821,1.957 2.994,1.784 0.084,-0.084 -0.556,-0.559 -1.421,-1.057 -0.865,-0.498 -1.573,-0.825 -1.573,-0.727 m 84.305,7.328 c 0.497,0.096 1.217,0.092 1.6,-0.008 0.382,-0.1 -0.025,-0.179 -0.905,-0.174 -0.88,0.004 -1.193,0.086 -0.695,0.182 m 2.795,19.199 c 0.495,0.096 1.305,0.096 1.8,0 0.495,-0.095 0.09,-0.173 -0.9,-0.173 -0.99,0 -1.395,0.078 -0.9,0.173 m 23.605,10e-4 c 0.497,0.096 1.217,0.092 1.6,-0.008 0.382,-0.1 -0.025,-0.179 -0.905,-0.174 -0.88,0.004 -1.193,0.086 -0.695,0.182 m -11.605,0.406 c 0.715,0.089 1.885,0.089 2.6,0 0.715,-0.088 0.13,-0.161 -1.3,-0.161 -1.43,0 -2.015,0.073 -1.3,0.161"
       inkscape:connector-curvature="0"
       style="fill:#0c0a0b;fill-rule:evenodd;stroke:none" />
  </g>
</svg>
