<?xml version="1.0" encoding="UTF-8" standalone="no"?>
<svg
   xmlns:dc="http://purl.org/dc/elements/1.1/"
   xmlns:cc="http://creativecommons.org/ns#"
   xmlns:rdf="http://www.w3.org/1999/02/22-rdf-syntax-ns#"
   xmlns:svg="http://www.w3.org/2000/svg"
   xmlns="http://www.w3.org/2000/svg"
   xmlns:sodipodi="http://sodipodi.sourceforge.net/DTD/sodipodi-0.dtd"
   xmlns:inkscape="http://www.inkscape.org/namespaces/inkscape"
   id="svg"
   version="1.1"
   width="400"
   height="400"
   viewBox="0, 0, 400,400"
   sodipodi:docname="ogt.svg"
   inkscape:version="0.92.4 (5da689c313, 2019-01-14)">
  <metadata
     id="metadata4672">
    <rdf:RDF>
      <cc:Work
         rdf:about="">
        <dc:format>image/svg+xml</dc:format>
        <dc:type
           rdf:resource="http://purl.org/dc/dcmitype/StillImage" />
        <dc:title></dc:title>
      </cc:Work>
    </rdf:RDF>
  </metadata>
  <defs
     id="defs4670" />
  <sodipodi:namedview
     pagecolor="#ffffff"
     bordercolor="#666666"
     borderopacity="1"
     objecttolerance="10"
     gridtolerance="10"
     guidetolerance="10"
     inkscape:pageopacity="0"
     inkscape:pageshadow="2"
     inkscape:window-width="1920"
     inkscape:window-height="1016"
     id="namedview4668"
     showgrid="false"
     inkscape:zoom="1.18"
     inkscape:cx="38.388748"
     inkscape:cy="172.44166"
     inkscape:window-x="-8"
     inkscape:window-y="-8"
     inkscape:window-maximized="1"
     inkscape:current-layer="svgg" />
  <g
     id="svgg">
    <path
       id="path0"
       d="m 357.69557,13.159041 c -0.96323,0.275569 -2.36383,0.937947 -3.11217,1.471389 -0.74834,0.532177 -1.61675,0.968286 -1.93026,0.968286 -0.31349,0 -0.6927,0.318547 -0.84187,0.709147 -0.40577,1.055508 -2.32337,1.38164 -3.24236,0.548611 -4.29155,-3.883254 -17.6908,-1.968172 -17.6908,2.52816 0,0.360264 -0.29706,0.771089 -0.65985,0.910138 -0.36279,0.139048 -0.96828,1.186971 -1.34497,2.328436 -0.37671,1.142728 -0.86465,2.076883 -1.0846,2.076883 -0.21869,0 -0.80142,1.308323 -1.29568,2.907385 -0.49299,1.599059 -1.06688,3.031263 -1.27546,3.181688 -0.20856,0.150425 -0.78372,1.856933 -1.27797,3.79224 -0.49426,1.935307 -1.06942,3.593779 -1.278,3.686057 -0.20856,0.09354 -0.37921,0.4399 -0.37921,0.769825 0,0.331189 -1.30833,0.901289 -2.90739,1.266608 -4.74409,1.083317 -10.26433,5.3104 -11.05564,8.466808 -0.16813,0.66617 -0.47655,1.210988 -0.6864,1.210988 -0.46897,0 -2.03643,4.002077 -2.03643,5.199161 0,0.477823 -0.17698,0.868423 -0.39313,0.868423 -2.40681,0 -2.31453,10.538639 0.12388,14.223431 0.70409,1.064356 1.28052,2.159049 1.28052,2.433355 0,0.274305 0.45506,0.743278 1.01126,1.040338 0.55619,0.297058 1.01126,0.822916 1.01126,1.16801 0,0.345094 1.02391,1.590212 2.27535,2.768335 1.25143,1.176858 2.27534,2.361302 2.27534,2.63055 0,0.267985 0.59411,0.877272 1.3197,1.35383 1.30074,0.851989 1.30453,0.869687 0.24144,1.262816 -0.59285,0.219949 -1.22869,0.80269 -1.41325,1.295682 -0.18328,0.494255 -0.72937,1.181914 -1.21225,1.529537 -0.48288,0.348886 -1.02769,1.313378 -1.20972,2.143879 -0.18203,0.830499 -0.54229,1.640773 -0.7989,1.79879 -0.63203,0.390593 -0.59665,3.768213 0.0393,3.768213 0.27809,0 0.50563,0.414621 0.50563,0.920259 0,1.073204 3.33717,5.147335 4.2157,5.147335 0.32866,0 0.88107,0.45506 1.22869,1.011256 0.34763,0.55621 0.96197,1.01127 1.36647,1.01127 0.40325,0 1.14146,0.41588 1.63825,0.92405 0.49805,0.50689 1.70145,1.23373 2.6748,1.61422 0.97334,0.38049 1.88347,0.84061 2.02252,1.02391 0.13905,0.18329 1.4992,0.74453 3.02242,1.24511 3.97047,1.30706 5.141,3.33591 3.57608,6.19652 -0.2642,0.48288 -0.85451,3.04012 -1.31085,5.68204 -0.45633,2.64193 -0.9961,5.03104 -1.20087,5.30914 -0.20352,0.27809 -0.79764,1.98461 -1.31971,3.79224 -0.52206,1.80764 -1.08458,3.40037 -1.25143,3.53942 -0.16687,0.13905 -0.72559,1.39049 -1.24133,2.78098 -0.51448,1.39049 -1.24259,2.71019 -1.61676,2.93267 -0.37416,0.22248 -0.68007,0.73443 -0.68007,1.13767 0,0.40323 -0.42979,1.16295 -0.95439,1.68755 -0.52459,0.52458 -1.16801,1.33486 -1.4284,1.80131 -0.50943,0.91014 -2.59896,-1.6471 -3.39406,-4.1525 -0.1972,-0.62194 -0.5246,-1.13135 -0.72685,-1.13135 -0.20226,0 -0.78499,-1.01001 -1.29442,-2.24628 -0.50943,-1.23501 -1.2388,-2.3651 -1.62054,-2.51173 -0.38175,-0.14662 -0.69399,-0.50436 -0.69399,-0.79636 0,-0.70789 -3.62158,-6.22054 -4.42301,-6.73249 -0.34762,-0.22248 -0.6333,-0.62572 -0.6333,-0.8975 0,-0.718 -3.50403,-5.70606 -4.34212,-6.18135 -0.39313,-0.22248 -0.71421,-0.6687 -0.71421,-0.9923 0,-0.32361 -0.56757,-1.16548 -1.26155,-1.87084 -0.69397,-0.70536 -3.25373,-3.38774 -5.68836,-5.95888 -2.43462,-2.57239 -4.57849,-4.67709 -4.76432,-4.67709 -0.18581,-9.6e-4 -1.24764,-0.85452 -2.35878,-1.89739 -1.11112,-1.04286 -3.17536,-2.692483 -4.5886,-3.665823 -1.41198,-0.973341 -3.13113,-2.263974 -3.81878,-2.868204 -0.68893,-0.604233 -1.71409,-1.245114 -2.27914,-1.424615 -0.56505,-0.179502 -1.0277,-0.486676 -1.0277,-0.683868 0,-0.197193 -1.02137,-0.80775 -2.27029,-1.356361 -1.24891,-0.549879 -2.27281,-1.13514 -2.27534,-1.300741 -0.002,-0.166858 -0.97208,-0.731894 -2.154,-1.25523 -1.1819,-0.524591 -2.44977,-1.241324 -2.81763,-1.594002 -0.36657,-0.352679 -0.87347,-0.640888 -1.12629,-0.640888 -0.25155,0 -2.15905,-0.79637 -4.23846,-1.769713 -2.07815,-0.973341 -4.13102,-1.769712 -4.56206,-1.769712 -0.4298,0 -0.78121,-0.202253 -0.78121,-0.450012 0,-0.246495 -1.53586,-0.85831 -3.41302,-1.358886 -1.87715,-0.500576 -3.52677,-1.064354 -3.66582,-1.252703 -0.13906,-0.187084 -1.95933,-0.768562 -4.04507,-1.290625 -2.08573,-0.522066 -3.906,-1.085845 -4.04504,-1.253968 -0.13906,-0.166859 -2.4144,-0.699037 -5.05633,-1.181915 -2.64192,-0.482878 -5.25857,-1.084581 -5.81477,-1.337397 -1.28809,-0.585268 -12.16171,-1.987133 -15.41798,-1.987133 -1.36014,0 -2.61285,-0.227535 -2.78477,-0.505632 -0.39945,-0.64721 -12.09598,-0.671227 -13.27915,-0.02781 -0.48288,0.261665 -3.72271,0.841878 -7.19895,1.289362 -3.47621,0.44622 -6.77546,1.009999 -7.33165,1.251438 -0.5562,0.242704 -3.17285,0.831766 -5.81477,1.309587 -2.64193,0.477823 -5.03104,1.028962 -5.30914,1.226158 -0.27809,0.195933 -2.43967,0.759712 -4.8035,1.252703 -2.36383,0.492991 -4.52541,1.064356 -4.80351,1.2704 -0.27809,0.206046 -2.09837,0.791314 -4.04505,1.299475 -1.94669,0.509424 -3.65319,1.06562 -3.79224,1.235007 -0.13905,0.169385 -1.68629,0.73443 -3.43704,1.25523 -1.75201,0.522066 -3.28786,1.114918 -3.41428,1.3197 -0.1264,0.204781 -1.48023,0.764769 -3.00977,1.246382 -1.52827,0.480352 -2.77971,1.047924 -2.77971,1.260288 0,0.211101 -1.13768,0.793843 -2.52816,1.294422 -1.39049,0.499308 -2.52816,1.075728 -2.52816,1.280505 0,0.204786 -0.50689,0.532187 -1.1263,0.729379 -1.0378,0.328657 -4.56586,2.554703 -7.37591,4.651821 -1.97955,1.477708 -7.17238,6.406361 -7.17238,6.808331 0,0.20857 -1.53587,1.97195 -3.41302,3.91865 -1.87716,1.94668 -5.00576,5.2788 -6.95244,7.40244 -1.94668,2.12493 -4.18283,4.55069 -4.97036,5.39131 -0.78627,0.84061 -1.80889,2.1186 -2.27281,2.83912 -0.46266,0.72179 -1.35511,1.72674 -1.98209,2.23363 -0.62698,0.5069 -1.1402,1.12251 -1.1402,1.36773 0,0.24524 -0.51195,1.00369 -1.137669,1.68502 -2.571135,2.79995 -5.941173,7.57437 -5.941173,8.41752 0,0.29326 -0.312227,0.65352 -0.693979,0.80015 -0.381753,0.14664 -1.111127,1.27673 -1.620551,2.51174 -0.509424,1.23626 -1.08458,2.24626 -1.277985,2.24626 -0.193404,0 -0.759712,1.13768 -1.260288,2.52816 -0.499311,1.39049 -1.061827,2.52816 -1.24891,2.52816 -0.187085,0 -0.630776,1.08079 -0.985984,2.40176 -0.355206,1.32095 -1.045392,3.31188 -1.53459,4.42427 -0.4892,1.1124 -1.170539,3.5015 -1.515632,5.30914 -0.343831,1.80764 -0.797635,3.51414 -1.008736,3.79224 -0.578949,0.7635 -0.688925,2.41187 -0.230063,3.47622 0.28189,0.651 0.166858,1.08206 -0.367848,1.38164 -0.511952,0.28694 -0.900024,1.59906 -1.138935,3.85544 -0.199725,1.88222 -0.548612,3.6494 -0.774882,3.9275 -0.227534,0.2781 -0.812803,4.94256 -1.300738,10.36545 -1.003679,11.13275 -0.825444,10.30605 -2.131239,9.89143 -2.653304,-0.84188 -6.336832,-5.95761 -7.927045,-11.00634 -0.462654,-1.47266 -1.045395,-3.13239 -1.294417,-3.68858 -0.604231,-1.35131 -1.386697,-6.1624 -1.807635,-11.12391 -0.189612,-2.22478 -0.565045,-4.18916 -0.835557,-4.36486 -0.302115,-0.1972 -0.482879,-6.52519 -0.467709,-16.43305 0.02781,-19.01809 0.04298,-19.08887 4.15503,-19.65517 1.382903,-0.18962 2.514256,-0.49426 2.515519,-0.67755 0,-0.18203 1.820276,-0.76099 4.045056,-1.28432 2.223517,-0.52458 4.043792,-1.10101 4.043792,-1.2805 0,-0.1795 1.042865,-0.63457 2.317058,-1.01127 1.54597,-0.45633 2.499086,-1.08205 2.861878,-1.87968 0.299587,-0.65733 0.739486,-1.19582 0.975869,-1.19582 2.203291,0 4.648021,-14.8542 2.558497,-15.55071 -0.78373,-0.26167 -0.82418,-1.64078 -0.04677,-1.64078 0.709147,0 9.513465,-8.650102 9.52737,-9.359245 0.0051,-0.280632 0.463917,-0.793853 1.020112,-1.141469 0.55619,-0.347627 1.011265,-0.954382 1.011265,-1.350035 0,-0.394395 0.299591,-1.018852 0.666165,-1.385437 2.494034,-2.502875 2.494034,-12.486581 0,-14.989459 -0.366574,-0.366583 -0.666165,-0.991038 -0.666165,-1.385431 0,-0.395657 -0.455075,-1.002416 -1.011265,-1.350038 -0.556195,-0.347622 -1.011264,-0.843141 -1.011264,-1.102278 0,-0.257872 -0.353942,-0.860838 -0.784994,-1.337395 -0.817859,-0.903818 -0.01138,-5.803392 1.485294,-9.021741 0.927834,-1.994721 0.719265,-11.614369 -0.297058,-13.702629 -2.017472,-4.144919 -6.161126,-6.417734 -13.011174,-7.13826 -5.103091,-0.537234 -5.594818,-0.678812 -5.594818,-1.615495 0,-0.798898 -2.558498,-3.186745 -4.23214,-3.948985 -0.731903,-0.333718 -1.329811,-0.778673 -1.329811,-0.989775 0,-1.350037 -9.682854,-1.352565 -10.618274,-0.0025 -0.139048,0.200989 -1.275456,0.768561 -2.526895,1.261552 -1.250174,0.492991 -2.387847,1.047923 -2.52816,1.233742 -0.767297,1.021377 -4.500124,3.011039 -4.673303,2.491502 -0.34383,-1.028961 -8.621025,-0.824181 -9.684117,0.238911 -0.48667,0.486671 -1.074467,0.884856 -1.305794,0.884856 -0.662379,0 -4.057697,3.157671 -4.057697,3.77328 0,0.303378 -0.455068,0.941738 -1.011265,1.418296 -0.556194,0.476559 -1.011263,1.209725 -1.011263,1.6294 0,0.537233 -0.532179,0.763505 -1.798786,0.763505 -1.897384,0 -6.368435,0.968283 -6.796958,1.472652 -0.139049,0.163066 -1.117446,0.696508 -2.174217,1.185707 -1.995983,0.924043 -2.643192,1.372791 -4.722603,3.282816 -0.681339,0.625719 -1.433468,1.137671 -1.66985,1.137671 -0.236383,0 -1.151577,0.853255 -2.033905,1.896121 -0.882328,1.042866 -2.049073,2.387847 -2.592628,2.990816 -0.54229,0.601704 -1.231214,1.796258 -1.530801,2.654569 -0.299587,0.857046 -0.726846,1.559874 -0.949324,1.559874 -1.638248,0 -2.4295618,18.937183 -1.093429,26.166456 0.372903,2.0162 0.849462,3.665825 1.058034,3.665825 0.208573,0 0.656059,0.924051 0.994831,2.052874 0.33751,1.128823 1.056771,2.430822 1.596533,2.893479 0.539762,0.46139 0.982191,1.085848 0.982191,1.386698 0,0.64215 5.987948,6.30776 6.666758,6.30776 0.255345,0 -0.116295,0.76097 -0.826708,1.69134 -0.70915,0.93036 -1.289362,1.93529 -1.289362,2.23236 0,0.29833 -0.256608,0.62825 -0.570101,0.73317 -0.80901,0.26924 -1.14652,4.95898 -0.463916,6.46703 1.530801,3.38395 4.115844,6.34821 5.933592,6.80454 0.642151,0.1618 1.168009,0.49805 1.168009,0.74834 0,0.25029 1.592741,0.86462 3.539425,1.36647 1.946682,0.50184 3.539423,1.06815 3.539423,1.25902 0,0.19214 1.576308,0.62952 3.50403,0.97461 5.105619,0.91141 4.78075,0.0809 4.064016,10.4198 -1.012527,14.60393 0.05562,43.65375 1.604117,43.65375 0.238912,0 0.434845,0.58021 0.434845,1.29062 0,1.66859 1.540913,8.4921 1.99219,8.82202 0.189611,0.13905 0.754655,1.78868 1.255231,3.66583 0.500576,1.87716 1.075732,3.41302 1.277984,3.41302 0.203518,0 0.678811,0.94047 1.058035,2.08952 0.379225,1.14905 0.927835,2.34739 1.218574,2.66215 0.292003,0.31475 0.984719,1.47391 1.540913,2.57493 1.913817,3.79098 9.862353,11.83178 12.695156,12.84306 1.082052,0.3868 2.1009,0.90761 2.261439,1.15663 0.161801,0.24776 2.949099,0.71674 6.193991,1.0416 l 5.900726,0.58906 v 2.99335 c 0,4.3636 1.46254,20.14311 1.975757,21.32629 0.241439,0.5562 0.830501,3.22972 1.308322,5.94117 0.476558,2.71145 1.017585,4.92992 1.200876,4.92992 0.182028,0 0.596647,1.11239 0.918987,2.47254 0.323604,1.36014 1.031489,3.46484 1.573779,4.67709 0.541027,1.21226 1.259022,3.0578 1.594004,4.10067 0.333718,1.04287 0.772353,1.89612 0.973342,1.89612 0.199724,0 0.651001,0.79384 1.002414,1.76466 0.351414,0.96955 0.908875,2.05034 1.240062,2.40176 0.33119,0.35015 1.051716,1.49034 1.601591,2.53321 0.548611,1.04286 1.125031,1.89612 1.280512,1.89612 0.154219,0 0.702829,0.71421 1.218573,1.58642 2.161578,3.6595 12.518183,14.06668 16.773073,16.85398 0.79384,0.52081 1.88981,1.36141 2.43588,1.87084 0.54609,0.50943 1.16169,0.9253 1.36774,0.9253 0.20605,0 0.68766,0.3135 1.07194,0.69778 0.38301,0.38301 2.50414,1.63445 4.71249,2.78097 2.20834,1.14526 4.24984,2.27281 4.53678,2.50414 0.28568,0.23133 1.65089,0.82419 3.03379,1.31718 1.38164,0.49298 2.96806,1.09089 3.52425,1.32854 1.82408,0.77742 5.16883,1.49541 9.44648,2.02885 7.89417,0.98345 9.64493,1.07321 10.71813,0.54735 0.58907,-0.28948 2.6078,-0.60802 4.48495,-0.70662 l 3.41302,-0.18077 v 5.20675 c 0,4.15503 -0.1441,5.20674 -0.71673,5.20674 -0.39313,0 -0.79131,0.19593 -0.88485,0.43484 -0.0922,0.23892 -1.19203,0.919 -2.44347,1.51059 -3.73536,1.76717 -6.06758,3.18042 -6.06758,3.67846 0,0.25787 -0.57516,0.68766 -1.27673,0.95438 -0.70283,0.26673 -1.4284,0.88739 -1.6117,1.37786 -0.18455,0.49045 -0.67249,1.14524 -1.08331,1.45242 -1.43474,1.07573 -0.9746,5.21054 0.75339,6.75398 1.39427,1.24513 1.45495,1.44484 0.86463,2.82774 -0.34889,0.81788 -0.64469,2.31201 -0.65732,3.31821 -0.0214,1.7318 -0.14538,1.86452 -2.2981,2.46749 -1.25143,0.35016 -2.27661,0.77868 -2.27661,0.95059 -9.6e-4,0.17192 -1.02517,0.73443 -2.27534,1.24891 -1.25144,0.51322 -2.27408,1.09596 -2.27408,1.29315 0,0.1972 -0.96197,0.78247 -2.13756,1.30075 -1.17559,0.51827 -2.58378,1.35888 -3.1286,1.86704 -0.54608,0.50816 -1.19961,0.92404 -1.45243,0.92404 -2.26522,0 -8.04839,8.72342 -8.92441,13.46245 -0.99229,5.36223 0.0455,18.30388 1.50806,18.81331 0.26546,0.0936 0.48287,0.5701 0.48287,1.0593 0,1.08078 1.54218,2.56482 2.66468,2.56482 0.44876,0 0.93668,0.19593 1.08459,0.43484 0.14789,0.24017 2.83407,0.82671 5.97024,1.30579 3.13619,0.47909 6.24836,1.1364 6.91579,1.46127 1.77982,0.86464 24.91628,0.82671 25.20575,-0.0417 0.1163,-0.34764 0.78499,-0.63204 1.48656,-0.63204 1.82407,0 10.4729,-1.61045 10.77502,-2.0061 0.13905,-0.18203 1.84556,-0.75213 3.79223,-1.26534 1.94669,-0.51449 3.6532,-1.08459 3.79225,-1.26788 0.13905,-0.18329 1.27546,-0.73696 2.52689,-1.22996 1.25017,-0.49299 2.38785,-1.04538 2.52817,-1.22867 0.13904,-0.1833 1.03401,-0.76856 1.98586,-1.29947 0.95311,-0.53219 2.09079,-1.26662 2.52816,-1.63446 0.43864,-0.36658 1.25144,-0.99357 1.80764,-1.39302 1.78488,-1.28178 1.55861,-23.65473 -0.27304,-27.05889 -0.23765,-0.44117 -0.81028,-2.62297 -1.27294,-4.84776 -0.46139,-2.22477 -1.01504,-4.27258 -1.22868,-4.55068 -0.2149,-0.2781 -0.7812,-1.87083 -1.25902,-3.53943 -0.47908,-1.66858 -1.11239,-3.18421 -1.40819,-3.3675 -0.34762,-0.2149 -0.21869,-0.651 0.36406,-1.23374 0.96702,-0.96703 0.94173,-8.01807 -0.0329,-8.72342 -0.24777,-0.1795 -0.82419,-1.1364 -1.28052,-2.12366 -0.62951,-1.3652 -1.32981,-1.96312 -2.90739,-2.48391 -1.14273,-0.3767 -2.07814,-0.85073 -2.07814,-1.05298 0,-0.20099 -1.08079,-0.51448 -2.40175,-0.69651 -1.32097,-0.18076 -3.03379,-0.4538 -3.80614,-0.60549 l -1.4044,-0.27684 0.14031,-7.13068 0.14031,-7.1294 2.4776,-0.63078 c 1.36268,-0.34762 2.61412,-0.82544 2.78097,-1.06309 0.16687,-0.23765 1.72548,-0.87854 3.46358,-1.42335 1.73811,-0.54609 3.16021,-1.14021 3.16021,-1.32096 0,-0.18078 1.13766,-0.73697 2.52816,-1.23754 1.39049,-0.49931 2.52816,-1.06056 2.52816,-1.24639 0,-0.18455 1.08079,-0.74454 2.40175,-1.24384 1.32096,-0.49932 2.51551,-1.05931 2.65457,-1.2464 0.13904,-0.18581 0.93542,-0.68386 1.76971,-1.10732 0.83429,-0.42347 2.24501,-1.19961 3.13618,-1.72548 1.61044,-0.95185 1.62309,-0.95059 2.67352,0.17698 0.58022,0.62319 1.23123,1.13261 1.44612,1.13261 0.21488,0 0.83176,0.40578 1.37152,0.9013 0.5385,0.49551 1.83291,1.30326 2.87579,1.79372 1.04286,0.49046 1.89612,1.07446 1.89612,1.29694 0,0.22248 0.96702,0.83177 2.14893,1.35258 1.18192,0.52206 2.26397,1.1048 2.40302,1.29567 0.14031,0.19088 1.27798,0.7496 2.52816,1.24259 3.09194,1.21858 3.0161,0.97082 3.02494,9.90406 l 0.007,7.92706 -2.78097,0.34762 c -1.52954,0.19087 -2.78097,0.54861 -2.78097,0.7951 0,0.2465 -0.46266,0.44749 -1.02771,0.44749 -2.69881,0 -6.50116,2.69502 -6.54035,4.63538 -0.009,0.46265 -0.27051,0.92656 -0.58147,1.03022 -0.7673,0.25661 -1.21478,7.05483 -0.54735,8.30249 0.50943,0.95311 -1.10353,8.11033 -1.97955,8.78535 -0.18076,0.13905 -0.70916,2.0731 -1.17307,4.29787 -0.46391,2.22478 -1.03906,4.40658 -1.27672,4.84774 -1.8329,3.40544 -2.05917,25.80114 -0.27304,27.02603 0.5562,0.3805 1.35257,1.00875 1.76971,1.39555 0.41716,0.38681 1.49794,1.02138 2.40176,1.41071 0.90381,0.38933 1.6433,0.87348 1.6433,1.07574 0,0.53343 5.00829,2.81889 8.16217,3.7265 1.49035,0.42727 3.39152,1.07827 4.22581,1.44484 0.8343,0.36659 3.10964,0.93795 5.05633,1.26914 1.94667,0.33246 3.99449,0.80016 4.55068,1.04033 4.17652,1.80386 27.86665,1.81397 31.85482,0.0139 0.5562,-0.25155 3.16653,-0.8343 5.80086,-1.29568 5.03358,-0.88106 7.59839,-2.154 7.59839,-3.77202 0,-0.51449 0.21742,-1.01 0.48288,-1.10354 2.29935,-0.80143 2.41565,-22.05567 0.13019,-23.64588 -0.22753,-0.158 -0.81027,-1.1402 -1.29567,-2.18307 -0.48415,-1.04286 -1.10355,-1.89612 -1.37405,-1.89612 -0.27179,0 -0.75214,-0.56884 -1.06942,-1.26408 -0.31602,-0.69524 -0.86716,-1.26408 -1.2249,-1.26408 -0.35646,0 -0.94553,-0.39818 -1.30832,-0.88485 -0.36405,-0.48668 -1.45748,-1.32222 -2.43083,-1.85821 -0.97333,-0.5347 -1.88347,-1.13261 -2.02252,-1.32853 -0.43864,-0.61436 -11.12896,-6.04105 -11.90258,-6.04105 -0.50816,0 -0.73822,-0.55745 -0.73822,-1.78614 0,-0.9822 -0.32235,-2.55724 -0.71674,-3.50024 -0.67881,-1.62687 -0.65352,-1.76086 0.5069,-2.63182 1.61297,-1.21225 2.46875,-3.8251 1.83923,-5.62262 -0.6017,-1.71788 -3.14882,-4.66194 -4.03368,-4.66194 -0.36404,0 -0.79257,-0.34129 -0.95185,-0.75844 -0.16053,-0.41715 -1.23373,-1.22236 -2.38657,-1.78741 -1.15158,-0.56629 -2.89096,-1.46506 -3.8643,-1.9985 -0.97335,-0.53218 -2.1679,-0.97967 -2.65457,-0.99357 -0.78878,-0.0215 -0.88485,-0.64216 -0.88485,-5.7187 v -5.69594 l 7.25834,0.18708 c 6.94486,0.18076 17.83617,-0.93036 18.52889,-1.88727 0.13905,-0.19341 2.07056,-0.77109 4.29282,-1.28558 2.22351,-0.51573 4.38508,-1.11997 4.8035,-1.34371 0.41966,-0.22375 2.01494,-0.79004 3.54447,-1.25902 1.52954,-0.4677 3.00851,-1.01885 3.28661,-1.22363 0.2781,-0.20478 1.75707,-0.77742 3.28661,-1.27167 1.52954,-0.49552 2.89475,-1.04665 3.03379,-1.22616 0.13905,-0.1795 1.25018,-0.64721 2.46875,-1.03906 1.21857,-0.39314 2.47001,-0.95565 2.78098,-1.25271 0.31096,-0.29579 1.51816,-0.96071 2.68364,-1.47644 1.16548,-0.51702 2.23995,-1.25271 2.38659,-1.63446 0.14663,-0.38302 0.54987,-0.69525 0.89623,-0.69525 0.34763,0 1.09342,-0.43484 1.65973,-0.96575 0.56631,-0.53092 2.56482,-2.38785 4.44198,-4.1247 1.87716,-1.73811 3.41301,-3.37509 3.41301,-3.63928 0,-0.26293 0.56884,-0.92657 1.26409,-1.47266 0.69524,-0.54735 1.26408,-1.3197 1.26408,-1.71662 0,-0.39692 0.18456,-0.72178 0.40956,-0.72178 0.52333,0 4.64676,-6.20285 4.64676,-6.99164 0,-0.32612 0.20477,-0.59285 0.45506,-0.59285 0.25156,0 0.87728,-1.02264 1.3905,-2.27407 0.51447,-1.25018 1.08331,-2.27409 1.26407,-2.27535 0.18077,0 0.73696,-1.13894 1.23753,-2.52943 0.49932,-1.39048 1.05298,-2.52816 1.22996,-2.52816 0.17696,0 0.75718,-1.36519 1.29063,-3.03378 0.53343,-1.6686 1.11491,-3.03379 1.29315,-3.03379 0.17696,0 0.72685,-1.53586 1.22109,-3.41301 0.493,-1.87717 1.07447,-3.64815 1.29063,-3.93636 0.78879,-1.04666 1.47392,-7.26593 1.79752,-16.30916 0.18329,-5.08665 0.52333,-9.36556 0.75719,-9.50967 0.55493,-0.34384 0.55493,-17.2547 -9.6e-4,-17.59852 -0.23385,-0.14537 -0.56883,-4.08299 -0.74328,-8.75249 -0.36152,-9.70814 -1.19961,-19.14197 -1.83038,-20.62347 -0.23639,-0.55619 -0.81154,-3.74168 -1.27672,-7.07884 -0.46518,-3.33718 -1.05931,-6.14344 -1.31844,-6.23571 -0.70409,-0.25156 -0.57136,-1.59906 0.15928,-1.61802 1.57883,-0.0392 11.04553,-9.27709 13.75824,-13.42453 0.52966,-0.81154 1.26408,-1.77604 1.6294,-2.14388 0.36658,-0.36659 0.66617,-0.96197 0.66617,-1.32224 0,-0.35899 0.41841,-1.19581 0.9291,-1.85946 0.51069,-0.66364 1.3513,-2.40048 1.86957,-3.86049 0.51701,-1.46002 1.09849,-2.65457 1.2919,-2.65457 0.19341,0 0.75212,-1.64962 1.24132,-3.66583 0.4892,-2.01621 1.04413,-3.7796 1.23375,-3.91864 0.18961,-0.13906 0.76603,-2.41441 1.27924,-5.05633 0.51448,-2.64192 1.09975,-5.03103 1.30201,-5.30913 0.20099,-0.2781 0.63709,-2.78098 0.96828,-5.56196 0.66238,-5.5708 0.81407,-5.79581 3.91612,-5.80718 1.18192,-0.004 2.14894,-0.23512 2.14894,-0.51322 0,-0.2781 0.57894,-0.50562 1.28556,-0.50562 11.58657,0 18.60474,-7.27352 15.95143,-16.529128 -0.42726,-1.489082 -0.35394,-1.643298 1.01126,-2.118598 0.80902,-0.283146 1.4714,-0.697767 1.4714,-0.922781 0,-0.223734 0.68892,-0.712934 1.5308,-1.085835 3.97553,-1.759599 9.32891,-9.073566 10.92923,-14.932577 0.46391,-1.700187 1.02138,-3.324529 1.23627,-3.607684 2.21341,-2.91244 2.23489,-23.289413 0.0252,-25.018675 -0.17697,-0.139049 -0.77487,-1.162954 -1.32854,-2.275344 -0.55368,-1.11239 -1.29317,-2.204555 -1.64331,-2.427033 -0.35016,-0.222478 -0.63709,-0.654794 -0.63709,-0.960701 0,-0.305908 -1.24765,-1.765919 -2.7734,-3.243629 -2.72157,-2.635607 -2.76834,-2.72915 -2.46495,-4.941289 0.67628,-4.931175 -1.0315,-7.916933 -5.16125,-9.021739 -1.23248,-0.329924 -2.2412,-0.753391 -2.2412,-0.943003 0,-0.188348 -1.02391,-0.496784 -2.27535,-0.683867 -1.25144,-0.188348 -2.27535,-0.578948 -2.27535,-0.870952 0,-0.470238 -3.65698,-4.205593 -5.72501,-5.845105 -1.78867,-1.419563 -6.37602,-1.935307 -9.42498,-1.059299 m 6.14216,4.429336 c 0.64343,0.2604 1.85062,1.032753 2.68238,1.716621 l 1.51057,1.245118 -1.16295,0.941739 c -2.35751,1.910026 -1.02138,2.883367 4.71376,3.437034 7.42015,0.71547 9.98876,2.739261 8.65389,6.818448 -0.44875,1.374055 -0.8166,2.620438 -0.8166,2.772127 0,0.151689 1.7634,2.068035 3.91864,4.259949 6.75651,6.870275 8.79169,12.706532 7.6654,21.969714 -2.16664,17.818471 -9.40224,26.577282 -24.98328,30.238051 -7.33673,1.724204 -7.07884,1.614232 -7.07884,2.997135 0,2.023797 6.51632,1.391757 13.57368,-1.317175 1.01126,-0.386802 1.61676,4.756744 0.83809,7.116779 -2.4498,7.420143 -28.7376,9.413603 -43.25176,3.277753 -15.16897,-6.411412 -18.46063,-10.505772 -13.09966,-16.295248 2.15904,-2.332228 1.83923,-2.356246 4.88187,0.379223 2.84418,2.557227 3.64181,2.764537 4.49381,1.171799 0.52458,-0.980923 0.37163,-1.301998 -1.37279,-2.86693 -16.67322,-14.960387 -19.02694,-19.254466 -15.65438,-28.568211 3.14503,-8.690551 5.30283,-10.857182 12.67746,-12.726756 12.94545,-3.284081 17.2686,-2.093318 20.87375,5.749035 2.78224,6.052414 -4.82245,11.013932 -12.65597,8.255706 -4.8844,-1.719149 -6.18892,0.647209 -1.61928,2.936462 5.69847,2.854293 11.27939,1.633191 16.10564,-3.526788 2.59263,-2.773391 2.8998,-2.911176 3.87441,-1.736845 2.07688,2.502878 5.90578,3.282815 8.46176,1.724205 l 1.66605,-1.015057 0.73569,1.759599 c 0.40451,0.968286 0.7357,1.977025 0.7357,2.242482 0,4.998173 9.18102,4.780751 15.13104,-0.357735 3.76568,-3.251217 1.73558,-5.429226 -2.35372,-2.525635 -6.92843,4.918539 -8.99014,4.549428 -10.63976,-1.906232 -1.36142,-5.324306 -2.97059,-6.405094 -4.83637,-3.248685 -2.50794,4.247307 -8.70445,1.37279 -12.28939,-5.701002 -3.02494,-5.970248 -7.39234,-8.369473 -13.85937,-7.617345 -4.82753,0.562515 -4.6278,0.686396 -3.6671,-2.266496 3.39027,-10.426132 6.88672,-16.593577 10.09621,-17.814679 3.2057,-1.218573 8.11792,0.345094 9.50462,3.026208 1.04034,2.012415 1.64709,1.961852 4.63159,-0.383017 5.4861,-4.311777 8.73352,-5.445656 11.91521,-4.161351 m -22.01016,11.575179 c -1.62181,1.792467 -0.73695,5.013342 0.98472,3.583668 0.62951,-0.522065 2.22352,-3.617797 2.22352,-4.316833 0,-0.614343 -2.50667,-0.04045 -3.20824,0.733165 m 11.76479,2.070564 c -1.41451,1.41577 -2.18559,5.095507 -1.06687,5.095507 0.98345,0 5.35463,-5.694682 4.7997,-6.250876 -0.7319,-0.731902 -2.34487,-0.232591 -3.73283,1.155369 m 13.76837,6.458185 c -1.61424,0.795107 -3.63803,3.840275 -2.98703,4.491276 0.58906,0.590326 2.5724,-0.425995 4.74662,-2.430826 3.01736,-2.780975 2.03517,-3.930024 -1.75959,-2.06045 m -294.473168,1.1958 c 1.156633,0.849461 3.161465,3.137446 4.454618,5.082865 2.529424,3.806146 4.32189,4.581026 4.683416,2.026321 0.161802,-1.143993 0.314757,-1.190763 3.040113,-0.944269 9.235367,0.838085 11.597932,6.518861 7.896706,18.985222 -0.85831,2.888422 -1.248911,3.099524 -3.081827,1.658473 -3.641815,-2.86567 -21.076004,-4.881878 -24.329746,-2.813843 -3.710074,2.35751 -5.565744,5.277534 -6.041039,9.507146 -0.33498,2.981965 -0.653529,3.496445 -3.391527,5.486107 -3.037583,2.205819 -5.86533,1.566195 -5.86533,-1.327284 0,-2.682378 -4.100676,-3.631702 -4.546896,-1.051714 -0.571364,3.297984 -8.116658,7.250762 -10.522201,5.511388 -1.652153,-1.194555 -3.912328,-5.539198 -4.769374,-9.162051 -0.610551,-2.585044 -1.688811,-3.660777 -2.909912,-2.90612 -2.159049,1.333604 2.276608,12.594029 5.903253,14.985668 2.649512,1.746958 7.629987,0.551139 12.186996,-2.923817 l 1.669849,-1.274193 1.620551,1.235006 c 3.225932,2.456107 5.583441,2.228573 9.737207,-0.943003 2.614118,-1.995983 2.677322,-2.009887 3.567235,-0.838086 0.993566,1.308324 0.886119,1.50552 -1.192028,2.180539 -3.808672,1.235005 -6.421526,4.201802 -7.612289,8.643779 -0.993568,3.701229 1.825331,4.187893 3.20065,0.552402 2.289249,-6.047358 8.000363,-8.636194 13.593916,-6.16239 1.29821,0.575156 2.864405,0.973343 3.478748,0.886121 1.446107,-0.206045 1.845556,-2.308211 0.520802,-2.736733 -9.403492,-3.033793 -13.346158,-8.232953 -10.316158,-13.601501 3.51035,-6.220537 20.48568,-4.765582 27.431798,2.352452 11.169407,11.447508 7.475773,21.064624 -13.361323,34.7799 -2.577459,1.69766 -3.410489,2.53068 -3.410489,3.41302 0,1.78488 1.870839,1.49161 5.516445,-0.86463 3.659513,-2.3651 3.884519,-2.3158 4.334531,0.95311 0.669962,4.87555 -1.629399,9.50841 -5.591026,11.26043 -9.430037,4.17145 -26.45593,7.00552 -33.199796,5.52655 -1.185708,-0.26039 -3.976795,-0.8128 -6.201577,-1.22742 -14.717683,-2.74306 -20.351688,-9.03944 -13.75951,-15.37374 l 1.624343,-1.55988 3.539423,1.21352 c 4.026096,1.38038 6.589649,1.57505 6.990363,0.53092 0.465181,-1.21352 -0.797635,-2.12492 -4.209387,-3.03633 -15.357308,-4.10067 -21.546243,-15.223308 -19.334103,-34.749555 0.637096,-5.615043 2.014943,-8.420036 6.178823,-12.573806 6.523918,-6.508748 10.64229,-7.860049 21.245392,-6.97393 2.54333,0.212366 2.645719,-2.12239 0.126409,-2.864406 -1.98587,-0.584005 -2.014944,-0.865894 -0.324869,-3.080562 3.557121,-4.665719 10.386945,-4.856595 17.068872,-0.479087 1.544705,1.012529 3.536895,0.822917 3.761902,-0.358998 0.10871,-0.571364 -0.620664,-1.352566 -2.159049,-2.309474 -2.779711,-1.730526 -2.549649,-2.114806 2.763279,-4.626534 4.428072,-2.09458 7.154692,-2.095844 9.993816,-0.0076 M 65.758826,54.36424 c -0.580212,0.578949 -0.333716,4.914744 0.348887,6.143432 0.515745,0.929099 0.758448,1.034019 1.175595,0.505632 1.781089,-2.253858 0.34383,-8.518638 -1.524482,-6.649064 m 16.893165,0.833028 c -1.286833,3.362454 -0.276832,6.75904 1.384169,4.649291 1.362678,-1.733057 1.405656,-3.315686 0.132729,-4.879353 L 83.19681,53.773915 82.651991,55.197268 M 46.712934,59.3523 c 0,2.291781 1.305795,5.445661 2.141352,5.171354 1.205932,-0.395657 1.083317,-4.414167 -0.174444,-5.752832 C 47.1364,57.128784 46.712934,57.253927 46.712934,59.3523 m 303.379196,3.79224 c 0,2.341076 3.23604,6.334305 4.0678,5.019661 0.82418,-1.303266 0.51954,-2.549649 -0.99482,-4.064017 -1.46381,-1.462541 -3.07298,-1.963115 -3.07298,-0.955644 M 220.39752,77.254201 c 31.78276,4.435656 59.17663,18.153454 75.78917,37.952729 12.4967,14.89467 22.98983,34.32358 27.30793,50.56446 6.40509,24.08578 7.59965,73.19656 2.15778,88.73843 -8.92693,25.49901 -19.4327,37.85414 -38.51778,45.29576 -31.45915,12.26538 -48.10835,11.01647 -73.05751,-5.47977 -7.6502,-5.05759 -6.90692,-3.12102 -7.61481,-19.84352 -0.90887,-21.50075 -0.67375,-81.7291 0.33877,-86.7159 1.53966,-7.58195 8.65895,-16.76296 15.93373,-20.54888 4.22329,-2.19824 4.99059,-3.13493 3.39279,-4.14365 -3.61779,-2.28168 -17.31157,10.26685 -20.18735,18.49854 -0.88865,2.5446 -1.12377,2.43082 -2.91749,-1.4006 -3.11976,-6.6655 -8.87512,-12.42844 -15.22206,-15.23974 -5.99806,-2.65711 -6.93475,0.0227 -1.01379,2.90231 13.62426,6.62506 17.93982,18.11555 16.66942,44.37428 -1.19455,24.67863 -1.11745,40.68314 0.3413,71.19424 l 0.31855,6.64526 -2.15021,1.35763 c -27.26366,17.21171 -58.76707,21.5551 -78.33376,10.80029 -32.359184,-17.7856 -45.198443,-49.08548 -42.078694,-102.58008 2.51552,-43.13926 7.722263,-56.01138 34.747024,-85.89676 15.99062,-17.681952 21.55256,-21.459028 41.34931,-28.073953 25.73415,-8.599538 43.89772,-11.031627 62.74768,-8.401076 m 117.36477,15.928673 c 0.82544,2.150203 5.59481,3.190538 7.21158,1.572515 0.67248,-0.671229 0.54987,-0.843146 -1.0909,-1.528271 -2.46117,-1.027703 -6.50875,-1.05678 -6.12068,-0.0442 M 49.746727,112.10996 c 0,0.8128 3.04264,2.58883 4.440712,2.59137 1.904968,0.002 4.923591,-1.45495 4.301664,-2.07689 -0.791314,-0.79131 -8.742376,-1.25902 -8.742376,-0.51448 M 181.48661,326.74822 c 3.6317,0.96701 4.59872,1.59905 5.23328,3.41807 1.32856,3.80993 0.17698,5.83879 -4.1487,7.3127 -2.74052,0.93415 -3.08688,1.32602 -2.66216,3.01736 0.37039,1.47517 1.91129,1.62813 4.6948,0.46518 2.30062,-0.96196 2.2627,-1.00495 4.17652,4.91347 2.74306,8.48577 4.05264,15.62024 4.39648,23.94927 l 0.31475,7.61355 -2.54965,1.87211 c -12.49922,9.17469 -40.07893,12.49921 -59.73663,7.19893 -4.04884,-1.09091 -5.10815,-3.67847 -5.10815,-12.47774 0,-8.75375 2.45738,-12.72043 11.12391,-17.95877 13.43211,-8.11666 22.27309,-8.71331 35.25645,-2.38027 5.14228,2.50793 6.37855,2.62044 6.61241,0.60422 0.41714,-3.59124 -14.92246,-9.32385 -23.94674,-8.94968 -4.61768,0.19088 -4.66824,0.15675 -3.45346,-2.40174 0.94174,-1.98462 0.99863,-1.99599 4.54816,-0.87728 3.02241,0.95311 4.24224,0.48541 4.24224,-1.62561 0,-1.08585 -4.0994,-3.26132 -6.14468,-3.26132 -0.95439,0 -4.47358,-2.18686 -4.47358,-2.77972 0,-0.88106 2.46875,-3.00851 5.81477,-5.00954 3.91358,-2.34108 4.80349,-2.35878 4.80349,-0.0897 0,2.57367 0.42095,3.26386 2.71652,4.4483 5.52529,2.85176 13.4321,-0.70282 13.45612,-6.04988 0.009,-1.91888 0.69651,-2.05413 4.83385,-0.95185 m 44.72567,1.35635 c 0,6.01577 10.18217,9.62596 14.87823,5.27501 1.03148,-0.95564 1.302,-1.68502 1.302,-3.50656 0,-2.79235 -0.0657,-2.78856 4.30546,-0.24144 3.80489,2.21593 6.31282,4.332 6.31282,5.32304 0,0.53471 -3.77329,2.73168 -4.69101,2.73168 -0.18076,0 -1.58768,0.4715 -3.12733,1.04792 -4.87809,1.82533 -3.43198,5.27121 1.57378,3.75179 3.41681,-1.03655 3.67468,-0.97967 4.50011,0.99863 1.09218,2.61284 1.06437,2.63307 -3.43828,2.40174 -8.26709,-0.42473 -24.14394,5.16251 -24.14394,8.49716 0,2.11733 1.57758,2.41312 4.47738,0.83933 13.53703,-7.34303 23.24137,-7.05861 36.98445,1.08459 9.19998,5.45198 11.62953,9.25559 11.62953,18.20276 0,9.07102 -1.20466,11.7395 -5.74397,12.72801 -22.18967,4.83511 -46.59525,1.71283 -59.43073,-7.60217 l -2.22225,-1.61297 0.31602,-7.654 c 0.34258,-8.30249 1.54218,-14.88708 4.3636,-23.95433 1.82535,-5.86658 1.95554,-6.02712 4.02358,-4.95644 2.37647,1.22867 4.50897,1.02896 4.88186,-0.45635 0.42096,-1.67616 0.12768,-2.01114 -2.67604,-3.05527 -7.07,-2.63434 -6.419,-8.82328 1.12124,-10.67642 4.22581,-1.03907 4.80349,-0.93921 4.80349,0.83429"
       inkscape:connector-curvature="0"
       style="fill:#0c1314;fill-rule:evenodd;stroke:none;stroke-width:1.26407993" />
    <path
       id="path1"
       d="m 371.67569,41.019321 c 0.30532,0.372702 0.6539,1.185868 0.7753,1.80704 l 0.22116,1.129392 0.0661,-1.186995 c 0.0361,-0.65392 -0.31251,-1.464831 -0.77649,-1.807031 -0.73205,-0.53986 -0.76932,-0.53195 -0.2861,0.05759 m -19.15893,0.773634 c 0.96162,0.172792 1.02531,0.301546 0.4808,0.955474 -0.56374,0.677629 -0.54091,0.691185 0.21276,0.135526 1.22005,-0.899007 1.03374,-1.421919 -0.4808,-1.351898 -1.17436,0.05532 -1.1984,0.08469 -0.21276,0.260898 m -8.00904,8.600372 c -0.0806,1.630849 0.43272,1.873673 1.43162,0.677639 0.59136,-0.709268 0.57695,-0.729597 -0.14666,-0.197648 -0.70798,0.520647 -0.8318,0.438206 -1.0097,-0.677641 -0.19472,-1.217487 -0.20674,-1.209587 -0.27526,0.19765 M 100.31692,64.962561 c 0,1.118101 0.0939,1.575509 0.20794,1.016459 0.11532,-0.55905 0.11532,-1.473868 0,-2.032918 -0.11418,-0.559051 -0.20794,-0.101644 -0.20794,1.016459 m 235.1937,1.016459 -1.41236,1.468221 1.56261,-1.32705 c 0.85944,-0.729597 1.56263,-1.390291 1.56263,-1.468211 0,-0.348985 -0.39667,-0.04177 -1.71288,1.32704 m -305.312114,4.065824 -1.412379,1.468234 1.562621,-1.32705 c 1.456848,-1.23669 1.783799,-1.609394 1.41238,-1.609394 -0.08293,0 -0.786119,0.660713 -1.562622,1.46821 m 47.990496,1.11925 c 0.991665,0.09834 2.614384,0.09834 3.60605,0 0.991664,-0.0972 0.180302,-0.177332 -1.803032,-0.177332 -1.983326,0 -2.794681,0.08014 -1.803018,0.177332 M 198.51081,84.852407 c -20.23953,2.926268 -39.7206,8.144097 -52.21437,13.984193 -9.15935,4.28043 -11.72207,6.29755 -23.51865,18.50747 -2.50861,2.59647 -4.99437,5.15232 -5.52325,5.67975 -19.40777,19.35901 -26.4612,37.199 -28.12719,71.14193 -1.7886,36.43552 4.15298,60.94348 18.3632,75.74312 24.06676,25.06475 49.85002,27.87016 88.85665,9.66652 7.42965,-3.46725 8.67134,-4.3222 8.4033,-5.7859 -1.3138,-7.15475 -1.95208,-46.63174 -1.02894,-63.58626 1.55903,-28.64947 -1.4869,-37.27017 -15.42787,-43.66031 -4.07484,-1.86916 -4.80927,-2.78058 -3.22982,-4.01274 3.05913,-2.38531 14.88576,6.07391 18.79832,13.44662 l 1.93525,3.64795 1.71047,-3.23347 c 3.60125,-6.80237 8.69057,-11.54357 15.18748,-14.14572 l 3.03029,-1.21297 1.0169,0.95659 c 1.32942,1.24799 0.73324,1.95501 -3.20098,3.80269 -10.47555,4.91853 -16.61307,14.88436 -15.70914,25.50746 0.32695,3.83771 0.25002,8.96631 -0.27526,18.43518 -1.04577,18.87227 -0.11787,63.34119 1.35948,65.11774 3.02307,3.63779 21.3899,12.53067 30.94352,14.98147 12.45527,3.19734 33.69852,-0.5918 51.89223,-9.25316 13.22937,-6.29978 27.73291,-27.53135 30.64298,-44.85857 1.90281,-11.33126 0.26086,-57.01883 -2.28861,-63.69245 -0.14304,-0.3727 -0.66352,-2.50727 -1.15634,-4.74347 -4.82852,-21.87532 -23.60883,-48.91085 -43.02979,-61.94073 -20.44991,-13.719929 -57.1174,-23.428244 -77.40986,-20.492933 m 143.40655,26.509233 c 0.59742,0.10834 1.46288,0.10394 1.92325,-0.009 0.45915,-0.11297 -0.0301,-0.20217 -1.08785,-0.19652 -1.05776,0.006 -1.43399,0.0972 -0.8354,0.20554 M 61.360772,128.97279 c 0.46278,0.11299 1.220051,0.11299 1.682818,0 0.462781,-0.11409 0.0842,-0.20668 -0.841408,-0.20668 -0.92555,0 -1.30419,0.0925 -0.84141,0.20668 m 58.229268,12.41547 c 1.6023,1.63313 1.54459,3.2922 -0.22357,6.41613 -2.12516,3.75298 -4.63498,8.66925 -4.98837,9.76928 -0.19952,0.62119 -0.80777,2.04422 -1.35106,3.16233 -0.82698,1.70313 -1.03134,3.29446 -1.26453,9.81672 -0.34257,9.62022 -1.53979,11.39451 -6.65555,9.86869 -3.13727,-0.93514 -3.40171,-16.72866 -0.37624,-22.38694 0.33536,-0.62568 0.76448,-1.74831 0.95439,-2.49371 0.52048,-2.04082 6.82748,-13.94694 7.81913,-14.75897 2.0158,-1.65119 4.07242,-1.44676 6.0858,0.60647 m 185.2259,6.74026 c 0.58058,0.51161 1.38833,2.08485 1.79702,3.49437 0.76689,2.65521 1.73932,5.6097 2.99782,9.11311 3.41852,9.51517 3.49907,17.24026 0.19352,18.52665 -3.64331,1.41851 -6.23726,-0.48791 -6.23726,-4.5831 0,-3.37013 -1.11428,-8.68507 -2.35476,-11.233 -0.54452,-1.11811 -0.99405,-2.51064 -1.00006,-3.09455 -0.006,-0.58276 -0.31494,-1.70087 -0.68637,-2.48469 -1.14069,-2.40561 -2.2093,-5.81528 -2.2093,-7.0497 0,-3.51808 4.66622,-5.19071 7.49939,-2.68909 m -71.08605,168.33076 c 0.595,0.10844 1.56865,0.10844 2.16364,0 0.59501,-0.10724 0.10816,-0.19537 -1.08182,-0.19537 -1.18999,0 -1.67681,0.0881 -1.08182,0.19537 m -39.61123,32.43409 c 8.7e-4,2.48467 0.0817,3.44353 0.1791,2.13118 0.0973,-1.3135 0.0973,-3.34642 -0.002,-4.51761 -0.0984,-1.17232 -0.17788,-0.0982 -0.17666,2.38643 m 16.82581,0.22587 c 0,2.36046 0.0817,3.32608 0.18031,2.14587 0.0984,-1.18024 0.0984,-3.11151 0,-4.29172 -0.0985,-1.18022 -0.18031,-0.21458 -0.18031,2.14585"
       inkscape:connector-curvature="0"
       style="fill:#fbd4c4;fill-rule:evenodd;stroke:none;stroke-width:1.16514194" />
  </g>
</svg>
