<?xml version="1.0" encoding="UTF-8" standalone="no"?>
<svg
   xmlns:dc="http://purl.org/dc/elements/1.1/"
   xmlns:cc="http://creativecommons.org/ns#"
   xmlns:rdf="http://www.w3.org/1999/02/22-rdf-syntax-ns#"
   xmlns:svg="http://www.w3.org/2000/svg"
   xmlns="http://www.w3.org/2000/svg"
   xmlns:sodipodi="http://sodipodi.sourceforge.net/DTD/sodipodi-0.dtd"
   xmlns:inkscape="http://www.inkscape.org/namespaces/inkscape"
   id="svg"
   version="1.1"
   width="400"
   height="400"
   viewBox="0, 0, 400,400"
   sodipodi:docname="ogt.svg"
   inkscape:version="0.92.4 (5da689c313, 2019-01-14)">
  <metadata
     id="metadata4672">
    <rdf:RDF>
      <cc:Work
         rdf:about="">
        <dc:format>image/svg+xml</dc:format>
        <dc:type
           rdf:resource="http://purl.org/dc/dcmitype/StillImage" />
        <dc:title></dc:title>
      </cc:Work>
    </rdf:RDF>
  </metadata>
  <defs
     id="defs4670" />
  <sodipodi:namedview
     pagecolor="#000000"
     bordercolor="#666666"
     borderopacity="1"
     objecttolerance="10"
     gridtolerance="10"
     guidetolerance="10"
     inkscape:pageopacity="0"
     inkscape:pageshadow="2"
     inkscape:window-width="1920"
     inkscape:window-height="1016"
     id="namedview4668"
     showgrid="false"
     inkscape:zoom="1.668772"
     inkscape:cx="86.974642"
     inkscape:cy="234.25592"
     inkscape:window-x="-8"
     inkscape:window-y="-8"
     inkscape:window-maximized="1"
     inkscape:current-layer="svgg" />
  <g
     id="svgg">
    <circle
       style="opacity:1;fill:#ffffff;fill-opacity:1;stroke:#ffffff;stroke-width:0.50117445;stroke-miterlimit:4;stroke-dasharray:none;stroke-dashoffset:0;stroke-opacity:1"
       id="path822"
       cx="201.32204"
       cy="199.35593"
       r="199.28558" />
    <path
       id="path0"
       d="m 331.15203,81.47608 c -0.2264,-0.714002 -0.60225,-1.298818 -0.83444,-1.298818 -0.2322,0 -0.90118,-1.1595 -1.486,-2.578758 -0.58484,-1.417813 -1.42218,-2.71518 -1.86042,-2.883512 -0.43825,-0.168312 -0.79669,-0.579011 -0.79669,-0.91422 0,-0.812674 -4.15766,-7.141287 -5.0777,-7.729025 -0.39908,-0.2554 -0.72706,-0.718325 -0.72706,-1.030339 0,-0.824281 -4.02267,-6.550657 -4.98481,-7.096291 -0.45132,-0.255422 -0.81993,-0.767679 -0.81993,-1.139188 0,-0.371497 -0.65157,-1.337972 -1.44828,-2.147744 -0.79669,-0.809772 -3.73534,-3.889182 -6.53033,-6.840893 -2.79497,-2.953146 -5.25619,-5.369377 -5.46952,-5.369377 -0.21331,-0.0011 -1.43231,-0.980997 -2.70792,-2.178229 -1.27559,-1.197215 -3.64536,-3.091008 -5.26779,-4.208429 -1.62097,-1.117408 -3.59458,-2.599077 -4.38402,-3.292736 -0.7909,-0.69367 -1.9678,-1.429419 -2.61649,-1.635492 -0.64869,-0.20606 -1.17982,-0.558705 -1.17982,-0.785081 0,-0.226389 -1.17254,-0.92731 -2.60633,-1.557134 -1.43376,-0.63126 -2.60922,-1.303154 -2.61212,-1.493264 -0.002,-0.191559 -1.11596,-0.840229 -2.47283,-1.441026 -1.35685,-0.602244 -2.81237,-1.425064 -3.23469,-1.829947 -0.42082,-0.404883 -1.00274,-0.73575 -1.29299,-0.73575 -0.28879,0 -2.47863,-0.914244 -4.86582,-2.031653 -2.38576,-1.11742 -4.74249,-2.031664 -5.23732,-2.031664 -0.49343,0 -0.89685,-0.232192 -0.89685,-0.516623 0,-0.282977 -1.7632,-0.98535 -3.9182,-1.56002 -2.155,-0.57467 -4.0488,-1.221896 -4.20843,-1.438124 -0.15964,-0.214776 -2.24933,-0.882322 -4.64382,-1.481659 -2.39443,-0.599339 -4.48415,-1.246568 -4.64376,-1.439574 -0.15964,-0.191558 -2.77176,-0.802508 -5.80474,-1.356859 -3.03298,-0.554352 -6.03693,-1.245117 -6.67546,-1.5353542 -1.47874,-0.6718978 -13.96184,-2.2812613 -17.70011,-2.2812613 -1.56145,0 -2.99959,-0.2612139 -3.19696,-0.5804734 -0.45857,-0.7430094 -13.88637,-0.7705805 -15.24468,-0.031931 -0.55436,0.3003975 -4.27372,0.9664905 -8.2645,1.4802102 -3.99075,0.512267 -7.77835,1.1594971 -8.41685,1.4366716 -0.63855,0.2786271 -3.64249,0.9548801 -6.67547,1.5034281 -3.03298,0.548547 -5.77571,1.181265 -6.09498,1.407648 -0.31923,0.224936 -2.80077,0.872163 -5.51448,1.438123 -2.71373,0.565964 -5.19527,1.2219 -5.51452,1.458441 -0.31926,0.236544 -2.40896,0.908442 -4.64378,1.491819 -2.23484,0.584826 -4.19393,1.22335 -4.35355,1.417809 -0.15963,0.194458 -1.9359,0.843138 -3.94579,1.441027 -2.01134,0.599338 -3.77452,1.279941 -3.91966,1.515029 -0.14508,0.235099 -1.69931,0.877966 -3.45525,1.430868 -1.75447,0.551453 -3.19116,1.203042 -3.19116,1.44684 0,0.242339 -1.30608,0.911337 -2.90235,1.486014 -1.59631,0.573218 -2.90238,1.234953 -2.90238,1.470041 0,0.235099 -0.58193,0.610954 -1.29302,0.837344 -1.19141,0.377304 -5.24167,2.932841 -8.46766,5.340361 -2.27255,1.696431 -8.23401,7.354606 -8.23401,7.816066 0,0.239442 -1.76321,2.263832 -3.91822,4.498686 -2.155,2.234818 -5.746679,6.060151 -7.981509,8.498109 -2.234815,2.439466 -4.80195,5.224271 -5.706045,6.189311 -0.902649,0.965029 -2.076642,2.432174 -2.609226,3.259357 -0.531137,0.828629 -1.555686,1.982326 -2.275474,2.564239 -0.719778,0.581934 -1.308968,1.288683 -1.308968,1.570179 0,0.281549 -0.58772,1.152261 -1.30606,1.934439 -2.951706,3.214393 -6.820564,8.6955 -6.820564,9.663453 0,0.336664 -0.358442,0.750256 -0.7967,0.918588 -0.438259,0.168342 -1.275592,1.465704 -1.860421,2.883516 -0.584825,1.419259 -1.245114,2.578748 -1.467147,2.578748 -0.222031,0 -0.872161,1.306073 -1.446832,2.902369 -0.573217,1.596318 -1.218994,2.902368 -1.433769,2.902368 -0.214776,0 -0.724141,1.240768 -1.131925,2.757267 -0.407782,1.51647 -1.20013,3.802085 -1.761735,5.079131 -0.561609,1.277059 -1.3438,4.019789 -1.73997,6.094979 -0.394725,2.07519 -0.915699,4.03429 -1.158046,4.35357 -0.664643,0.87649 -0.790897,2.76885 -0.264116,3.99074 0.323613,0.74735 0.191556,1.24223 -0.422296,1.58617 -0.587729,0.32939 -1.033244,1.83573 -1.307516,4.42608 -7.925323,39.02005 -4.7425,65.36687 0.565963,94.91773 0.547096,3.11278 1.168205,5.65961 1.378625,5.65961 0.208971,0 0.684961,1.27706 1.055013,2.83854 0.371502,1.56145 1.184167,3.97768 1.806723,5.36937 0.621109,1.3917 1.445379,3.5104 1.829943,4.70763 0.383114,1.19724 0.886675,2.17679 1.117413,2.17679 0.229287,0 0.74736,0.91132 1.150789,2.02584 0.403428,1.11307 1.043403,2.35383 1.42361,2.75727 0.380213,0.40197 1.207388,1.71093 1.838655,2.90816 0.629814,1.19722 1.291553,2.17678 1.470047,2.17678 0.177047,0 0.80686,0.81993 1.398944,1.82124 2.481527,4.20116 14.371073,16.14877 19.255762,19.34865 0.911334,0.5979 2.169527,1.56291 2.796421,2.14775 0.626923,0.58483 1.333644,1.06226 1.570181,1.06226 0.23657,0 0.78946,0.35991 1.23063,0.80107 0.43969,0.4397 2.87478,1.87637 5.41,3.19258 2.53521,1.31479 4.87889,2.60923 5.20831,2.87482 0.32797,0.26557 1.89524,0.94617 3.48282,1.51214 1.58617,0.56594 3.40739,1.25235 4.04591,1.52518 2.09408,0.89248 5.9339,1.71675 10.84471,2.32915 9.06264,1.12902 11.07254,1.23207 12.3046,0.62837 0.67626,-0.33233 2.99379,-0.69803 5.14879,-0.8112 l 3.9182,-0.20753 v 5.97743 c 0,4.77003 -0.16541,5.97741 -0.82282,5.97741 -0.45131,0 -0.90843,0.22493 -1.0158,0.49921 -0.10588,0.27428 -1.36849,1.05503 -2.80515,1.73418 -4.28825,2.02874 -6.96568,3.65118 -6.96568,4.22293 0,0.29605 -0.66029,0.78945 -1.46572,1.09565 -0.80685,0.30621 -1.63982,1.01873 -1.85025,1.58181 -0.21187,0.56304 -0.77203,1.31475 -1.24367,1.66739 -1.64709,1.23498 -1.11885,5.98181 0.8649,7.75369 1.60065,1.42943 1.67031,1.6587 0.99261,3.24629 -0.40051,0.93894 -0.74011,2.65422 -0.75461,3.80938 -0.0246,1.98812 -0.1669,2.14049 -2.63824,2.8327 -1.43667,0.40198 -2.61359,0.89394 -2.61359,1.09129 -9.3e-4,0.19737 -1.17693,0.84315 -2.61213,1.43378 -1.43668,0.58918 -2.61068,1.25817 -2.61068,1.48456 0,0.22639 -1.10435,0.89827 -2.45395,1.49327 -1.3496,0.59499 -2.96623,1.56002 -3.5917,2.14341 -0.62691,0.58336 -1.37717,1.06081 -1.66742,1.06081 -2.60049,0 -9.23967,10.01462 -10.24538,15.4551 -1.13914,6.15593 0.0522,21.01316 1.73129,21.59799 0.30476,0.1075 0.55434,0.6545 0.55434,1.21609 0,1.24076 1.77047,2.94447 3.0591,2.94447 0.51519,0 1.07534,0.22494 1.24514,0.4992 0.16977,0.27571 3.25355,0.94907 6.85393,1.49906 3.60039,0.55001 7.17322,1.30463 7.93944,1.67758 2.04326,0.99262 28.60431,0.94907 28.93661,-0.048 0.13352,-0.39909 0.9012,-0.72558 1.70661,-0.72558 2.09406,0 12.02305,-1.84883 12.36989,-2.30305 0.15964,-0.20897 2.11874,-0.86345 4.35356,-1.45262 2.23483,-0.59065 4.19392,-1.24513 4.35355,-1.45556 0.15964,-0.21041 1.46426,-0.84603 2.90093,-1.41201 1.43521,-0.56595 2.74128,-1.20011 2.90238,-1.41053 0.15961,-0.21044 1.18704,-0.88232 2.2798,-1.49182 1.09418,-0.61096 2.40025,-1.4541 2.90235,-1.87638 0.50358,-0.42084 1.43669,-1.14063 2.07521,-1.5992 2.04906,-1.47151 1.78931,-27.15603 -0.31346,-31.06407 -0.27282,-0.50647 -0.93021,-3.0112 -1.46135,-5.5653 -0.52969,-2.55408 -1.16529,-4.90499 -1.41054,-5.22425 -0.24671,-0.31927 -0.89683,-2.14775 -1.44538,-4.06333 -0.54998,-1.91556 -1.27704,-3.65552 -1.61663,-3.86596 -0.39908,-0.2467 -0.25105,-0.74736 0.41796,-1.41634 1.11015,-1.11016 1.08112,-9.20488 -0.0377,-10.01464 -0.28444,-0.20605 -0.94618,-1.3046 -1.47004,-2.43798 -0.7227,-1.56729 -1.52664,-2.2537 -3.33774,-2.85158 -1.31188,-0.43245 -2.38573,-0.97665 -2.38573,-1.20884 0,-0.23072 -1.24078,-0.59064 -2.75727,-0.79959 -1.51649,-0.20753 -3.48283,-0.52099 -4.3695,-0.69513 l -1.61227,-0.31781 0.16108,-8.18615 0.16109,-8.18467 2.84431,-0.72412 c 1.56437,-0.39909 3.00105,-0.94764 3.1926,-1.22046 0.19157,-0.27282 1.98089,-1.00858 3.97625,-1.63403 1.99538,-0.62692 3.62798,-1.30897 3.62798,-1.51649 0,-0.20754 1.30603,-0.84604 2.90236,-1.42071 1.59629,-0.57321 2.90237,-1.21754 2.90237,-1.43088 0,-0.21186 1.24076,-0.85474 2.75725,-1.42795 1.51649,-0.57321 2.88785,-1.21611 3.04749,-1.43087 0.15961,-0.21333 1.07388,-0.78509 2.03165,-1.27124 0.95778,-0.48613 2.57732,-1.37716 3.6004,-1.98088 1.84882,-1.09274 1.86332,-1.09129 3.06923,0.20317 0.66611,0.71544 1.41347,1.30027 1.66017,1.30027 0.2467,0 0.95488,0.46585 1.57453,1.0347 0.6182,0.56886 2.1042,1.49616 3.30146,2.05922 1.19721,0.56306 2.17678,1.2335 2.17678,1.48891 0,0.25542 1.11015,0.95488 2.467,1.55277 1.35686,0.59934 2.59909,1.26834 2.75871,1.48748 0.16108,0.21913 1.46715,0.86053 2.90238,1.4265 3.54958,1.39894 3.46252,1.11452 3.47266,11.37001 l 0.009,9.10041 -3.19258,0.39908 c -1.75596,0.21912 -3.19261,0.62982 -3.19261,0.91278 0,0.28299 -0.53114,0.51373 -1.17982,0.51373 -3.09829,0 -7.46345,3.09393 -7.50844,5.32149 -0.0106,0.53113 -0.31056,1.06372 -0.66752,1.18272 -0.88089,0.29458 -1.3946,8.09905 -0.62838,9.53139 0.58484,1.09418 -1.26688,9.3108 -2.27256,10.08572 -0.20751,0.15963 -0.81412,2.37995 -1.3467,4.93403 -0.53258,2.55408 -1.19285,5.05882 -1.46569,5.56528 -2.1042,3.90951 -2.36397,29.62013 -0.31345,31.02633 0.63852,0.43682 1.55276,1.15805 2.03164,1.60212 0.47891,0.44408 1.71968,1.17256 2.75726,1.61951 1.03759,0.44698 1.88654,1.00278 1.88654,1.23496 0,0.61241 5.74961,3.23615 9.3703,4.27809 1.71094,0.49052 3.89352,1.23789 4.85131,1.65871 0.95779,0.42085 3.56991,1.07678 5.80475,1.45699 2.23481,0.38167 4.58575,0.9186 5.22425,1.19433 4.79472,2.07085 31.99138,2.08245 36.56986,0.0159 0.63852,-0.28878 3.63523,-0.95779 6.65948,-1.48746 5.77864,-1.01146 8.72308,-2.47282 8.72308,-4.33033 0,-0.59065 0.2496,-1.1595 0.55436,-1.2669 2.63969,-0.92004 2.77321,-25.32026 0.14945,-27.14585 -0.26119,-0.18139 -0.93019,-1.30897 -1.48744,-2.50621 -0.55582,-1.19721 -1.2669,-2.17677 -1.57744,-2.17677 -0.31201,0 -0.86347,-0.65303 -1.22771,-1.45119 -0.36278,-0.79814 -0.99552,-1.45118 -1.4062,-1.45118 -0.40922,0 -1.08549,-0.45711 -1.50198,-1.01582 -0.41793,-0.55873 -1.67321,-1.51794 -2.79063,-2.13325 -1.1174,-0.61385 -2.16226,-1.30028 -2.32188,-1.52518 -0.50355,-0.7053 -12.77623,-6.93523 -13.66437,-6.93523 -0.58338,0 -0.84748,-0.63996 -0.84748,-2.05052 0,-1.12759 -0.37007,-2.93575 -0.82283,-4.01833 -0.77929,-1.86768 -0.75026,-2.0215 0.58193,-3.02137 1.85171,-1.39168 2.83416,-4.39127 2.11146,-6.45486 -0.69075,-1.97216 -3.6149,-5.35199 -4.63074,-5.35199 -0.41791,0 -0.90987,-0.39181 -1.09273,-0.8707 -0.18429,-0.47889 -1.41633,-1.40329 -2.73981,-2.05198 -1.32203,-0.65011 -3.31888,-1.68191 -4.43629,-2.29431 -1.11742,-0.61095 -2.48879,-1.12468 -3.04749,-1.14064 -0.90553,-0.0247 -1.01583,-0.7372 -1.01583,-6.56515 v -6.53902 l 8.33271,0.21476 c 7.97281,0.20751 20.4762,-1.06808 21.27147,-2.16662 0.15962,-0.22204 2.37703,-0.88523 4.92823,-1.47586 2.55262,-0.59208 5.03415,-1.28575 5.5145,-1.54262 0.48178,-0.25686 2.31317,-0.90697 4.06912,-1.44537 1.7559,-0.53692 3.4538,-1.16965 3.77307,-1.40475 0.31926,-0.23509 2.01714,-0.89249 3.77308,-1.4599 1.75594,-0.56886 3.32321,-1.20157 3.48285,-1.40764 0.15963,-0.20608 1.43522,-0.74301 2.83415,-1.19287 1.39893,-0.45133 2.83562,-1.0971 3.19261,-1.43814 0.35699,-0.33956 1.74288,-1.1029 3.08087,-1.69496 1.33798,-0.59356 2.57149,-1.43813 2.73985,-1.87639 0.16833,-0.43971 0.63125,-0.79816 1.02888,-0.79816 0.39907,0 1.25527,-0.49921 1.9054,-1.10869 0.65012,-0.60951 2.94446,-2.74129 5.09947,-4.73522 2.155,-1.9954 3.91818,-3.87466 3.91818,-4.17795 0,-0.30186 0.65304,-1.06373 1.45121,-1.69066 0.79814,-0.62836 1.45118,-1.51503 1.45118,-1.97071 0,-0.45565 0.21188,-0.8286 0.47018,-0.8286 0.60079,0 5.33455,-7.12098 5.33455,-8.02653 0,-0.37438 0.23508,-0.68058 0.52242,-0.68058 0.2888,0 1.00713,-1.17402 1.59632,-2.61068 0.59061,-1.43524 1.24364,-2.61069 1.45117,-2.61216 0.20754,0 0.84604,-1.30751 1.4207,-2.90382 0.57324,-1.5963 1.20886,-2.90237 1.41202,-2.90237 0.20315,0 0.86926,-1.56726 1.48167,-3.48281 0.61238,-1.91559 1.27994,-3.48286 1.48455,-3.48286 0.20316,0 0.83445,-1.76317 1.40184,-3.91819 0.56597,-2.15502 1.2335,-4.18812 1.48166,-4.51899 0.90554,-1.20159 1.69209,-8.34141 2.06358,-18.72321 0.21042,-5.83954 0.6008,-10.75181 0.86926,-10.91725 0.63708,-0.39473 0.63708,-19.80867 -9.1e-4,-20.20339 -0.26846,-0.16689 -0.65303,-4.68733 -0.8533,-10.04801 -0.41502,-11.1451 -1.37716,-21.97528 -2.10131,-23.67608 -0.27138,-0.63851 -0.93165,-4.2955 -1.46569,-8.12662 -0.53404,-3.83113 -5.18443,-20.74633 -9.33847,-28.285894 M 221.39876,12.805999 c 36.48713,5.092206 67.93575,20.840464 87.00722,43.570342 14.34641,17.099332 26.39271,39.404053 31.34995,58.048859 7.35315,27.65086 8.72451,84.03085 2.47718,101.87318 -10.24827,29.2733 -22.30908,43.45719 -44.21906,52.00028 -36.11563,14.08087 -55.22917,12.6471 -83.87124,-6.29086 -8.78256,-5.80619 -7.92926,-3.58298 -8.74192,-22.78069 -1.04339,-24.68322 -0.77347,-93.82636 0.38892,-99.55129 1.76755,-8.70419 9.94061,-19.24416 18.29219,-23.59045 4.84839,-2.52362 5.72926,-3.59897 3.89496,-4.75698 -4.15327,-2.61942 -19.87397,11.78652 -23.1754,21.23663 -1.0202,2.92123 -1.2901,2.79063 -3.34934,-1.60791 -3.58152,-7.65211 -10.18878,-14.26806 -17.47516,-17.49548 -6.88588,-3.05041 -7.96121,0.0261 -1.16386,3.3319 15.64087,7.60568 20.59521,20.79695 19.13677,50.9424 -1.37136,28.33148 -1.28284,46.70493 0.39182,81.73217 l 0.3657,7.62887 -2.46846,1.55859 c -31.29914,19.75932 -67.46559,24.74561 -89.92846,12.39892 C 73.16169,250.6363 58.422007,214.70351 62.003531,153.29085 64.891391,103.76626 70.868815,88.988844 101.89368,54.679934 120.25118,34.380767 126.63639,30.044612 149.36337,22.450575 178.9066,12.57816 199.75869,9.7860827 221.39876,12.805999 M 176.72839,299.22926 c 4.16924,1.11015 5.2794,1.83574 6.00789,3.924 1.52521,4.37386 0.20317,6.70304 -4.76279,8.39512 -3.14614,1.0724 -3.54379,1.52227 -3.05619,3.46396 0.42521,1.69352 2.19418,1.86913 5.3897,0.53403 2.64115,-1.10434 2.59762,-1.15368 4.79472,5.64075 3.14907,9.7418 4.6525,17.93229 5.04723,27.49416 l 0.36134,8.74049 -2.92704,2.1492 c -14.34932,10.5327 -46.01127,14.34932 -68.57863,8.2645 -4.64813,-1.25239 -5.86426,-4.22296 -5.86426,-14.32466 0,-10.04944 2.82113,-14.60326 12.77044,-20.61696 15.4203,-9.31806 25.56987,-10.00301 40.47499,-2.73258 5.90343,2.87913 7.32268,3.0083 7.59116,0.69364 0.47888,-4.1228 -17.13123,-10.70394 -27.49126,-10.27438 -5.30118,0.21912 -5.35923,0.17995 -3.96462,-2.75722 1.08113,-2.27839 1.14644,-2.29145 5.22135,-1.00714 3.46979,1.09419 4.87016,0.55726 4.87016,-1.86623 0,-1.24658 -4.70617,-3.74405 -7.05419,-3.74405 -1.09565,0 -5.13574,-2.51055 -5.13574,-3.19118 0,-1.01146 2.83416,-3.45381 6.67544,-5.75103 4.49287,-2.6876 5.51449,-2.7079 5.51449,-0.10299 0,2.95462 0.48327,3.74696 3.11861,5.10672 6.34314,3.27389 15.42028,-0.80685 15.44786,-6.94537 0.0106,-2.2029 0.7996,-2.35816 5.54934,-1.09273 m 51.3458,1.55711 c 0,6.90621 11.6893,11.05077 17.08046,6.05581 1.18416,-1.0971 1.4947,-1.93443 1.4947,-4.02559 0,-3.20567 -0.0753,-3.20132 4.94276,-0.27718 4.36808,2.54391 7.24722,4.97319 7.24722,6.11093 0,0.61387 -4.3318,3.13602 -5.38537,3.13602 -0.2075,0 -1.82267,0.54129 -3.59021,1.20302 -5.60014,2.09553 -3.93997,6.05145 1.80672,4.30713 3.92254,-1.18997 4.21858,-1.12468 5.1662,1.14644 1.25383,2.99957 1.22192,3.02281 -3.94721,2.75724 -9.49075,-0.48761 -27.71763,5.92665 -27.71763,9.75489 0,2.43072 1.81108,2.77028 5.14011,0.96355 15.54072,-8.42993 26.68147,-8.1034 42.45876,1.24514 10.56173,6.25896 13.35089,10.62556 13.35089,20.89706 0,10.41369 -1.38298,13.47714 -6.59419,14.61197 -25.4741,5.55078 -53.49211,1.96635 -68.22746,-8.72742 l -2.55117,-1.85171 0.36281,-8.78693 c 0.39327,-9.53139 1.77043,-17.09061 5.00947,-27.49997 2.09555,-6.73493 2.24499,-6.91922 4.61914,-5.69007 2.72823,1.41054 5.17638,1.18126 5.60446,-0.5239 0.48327,-1.92426 0.14657,-2.30881 -3.07214,-3.5075 -8.11648,-3.02427 -7.36912,-10.12927 1.2872,-12.25671 4.8513,-1.19285 5.51448,-1.07822 5.51448,0.95778"
       inkscape:connector-curvature="0"
       style="fill:#0c1314;fill-rule:evenodd;stroke:none;stroke-width:1.45118487"
       sodipodi:nodetypes="csccscscscccccccsccccscssscccscsccccsccccscccscsccscccccscsccscscsccccccscccscccscccscccccccccssccscccccccccsccsccssccccscccccccccccccccccsccccccccscscccccsccsccccccssccccsccccsccccccscccscscccsscccsccccsccccccsccccccsccscsssscccscscccccccsccccccccccccccccccccccccccccccccccsccccccssscscccccscsscccssccscccccccccc" />
    <path
       id="path1"
       d="m 409.18374,-38.167684 c 0.37705,0.460267 0.80753,1.464479 0.95745,2.231591 l 0.27312,1.394734 0.0817,-1.46587 c 0.0445,-0.807553 -0.38593,-1.808982 -0.95892,-2.23158 -0.90404,-0.666695 -0.95006,-0.656927 -0.35332,0.07112 m -23.66018,0.955393 c 1.18755,0.213389 1.26621,0.372393 0.59376,1.179956 -0.69618,0.836832 -0.66799,0.853573 0.26275,0.167366 1.5067,-1.110222 1.27661,-1.755988 -0.59376,-1.669516 -1.45026,0.06832 -1.47995,0.104587 -0.26275,0.322194 m -9.8907,10.620965 c -0.0995,2.014006 0.53438,2.313879 1.76797,0.836846 0.73029,-0.875905 0.71249,-0.901011 -0.18112,-0.244084 -0.87431,0.642969 -1.02723,0.541159 -1.24691,-0.836848 -0.24048,-1.503526 -0.25532,-1.49377 -0.33994,0.244086 M 74.071238,-8.599157 c 0,1.3807915 0.115961,1.9456635 0.256794,1.2552695 0.142413,-0.6903945 0.142413,-1.8201435 0,-2.5105375 -0.141007,-0.690395 -0.256794,-0.125524 -0.256794,1.255268 m 290.450712,1.2552695 -1.74418,1.813169 1.92973,-1.63883 c 1.06136,-0.9010115 1.92976,-1.7169315 1.92976,-1.8131575 0,-0.430977 -0.48986,-0.05158 -2.11531,1.6388185 m -377.042928,5.021059 -1.744208,1.813185 1.929748,-1.63883 c 1.799124,-1.527241 2.20289,-1.98751 1.744208,-1.98751 -0.102414,0 -0.970811,0.815943 -1.929748,1.813155 m 59.265507,1.38221 c 1.224649,0.121444 3.228614,0.121444 4.453265,0 1.224648,-0.120037 0.222662,-0.218996 -2.226641,-0.218996 -2.449294,0 -3.451271,0.09897 -2.226624,0.218996 M 195.33505,15.963662 c -24.99465,3.613773 -49.05266,10.057492 -64.48174,17.269676 -11.31128,5.286082 -14.47609,7.77711 -29.04419,22.85566 -3.097989,3.206491 -6.167766,6.362819 -6.820897,7.014165 -23.967479,23.907262 -32.67806,45.938637 -34.735462,87.856207 -2.208818,44.99577 5.128691,75.2617 22.677494,93.53841 29.721065,30.95353 61.561915,34.41805 109.732855,11.93759 9.1752,-4.28185 10.70861,-5.33767 10.3776,-7.14525 -1.62246,-8.83571 -2.41071,-57.58753 -1.27068,-78.52539 1.92531,-35.38044 -1.83623,-46.02651 -19.05253,-53.91797 -5.0322,-2.3083 -5.93917,-3.43386 -3.98864,-4.9555 3.77785,-2.94573 18.38305,7.50093 23.21484,16.6058 l 2.38992,4.50501 2.11233,-3.99315 c 4.44734,-8.40054 10.73236,-14.25565 18.75568,-17.46916 l 3.74223,-1.49794 1.25581,1.18133 c 1.64176,1.54119 0.90551,2.41432 -3.95303,4.69611 -12.9367,6.0741 -20.51619,18.38132 -19.39989,31.50025 0.40376,4.73935 0.30876,11.07287 -0.33992,22.76638 -1.29147,23.30617 -0.14557,78.22274 1.67887,80.41668 3.73332,4.49246 26.4153,15.47465 38.21347,18.50125 15.38155,3.94854 41.61575,-0.73084 64.08394,-11.42713 16.33751,-7.77985 34.24854,-33.99963 37.84231,-55.39775 2.34986,-13.99345 0.32215,-70.41498 -2.82631,-78.65652 -0.17663,-0.46026 -0.81939,-3.09634 -1.428,-5.85791 C 338.10816,90.74974 314.91555,57.362409 290.93179,41.271255 265.67732,24.327933 220.39508,12.338722 195.33505,15.963662 M 372.43391,48.70104 c 0.73778,0.133794 1.80657,0.12836 2.37511,-0.01111 0.56701,-0.139512 -0.0372,-0.249669 -1.34344,-0.242691 -1.30627,0.0074 -1.77089,0.120036 -1.03167,0.25383 M 25.962631,70.449799 c 0.571507,0.139536 1.506693,0.139536 2.078183,0 0.571508,-0.140894 0.103985,-0.255238 -1.03909,-0.255238 -1.143001,0 -1.610599,0.114232 -1.039093,0.255238 M 97.87243,85.782198 c 1.978748,2.016812 1.907481,4.065676 -0.276095,7.923543 -2.624454,4.634726 -5.723937,10.706039 -6.160351,12.064509 -0.246389,0.76713 -0.997545,2.5245 -1.668481,3.9053 -1.021269,2.10327 -1.273641,4.06847 -1.561625,12.12309 -0.423051,11.88041 -1.901552,14.07156 -8.219216,12.18726 -3.874348,-1.15484 -4.200917,-20.65894 -0.464635,-27.64659 0.414151,-0.77268 0.944089,-2.15906 1.178617,-3.07959 0.642763,-2.5203 8.431545,-17.223676 9.656178,-18.226483 2.489398,-2.039126 5.029201,-1.786668 7.515608,0.748961 m 228.74336,8.323828 c 0.71698,0.631807 1.71451,2.574673 2.21922,4.315348 0.94706,3.279036 2.14795,6.927666 3.70213,11.254176 4.22167,11.75069 4.32115,21.29073 0.23899,22.87935 -4.49928,1.75177 -7.70267,-0.60255 -7.70267,-5.65987 0,-4.16192 -1.37606,-10.72556 -2.90799,-13.87211 -0.67244,-1.3808 -1.22759,-3.1005 -1.23502,-3.8216 -0.008,-0.71967 -0.38893,-2.10047 -0.84763,-3.06844 -1.40868,-2.97079 -2.72835,-7.181544 -2.72835,-8.705974 0,-4.344633 5.76252,-6.410238 9.26132,-3.32088 M 238.8286,301.98486 c 0.73479,0.13391 1.93718,0.13391 2.67196,0 0.73481,-0.13243 0.13358,-0.24127 -1.33598,-0.24127 -1.46956,0 -2.07076,0.10879 -1.33598,0.24127 m -48.91761,40.05423 c 0.001,3.06844 0.10092,4.25257 0.22119,2.63189 0.12016,-1.6221 0.12016,-4.13264 -0.002,-5.57899 -0.12152,-1.44774 -0.21967,-0.12126 -0.21817,2.9471 m 20.77891,0.27894 c 0,2.91504 0.10092,4.10753 0.22268,2.65003 0.12151,-1.45752 0.12151,-3.84254 0,-5.30003 -0.12165,-1.4575 -0.22268,-0.26499 -0.22268,2.65"
       inkscape:connector-curvature="0"
       style="fill:#fbd4c4;fill-rule:evenodd;stroke:none;stroke-width:1.43888342" />
  </g>
</svg>
